<?xml version="1.0" standalone="no"?>
<!DOCTYPE svg PUBLIC "-//W3C//DTD SVG 1.1//EN" "http://www.w3.org/Graphics/SVG/1.1/DTD/svg11.dtd" >
<svg xmlns="http://www.w3.org/2000/svg" xmlns:xlink="http://www.w3.org/1999/xlink" version="1.1">
<metadata>
Created by FontForge 20170731 at Fri Jul  7 20:39:04 2023
 By Aleksey,,,
Copyright (c) 2016, playrix
</metadata>
<defs>
<font id="FilmotypeMajor" horiz-adv-x="1886" >
  <font-face 
    font-family="FilmotypeMajor"
    font-weight="400"
    font-stretch="normal"
    units-per-em="2048"
    panose-1="2 0 5 3 0 0 0 0 0 0"
    ascent="1638"
    descent="-410"
    x-height="986"
    cap-height="1470"
    bbox="-222 -546 2138 1934"
    underline-thickness="102"
    underline-position="-508"
    unicode-range="U+000A-FFE6"
  />
<missing-glyph horiz-adv-x="748" 
d="M68 0v1364h544v-1364h-544zM136 68h408v1228h-408v-1228z" />
    <glyph glyph-name=".notdef" horiz-adv-x="748" 
d="M68 0v1364h544v-1364h-544zM136 68h408v1228h-408v-1228z" />
    <glyph glyph-name=".null" horiz-adv-x="0" 
 />
    <glyph glyph-name="nonmarkingreturn" horiz-adv-x="682" 
 />
    <glyph glyph-name="uni000A" unicode="&#xa;" horiz-adv-x="438" 
 />
    <glyph glyph-name="space" unicode=" " horiz-adv-x="466" 
 />
    <glyph glyph-name="exclam" unicode="!" horiz-adv-x="636" 
d="M530 1446q-7 -249 -30 -512q-31 -343 -38 -398l-16 -134l-286 -14q-10 474 -8 604q0 172 2 242q0 7 2 37q2 23 3 63t3 72l2 56zM490 118q-2 -66 -66 -108q-59 -40 -140 -40q-77 0 -124 44q-50 50 -48 104q5 66 58 108q54 42 138 42q76 0 128 -42q54 -42 54 -108z" />
    <glyph glyph-name="quotedbl" unicode="&#x22;" horiz-adv-x="722" 
d="M94 1588l200 -6v-396q-6 0 -14 -1t-26 -1h-54h-94zM426 1570l204 -2l-6 -392l-188 -4q-5 318 -10 398z" />
    <glyph glyph-name="numbersign" unicode="#" horiz-adv-x="1494" 
d="M206 934l-40 196q100 5 364 10l2 6l4 8q0 2 5 10q6 10 7 14q0 2 7 17q1 3 4 8t3 7q21 56 56 138q2 4 9 21q3 6 6.5 15.5t4.5 11.5q5 12 10 23l7.5 16.5t2.5 6.5q1 5 6 16l6 14l206 -54l-102 -274l188 6q15 30 26 58l2 8q2 7 6 17q9 21 10 23q22 46 28 70q5 12 28 67
q19 46 22 51l190 -70q-17 -59 -82 -224q25 4 80 4q60 0 78 2q33 -39 50 -190q-9 0 -43.5 -2t-102.5 -5.5t-140 -6.5l-66 -166h228q38 -50 56 -188q-122 -6 -360 -12l-118 -334l-208 78l86 250q-58 0 -86 -1q-11 0 -33 -0.5t-30 -1.5q-14 -1 -27 -1l-122 -318l-210 76
q42 130 84 240q-11 0 -24 -1q-6 0 -15 -0.5t-22 -1t-24 -0.5q-27 -1 -85 -1l-44 196q55 2 122 3.5t104 3t58 1.5l64 168q-45 -3 -236 -8zM808 782l62 166q-88 -8 -178 -8q-41 -98 -48 -118l-14 -44q50 0 88 2t90 2z" />
    <glyph glyph-name="dollar" unicode="$" horiz-adv-x="950" 
d="M118 974q0 110 78 198q73 81 210 112l16 166l192 -12l10 -154q272 -48 276 -342l-276 -14q-2 116 -100 116q-88 0 -88 -68q0 -40 46 -70q42 -29 110 -54q60 -23 128 -52q70 -30 114 -86t48 -138q4 -136 -68 -216q-74 -86 -226 -110l-16 -162q-17 -2 -82 2q-47 5 -76 6
l-32 4l-10 146q-303 36 -286 356l286 -10q0 -52 30 -86q30 -32 82 -32q86 0 86 74q-1 35 -52 66q-46 26 -110 52q-106 40 -132 54q-63 31 -112 98q-46 64 -46 156z" />
    <glyph glyph-name="percent" unicode="%" horiz-adv-x="1868" 
d="M1386 1450q100 -90 154 -154q-615 -776 -994 -1356l-170 90q1 3 46 78q24 40 72 116q77 126 288 440q227 335 416 578q-122 -8 -221 -15q-40 -3 -89.5 -6t-59.5 -4q-42 -3 -44 -3q10 -57 10 -132q-1 -175 -94 -292q-90 -114 -278 -116q-180 0 -266 104q-86 102 -82 274
q5 183 106 296q102 114 268 114q224 0 308 -166l82 140zM1462 752q180 0 264 -102q84 -106 82 -274q-4 -174 -96 -288q-90 -112 -278 -114q-177 -4 -266 100q-86 97 -82 268q2 176 102 296q92 114 274 114zM534 1076q4 78 -18 114q-24 44 -72 44q-46 0 -76 -48
q-29 -47 -34 -118q-4 -82 18 -122q24 -54 72 -54q99 1 110 184zM1544 362q4 72 -20 116q-24 46 -70 46t-76 -48q-29 -47 -34 -122q-2 -70 20 -120q24 -52 70 -52q99 1 110 180z" />
    <glyph glyph-name="ampersand" unicode="&#x26;" horiz-adv-x="1234" 
d="M696 1074q0 114 -120 114q-52 0 -92 -40q-38 -38 -38 -100q0 -156 306 -132q2 -2 2 -16q0 -6 1 -10t1 -8q4 -22 6 -84q4 -64 0 -106q-140 6 -252 -58q-109 -60 -104 -200q8 -158 170 -158q53 0 114 34q58 34 64 86h-4q-6 0 -9 -1t-11 -1h-34q-8 0 -16 -1t-18 -1h-26
q-2 94 -2 218q85 10 268 16q218 6 302 4q2 -8 2 -38l2 -4v-14v-16v-56q0 -78 -2 -96l-134 -4q-1 -157 -142 -276q-134 -114 -364 -114q-240 0 -378 108t-138 300q0 156 72 240q71 89 170 118q-63 17 -122 82q-62 68 -62 182q0 178 132 298q130 118 378 118q129 0 210 -40
q82 -37 118 -108q39 -75 46 -120q8 -54 6 -114h-150q-22 0 -42 -1t-48 -1h-62z" />
    <glyph glyph-name="quotesingle" unicode="'" horiz-adv-x="412" 
d="M116 1604l206 -18l-42 -394l-186 4z" />
    <glyph glyph-name="parenleft" unicode="(" horiz-adv-x="694" 
d="M444 1566l244 -60q-6 -10 -16 -20q-6 -6 -10 -11t-8 -9q-17 -17 -76 -108q-63 -99 -98 -172q-35 -68 -76 -216q-36 -132 -36 -256q0 -110 24 -236q23 -125 52 -206q38 -108 62 -158q37 -80 52 -104l24 -34l-236 -16q-23 23 -28 30q-19 21 -68 96q-36 58 -82 158
q-34 78 -66 210q-28 111 -28 264q0 137 36 274q42 150 92 236q31 56 112 178q55 80 94 120z" />
    <glyph glyph-name="parenright" unicode=")" horiz-adv-x="718" 
d="M248 -38l-238 34q15 15 20 22q6 8 11 12q8 6 9 10q31 37 86 118q56 80 106 178q46 93 86 214q38 122 38 240q0 116 -30 236q-30 114 -78 204q-58 108 -90 154q-45 66 -76 104l-30 34l248 28l6 -4l12 -12l16 -16q45 -45 82 -90q62 -76 102 -150q48 -92 80 -208
q38 -138 38 -264q0 -130 -42 -272q-43 -141 -98 -238q-49 -83 -118 -178q-46 -64 -100 -118z" />
    <glyph glyph-name="asterisk" unicode="*" horiz-adv-x="748" 
d="M698 1234l-92 -128l-118 26l54 -124l-156 -34l-52 134l-112 -106l-128 96l122 84l-162 18l70 132l140 -36q-16 50 -24 70q-22 51 -32 88l152 24l46 -148l128 110l116 -90l-116 -90z" />
    <glyph glyph-name="plus" unicode="+" horiz-adv-x="990" 
d="M98 526q-2 84 0 138q0 7 1 14t1 16t1 15t1 13v20l2 26q107 17 254 18v52v82v50q0 10 -1 15t-1 11v6l292 10v-220q46 2 238 2l2 -16l6 -50q0 -4 1.5 -16.5t2.5 -20.5q0 -5 0.5 -11.5t1 -10t0.5 -5.5q0 -14 -6 -104q-106 -16 -246 -18v-220q-121 -12 -282 -4q0 152 -2 214z
" />
    <glyph glyph-name="comma" unicode="," horiz-adv-x="534" 
d="M-30 -96q118 202 272 418l264 -86q-151 -207 -314 -376q-152 24 -222 44z" />
    <glyph glyph-name="hyphen" unicode="-" horiz-adv-x="712" 
d="M98 416q-2 74 0 134q0 8 1 17t1 19t1 18t1 16v22l4 26q182 16 500 16q20 -67 8 -244q-24 -6 -516 -24z" />
    <glyph glyph-name="period" unicode="." horiz-adv-x="508" 
d="M438 190q-6 -72 -64 -114q-62 -44 -138 -44q-78 0 -128 50q-46 46 -44 114q5 73 56 114q54 42 134 42t134 -48t50 -114z" />
    <glyph glyph-name="slash" unicode="/" horiz-adv-x="758" 
d="M30 12q233 781 512 1502l188 -66q-334 -856 -504 -1506z" />
    <glyph glyph-name="zero" unicode="0" horiz-adv-x="1144" 
d="M1084 734q-7 -333 -134 -542q-126 -205 -388 -206q-254 -2 -374 186q-118 185 -112 506q5 221 56 386q56 176 170 278q120 108 296 108q256 0 376 -190q120 -185 110 -526zM742 722q2 86 0 150q-4 58 -18 130q-17 76 -40 100q-28 34 -78 34q-82 0 -130 -126
q-51 -130 -52 -334q-6 -189 28 -288q36 -114 118 -110q154 0 172 444z" />
    <glyph glyph-name="one" unicode="1" horiz-adv-x="664" 
d="M322 1458l236 -10l-46 -1436l-338 8q11 693 24 1030q-60 -30 -116 -30l-12 272q4 4 22 0t54 6q28 7 66 22q33 13 66 52q32 38 44 86z" />
    <glyph glyph-name="two" unicode="2" horiz-adv-x="1024" 
d="M950 1116q0 -104 -42 -218q-43 -112 -124 -230q-95 -132 -150 -200q-62 -75 -166 -186h430v-254l-788 -22l-52 242q207 213 374 450q170 236 170 382q0 110 -94 110q-22 0 -50 -16q-22 -13 -40 -68q-18 -54 -12 -142l-322 20q-18 249 98 374q115 124 336 124
q212 0 322 -92t110 -274z" />
    <glyph glyph-name="three" unicode="3" horiz-adv-x="1118" 
d="M50 440l326 18q0 -186 150 -186q64 0 118 48q52 46 52 140q0 172 -258 166l-74 -6q-4 12 -12 98q-1 7 -3 26q-1 12 -1 28q0 11 -1 16q-1 8 -3 12v4v36q328 24 328 210q0 134 -108 134q-68 -2 -104 -68q-34 -61 -34 -152l-320 -14q-6 48 -6 102q0 80 24 148q22 65 78 136
q48 60 154 96q99 34 240 28q212 -11 314 -114q104 -108 98 -262q-5 -123 -62 -198q-50 -70 -114 -96q87 -17 154 -96q68 -80 68 -232q0 -196 -142 -338q-140 -140 -374 -140q-238 0 -360 116t-128 340z" />
    <glyph glyph-name="four" unicode="4" horiz-adv-x="1212" 
d="M140 324l-114 240q194 436 462 900l482 14q-2 -128 -12 -428q-10 -313 -12 -406l214 14q10 -57 10 -256l-228 -24l-6 -366l-332 6q-2 70 -2 340zM370 604l236 16q6 375 12 514q-63 -126 -120 -250q-1 -2 -5 -11t-12.5 -28t-17.5 -37q-9 -19 -29 -62.5t-30 -65.5z" />
    <glyph glyph-name="five" unicode="5" horiz-adv-x="1092" 
d="M108 676q4 39 18 148q14 108 24 174q3 27 8.5 74t7.5 60q2 18 6 53.5t6 49.5q4 36 6 49q12 112 18 152q414 20 772 24q0 -130 -16 -274q-2 0 -200 -8q-14 0 -99.5 -3t-162.5 -5l-40 -264q80 56 202 56q198 0 288 -126q90 -125 86 -336q-6 -212 -140 -370
q-132 -152 -362 -152q-217 0 -344 88q-124 85 -130 268q-4 82 10 144l320 -40q-30 -172 130 -172q66 0 120 58q54 56 60 168q2 99 -26 144q-30 46 -80 58q-128 24 -214 -80z" />
    <glyph glyph-name="six" unicode="6" horiz-adv-x="1124" 
d="M698 944q376 0 376 -434q0 -218 -122 -358q-125 -141 -370 -142q-256 -4 -382 170q-124 171 -116 520q5 162 32 294q30 133 86 242q59 111 160 170q103 62 238 62q440 0 454 -348q2 -42 0 -110l-316 6q-1 26 -8 82q-6 30 -34 58q-26 26 -72 26q-72 0 -122 -92
q-50 -96 -62 -252q88 106 258 106zM580 300q66 0 108 48t42 140q0 108 -36 150q-40 46 -108 46q-152 0 -152 -192q0 -92 42 -144q40 -52 104 -48z" />
    <glyph glyph-name="seven" unicode="7" horiz-adv-x="1014" 
d="M82 1112q-21 56 -32 136q-14 98 -12 104l2 36q350 31 758 62l206 -180l-594 -1306l-280 74l428 1100q-38 -1 -119 -6t-119 -6q-48 -2 -108 -6q-53 -4 -64 -4q-19 0 -30 -1q-4 0 -9.5 -0.5t-9 -1t-5.5 -0.5q-5 -1 -12 -1z" />
    <glyph glyph-name="eight" unicode="8" horiz-adv-x="1100" 
d="M808 748q96 -30 162 -126t66 -210q0 -186 -122 -302t-388 -116q-238 0 -358 114q-118 112 -118 290q0 124 62 216q68 98 168 132q-80 30 -132 108q-56 89 -56 188q0 172 106 278q109 109 336 110q238 0 352 -96q121 -101 122 -270q0 -104 -58 -198q-52 -84 -142 -118z
M414 1026q0 -62 30 -104q32 -44 100 -44q70 0 108 44q36 42 36 108q0 54 -36 94t-104 40q-64 0 -100 -40q-34 -34 -34 -98zM708 434q0 68 -38 112q-42 48 -122 48q-84 0 -126 -52q-46 -55 -46 -124q0 -62 42 -106q42 -46 120 -46q170 0 170 168z" />
    <glyph glyph-name="nine" unicode="9" horiz-adv-x="1098" 
d="M462 542q-176 0 -286 116q-106 115 -106 314q0 214 114 340q115 124 356 126q268 4 382 -180q112 -175 106 -492q-5 -160 -34 -288q-30 -132 -88 -244q-58 -111 -160 -176q-100 -64 -236 -64q-440 0 -440 458l312 -6q0 -170 116 -170q78 0 126 90q50 90 60 250
q-68 -74 -222 -74zM540 1142q-63 -5 -100 -42q-38 -38 -38 -128q0 -98 36 -140q36 -40 106 -40q140 0 140 178q0 91 -40 132q-41 44 -104 40z" />
    <glyph glyph-name="colon" unicode=":" horiz-adv-x="520" 
d="M456 740q-4 -78 -60 -120q-59 -44 -148 -44q-85 0 -138 50q-52 46 -48 124q6 70 62 114q58 46 142 46q87 0 142 -52q54 -50 48 -118zM434 186q-5 -71 -62 -108q-56 -38 -134 -38q-72 0 -128 50q-48 44 -42 110q6 69 62 110q53 38 132 38q74 0 126 -48q50 -47 46 -114z
" />
    <glyph glyph-name="semicolon" unicode=";" horiz-adv-x="560" 
d="M88 758q1 65 64 108q57 40 142 38q86 0 134 -48q50 -50 44 -118q-6 -66 -64 -108q-52 -40 -138 -40q-82 0 -132 48q-54 50 -50 120zM-54 -90q117 196 266 412l264 -96q-223 -254 -328 -366z" />
    <glyph glyph-name="less" unicode="&#x3c;" horiz-adv-x="842" 
d="M754 510l-148 -240l-512 306l16 290q226 138 496 274l154 -220q-160 -70 -344 -208l2 -1q1 -1 3.5 -2.5t4.5 -2.5l18 -12l24 -16q61 -40 120 -76q63 -38 166 -92z" />
    <glyph glyph-name="equal" unicode="=" horiz-adv-x="990" 
d="M104 712q0 102 2 136q0 8 1 15t1 17q0 9 1 16t1 14v18l2 20q17 4 62 4h66q80 4 282 6q97 0 155 1q23 0 69.5 0.5t63.5 1.5q31 1 72 1q24 -59 8 -232q-422 -18 -786 -18zM100 316q0 36 4 128q0 8 1 16t1 18q0 9 1 15t1 13v20l4 22q535 18 770 18l4 -26q1 -14 6 -80
q4 -73 -2 -128q-367 -16 -790 -16z" />
    <glyph glyph-name="greater" unicode="&#x3e;" horiz-adv-x="870" 
d="M262 266l-166 230q107 56 180 100q5 4 31 19q21 13 43 27q5 3 14 8.5t13 7.5q5 3 13.5 8t10.5 6q12 7 13 8l44 30q-97 67 -166 104q-139 66 -148 70l-56 24l180 232q191 -101 242 -128q56 -31 188 -106l66 -40l16 -290z" />
    <glyph glyph-name="question" unicode="?" horiz-adv-x="1040" 
d="M374 1054l-318 -8q0 238 128 354t360 116q211 0 326 -94q114 -94 114 -286q0 -75 -32 -156q-28 -70 -80 -122q-37 -37 -60 -59t-44 -43q-96 -90 -102 -96q-48 -42 -80 -104q-34 -61 -34 -122q0 -11 8 -54q-26 2 -126 2h-86q-22 0 -40 -2h-22q-36 54 -36 114q0 74 60 168
q60 92 128 166q51 51 128 162q58 83 58 150q0 94 -98 94q-58 0 -106 -42q-46 -42 -46 -138zM240 116q0 64 54 104q53 38 130 38q78 0 138 -36q62 -38 62 -102q0 -74 -58 -114q-58 -42 -140 -42q-81 0 -134 44q-52 43 -52 108z" />
    <glyph glyph-name="at" unicode="@" horiz-adv-x="1524" 
d="M1280 232q0 -14 1 -29q0 -7 0.5 -17t1 -25t0.5 -27q1 -31 1 -94q-8 0 -64 -12q-17 -5 -162 -22q-106 -12 -230 -12q-406 0 -580 176t-174 514q0 387 182 590q182 206 528 206q335 0 502 -146q168 -146 168 -460q0 -110 -18 -198q-18 -82 -64 -164t-142 -130
q-84 -46 -238 -58q-87 -10 -158 -2v104q-52 -77 -164 -76q-128 2 -190 104q-62 107 -62 270q0 173 76 282q74 111 208 106q101 -5 158 -56l2 68l242 -16q-20 -125 -36 -598q91 1 144 94q52 91 52 264q0 228 -108 328q-109 100 -374 100q-516 0 -516 -584q0 -246 128 -392
q126 -142 424 -142q110 0 242 14q104 11 168 26zM754 570q32 0 52 26q24 30 30 70q8 77 8 88q2 27 -2 88v26q-16 34 -72 36q-51 2 -80 -50q-26 -50 -26 -120q0 -162 90 -164z" />
    <glyph glyph-name="A" unicode="A" horiz-adv-x="1164" 
d="M1132 64l-336 -38l-44 264q-244 -6 -376 -18l-72 -276l-332 16q91 358 196 696q115 374 180 550l68 190l448 18q71 -406 112 -616q65 -335 112 -570zM608 1048q-108 -330 -152 -512q139 0 240 8q-3 12 -10 49l-16 88q-2 11 -9 49t-11 58q-31 173 -42 260z" />
    <glyph glyph-name="B" unicode="B" horiz-adv-x="1154" 
d="M884 720q218 -71 206 -304q-12 -213 -234 -316q-225 -108 -672 -100h-74l32 1430q126 12 264 6q357 -12 526 -120q168 -108 168 -272q0 -123 -62 -208q-65 -85 -154 -116zM752 994q2 74 -63 111q-64 37 -199 39q-16 -150 -18 -318q135 11 202 54q72 48 78 114zM458 288
q240 11 270 136q6 36 0 60q-12 82 -190 88q-36 4 -78 0v-142v-84v-27q0 -16 -1 -21t-1 -10z" />
    <glyph glyph-name="C" unicode="C" horiz-adv-x="1094" 
d="M578 302q66 0 102 76q32 74 36 240l344 10q4 -302 -118 -464t-372 -162q-134 0 -240 58q-100 54 -156 158t-80 226q-24 124 -24 276q0 204 54 368q53 164 178 270q127 106 294 106q242 0 340 -140q102 -140 92 -422l-326 -12q6 268 -106 268q-161 0 -172 -440
q-1 -190 36 -304q37 -112 118 -112z" />
    <glyph glyph-name="D" unicode="D" horiz-adv-x="1188" 
d="M144 1448q124 14 288 -4q350 -48 526 -230q172 -178 166 -456q-7 -327 -198 -518q-194 -194 -564 -236q-171 -16 -252 -14q34 749 34 1458zM768 738q13 394 -268 406q-37 -531 -44 -840q147 11 226 130q80 119 86 304z" />
    <glyph glyph-name="E" unicode="E" horiz-adv-x="942" 
d="M840 336q0 -134 -8 -264q-408 -34 -718 -46q0 166 -1 245q0 31 -0.5 69.5t-1 64.5t-0.5 43q-1 39 -1 72q0 182 8 478q4 142 18 348l6 114q398 26 742 26q6 -146 -6 -270q-126 -7 -384 -28l-20 -322q229 10 354 10q0 -30 2 -112q4 -111 4 -136l-372 -36q-8 -178 -8 -264
q32 0 228 5q131 3 158 3z" />
    <glyph glyph-name="F" unicode="F" horiz-adv-x="898" 
d="M476 546l-16 -524l-348 -12q-1 922 48 1444q388 12 716 12q2 -114 -14 -280q-175 -5 -356 -20l-16 -338q173 8 286 8q2 -88 -14 -266q-28 -2 -86 -6q-17 0 -104 -10z" />
    <glyph glyph-name="G" unicode="G" horiz-adv-x="1140" 
d="M584 786q3 0 258 14q96 4 178 4l56 2q4 -155 2 -176q-7 -603 -494 -608q-173 0 -294 94q-116 92 -170 252q-50 151 -46 368q5 172 32 294q30 135 90 244q59 109 162 170q98 60 240 60q226 0 346 -138q120 -137 110 -416l-326 -28q-16 256 -130 256q-69 0 -116 -116
q-45 -111 -50 -302q-2 -201 40 -320q42 -118 126 -118q66 0 102 60q40 67 46 156q-64 -4 -78 -4h-32q-2 0 -16 -2h-4l-16 2q-22 122 -16 252z" />
    <glyph glyph-name="H" unicode="H" horiz-adv-x="1204" 
d="M728 858v612l370 10q-10 -339 -16 -610q-2 -32 -3 -105q-1 -49 -1 -111q0 -63 -1 -114q-1 -76 -3 -108q-2 -80 -2 -164l-2 -240h-334l-6 534q-190 -12 -268 -20l-8 -550l-340 -16q-4 359 -4 654q1 521 12 766l366 6l-16 -558z" />
    <glyph glyph-name="I" unicode="I" horiz-adv-x="588" 
d="M484 1452q-5 -137 -9.5 -281t-7 -223t-3.5 -112q-7 -335 -12 -580l-2 -226l-338 -10v224v124v38q0 22 -1 29t-1 13l10 988z" />
    <glyph glyph-name="J" unicode="J" horiz-adv-x="724" 
d="M624 1464v-252q0 -441 -10 -704q-12 -250 -98 -366q-88 -120 -248 -120q-127 0 -242 62v298q34 -34 116 -34q46 0 82 30q31 25 48 100q17 71 18 142q4 121 4 202q0 59 -4 308q0 59 -8 238l-4 82z" />
    <glyph glyph-name="K" unicode="K" horiz-adv-x="1136" 
d="M834 1480l336 -54q-218 -360 -388 -714q120 -237 344 -538l-302 -126q-191 251 -368 560l8 -570l-334 -16q-20 728 -20 1208l2 244l360 -6q-16 -284 -16 -652z" />
    <glyph glyph-name="L" unicode="L" horiz-adv-x="804" 
d="M764 318q13 -132 18 -278q-238 -21 -672 -32q0 169 4 738q2 362 6 530l4 172l360 10q-21 -234 -28 -448q-3 -79 -7 -227q-1 -41 -3 -99.5t-2 -77.5q-2 -82 -2 -86l-4 -200z" />
    <glyph glyph-name="M" unicode="M" horiz-adv-x="1614" 
d="M1184 1000q-40 -153 -96 -410q-74 -333 -92 -396q-111 -20 -308 -32q-106 330 -226 766q-8 -481 2 -922l-338 -16q-12 647 20 1434q201 0 500 -28q101 -503 190 -722q94 336 168 790h248q34 0 66 1t78 1h106q28 -422 12 -1440l-318 -12q0 680 -12 986z" />
    <glyph glyph-name="N" unicode="N" horiz-adv-x="1258" 
d="M1156 1458q6 -658 -30 -1438q-35 0 -64 -1q-16 -1 -60.5 -1.5t-66.5 -0.5q-55 -1 -157 -1q-218 499 -336 898q-14 -507 4 -932l-326 -12q-8 919 22 1450q218 5 408 16l282 -816q8 428 6 840h68q30 0 50 -1t42 -1h158z" />
    <glyph glyph-name="O" unicode="O" horiz-adv-x="1166" 
d="M1104 742q-4 -160 -36 -294q-29 -127 -94 -240q-60 -104 -162 -162q-102 -57 -242 -62q-181 0 -296 94q-112 91 -160 248q-44 143 -40 358q1 211 58 394q49 167 174 280q120 108 298 108q260 0 384 -192q126 -197 116 -532zM754 730q6 194 -22 302q-30 114 -118 114
q-82 4 -130 -126q-52 -137 -58 -338q-4 -182 32 -290q36 -112 118 -112q160 4 178 450z" />
    <glyph glyph-name="P" unicode="P" horiz-adv-x="1104" 
d="M110 24l32 1448q130 8 234 0q373 -17 528 -142q156 -124 156 -334q0 -198 -138 -334q-137 -134 -456 -164q-8 -174 -12 -466zM720 970q6 88 -48 142q-53 53 -176 58l-20 -386q109 1 176 56q63 49 68 130z" />
    <glyph glyph-name="Q" unicode="Q" horiz-adv-x="1170" 
d="M610 1476q506 0 500 -708q-2 -384 -150 -588l126 -164q-163 -110 -274 -152l-126 142q-48 -12 -112 -12q-269 -4 -388 190q-116 188 -110 514q6 353 136 562q132 216 398 216zM620 1160q-82 0 -130 -130q-52 -137 -58 -338q-4 -180 32 -288q36 -114 118 -114
q170 2 180 450q2 420 -142 420z" />
    <glyph glyph-name="R" unicode="R" horiz-adv-x="1168" 
d="M116 -20v280l-6 1208q110 8 254 6q720 -22 720 -458q0 -252 -218 -380q131 -242 356 -546l-324 -102q-194 254 -366 548q-2 -2 -12 -2q-6 -2 -10 -2h-14q-8 0 -12 -4h-10q-8 0 -12 -4v-90v-90q0 -38 -1 -63t-1 -49v-120q0 -43 -1 -69t-1 -49q-210 -14 -342 -14zM728 996
q4 81 -64 124q-62 43 -196 38q0 -256 -2 -338q122 7 194 52q68 44 68 124z" />
    <glyph glyph-name="S" unicode="S" horiz-adv-x="1062" 
d="M664 1002q6 194 -114 194q-106 0 -106 -108q0 -48 44 -98q35 -38 106 -78q90 -48 138 -78q57 -34 138 -98q63 -55 106 -140q44 -93 44 -196q0 -193 -132 -290q-128 -98 -338 -98q-116 0 -194 22q-89 24 -156 74q-68 50 -104 154q-34 100 -24 248h354q-5 -128 24 -172
q30 -52 96 -52q102 0 102 110q0 64 -58 118q-48 48 -142 100q-55 31 -166 102q-79 53 -140 148q-60 92 -60 216q0 192 120 306t340 114q224 0 344 -124q120 -120 114 -364z" />
    <glyph glyph-name="T" unicode="T" horiz-adv-x="890" 
d="M34 1146q-6 216 2 292q467 28 828 28q20 -104 2 -276l-224 -16q-10 -302 -12 -528q0 -145 -1 -219q0 -28 -0.5 -87.5t-1.5 -80.5q-1 -38 -1 -79v-174l-346 -14q-2 134 -2 1060v104z" />
    <glyph glyph-name="U" unicode="U" horiz-adv-x="1186" 
d="M118 1418l360 -14q-28 -324 -28 -650q0 -18 1 -34t1 -40v-52q0 -10 1 -18q1 -4 1.5 -17t0.5 -19q1 -16 1 -46q1 -45 16 -92q5 -20 24 -62q16 -33 42 -44q30 -12 64 -12q72 0 112 40l10 1098l358 10l-26 -1458l-338 -12q-2 10 -2 56v32q0 4 -2 18v4q-94 -78 -240 -78
q-194 0 -290 154q-94 151 -94 512q0 102 8 326q6 186 12 288q6 110 8 110z" />
    <glyph glyph-name="V" unicode="V" horiz-adv-x="1132" 
d="M10 1380l354 6q18 -123 52 -274q16 -74 30 -138q9 -45 20 -90l6 -26q0 -9 28 -122q18 -78 18 -80q6 -30 38 -146l2 -10q0 -2 1 -5q1 -2 1 -3v-2l4 -8l2 -6q2 -6 2 -12v-6l2 -4l2 -2q18 88 52 258.5t48 237.5q3 14 38 190q27 138 42 218l24 142l352 -42
q-141 -631 -154 -684q-118 -505 -134 -568l-52 -202l-454 30q-94 327 -158 606q-78 332 -122 540z" />
    <glyph glyph-name="W" unicode="W" horiz-adv-x="1700" 
d="M1338 1476l368 -20l-364 -1426l-380 28l-118 716l-152 -764l-388 -14q-67 256 -144 632q-61 298 -108 584l-38 224l350 8l160 -996l168 912l358 -26q29 -333 92 -844z" />
    <glyph glyph-name="X" unicode="X" horiz-adv-x="1122" 
d="M816 1504l344 -38l-402 -706q121 -213 176 -302q32 -49 78 -124q18 -32 42 -69q26 -40 26 -41l52 -80l-352 -66q-171 281 -232 394l-258 -444l-312 58l384 670l-350 644l378 16q129 -290 172 -372q171 299 254 460z" />
    <glyph glyph-name="Y" unicode="Y" horiz-adv-x="1094" 
d="M-16 1412l386 24q37 -147 84 -302l17 -51q13 -39 21 -69q8 -31 10 -36q8 -27 10 -31q3 -7 7 -23q1 -5 3 -11t2 -7l26 -74l212 656l362 -42q-144 -405 -410 -1040l16 -390l-354 -32q0 118 -1 185q0 26 -0.5 80t-1.5 74q-1 35 -1 81z" />
    <glyph glyph-name="Z" unicode="Z" horiz-adv-x="976" 
d="M100 -10l-64 270q284 478 472 932q-199 -6 -216 -8q-58 -4 -120 -6q-64 -2 -84 -2q-24 172 -8 286q479 11 770 28l82 -260l-504 -944q116 2 269 6q136 4 187 4q4 -7 4 -18v-20q4 -24 6 -98q4 -76 0 -132q-250 -21 -794 -38z" />
    <glyph glyph-name="bracketleft" unicode="[" horiz-adv-x="738" 
d="M662 194q15 -77 20 -226q-195 -27 -568 -34q0 151 4 798q2 411 6 628l6 214q192 8 276 8l312 -8q0 -141 -22 -228q-108 -15 -268 -22q-8 -143 -14 -480q-2 -46 -8 -466l-2 -182z" />
    <glyph glyph-name="backslash" unicode="\" horiz-adv-x="770" 
d="M740 -14l-204 -44q-66 262 -198 654q-135 392 -218 612l-90 240l188 66q138 -355 246 -682q165 -492 204 -614z" />
    <glyph glyph-name="bracketright" unicode="]" horiz-adv-x="714" 
d="M20 162q269 14 272 14q0 64 2 136q0 24 3 136t3 168v338q0 34 -1 66q-1 48 -3 129q-2 108 -2 165l-272 26q0 15 4 104l8 90l4 32q131 6 296 6q134 0 268 -6q-1 -880 -28 -1634q-220 -8 -542 2q-2 57 -6 136q-2 74 -6 92z" />
    <glyph glyph-name="asciicircum" unicode="^" horiz-adv-x="1162" 
d="M1114 362l-328 -4q-43 100 -88 186q-32 63 -86 156l-34 56q-77 -124 -126 -212q-22 -42 -48 -90q-15 -28 -32 -58l-22 -50l-296 22q84 162 170 310q104 182 144 246l56 84l340 -14z" />
    <glyph glyph-name="underscore" unicode="_" horiz-adv-x="1320" 
d="M30 -546l6 176q953 16 1242 16q2 -2 2 -4l2 -4v-2q3 -4 8 -48q4 -47 -2 -112q-622 -22 -1258 -22z" />
    <glyph glyph-name="grave" unicode="`" horiz-adv-x="848" 
d="M630 1178l-166 -28q-31 28 -112 114q-36 39 -40 43q-8 8 -35 38q-18 20 -21 23l-34 36l206 58q2 -2 22 -29.5t34 -45.5q13 -17 27.5 -36.5t16.5 -22.5q48 -65 76 -112z" />
    <glyph glyph-name="a" unicode="a" horiz-adv-x="1028" 
d="M944 30l-292 -6q-4 53 -4 86q-88 -70 -234 -70q-144 0 -230 80t-86 200q0 130 86 214q85 82 268 82q134 0 206 -34v54q0 162 -90 162q-88 0 -112 -108l-278 20q12 160 112 254q98 92 268 92q206 0 304 -108q100 -112 100 -358q0 -175 -4 -286q-2 -51 -6 -124
q0 -25 -1 -38q0 -5 -0.5 -16t-1.5 -15q-1 -7 -1 -15zM528 244q63 0 92 26q34 30 34 66t-36 60q-28 22 -90 22q-64 0 -90 -26q-28 -28 -28 -64q0 -38 28 -60q26 -24 90 -24z" />
    <glyph glyph-name="b" unicode="b" horiz-adv-x="974" 
d="M378 22q-2 -2 -16 -2q-6 0 -10 -1t-8 -1l-96 -4q-76 -2 -156 0q-4 362 12 822q13 369 34 644l314 -22l-32 -512q76 90 188 90q158 0 242 -138q82 -136 78 -352q-5 -229 -92 -370q-90 -148 -260 -148q-126 0 -194 98q0 -18 -2 -40t-2 -64zM400 440q8 -144 96 -144
q110 0 112 242q11 212 -102 212q-54 0 -84 -68q-26 -70 -24 -138q4 -89 2 -104z" />
    <glyph glyph-name="c" unicode="c" horiz-adv-x="910" 
d="M464 250q55 0 80 46q30 52 36 120l278 -6q-12 -172 -116 -294q-102 -120 -288 -120q-207 0 -298 124q-94 126 -92 354q6 236 108 380q104 146 334 146q168 0 252 -90q88 -94 94 -236q4 -60 -2 -100l-270 -24q4 168 -80 168q-58 0 -92 -64q-33 -60 -38 -178
q-10 -226 94 -226z" />
    <glyph glyph-name="d" unicode="d" horiz-adv-x="968" 
d="M574 -2v114q-74 -86 -214 -80q-154 1 -226 134q-74 131 -74 350q0 216 90 348q91 136 256 134q108 -2 180 -66l8 528l318 -6q-30 -875 -52 -1444zM472 302q48 -4 74 22q31 32 32 86l4 278q-6 13 -32 30q-29 17 -56 18q-66 4 -96 -60q-34 -64 -36 -156q0 -212 110 -218z
" />
    <glyph glyph-name="e" unicode="e" horiz-adv-x="930" 
d="M490 240q74 0 98 116h36q12 0 23 -1t29 -1t31 -1t27 -1q94 -4 144 -6q-11 -136 -116 -244q-106 -108 -294 -108q-209 0 -306 130q-100 132 -98 354q1 229 118 382q120 154 334 154q176 0 268 -104q94 -106 94 -302q0 -76 -12 -160q-32 -2 -202 -12q-2 0 -8 -0.5t-18 -1
t-24 -0.5q-42 -2 -105 -6q-23 -2 -67 -4.5t-64 -3.5q0 -79 32 -132q30 -48 80 -48zM510 766q-46 0 -80 -46q-29 -41 -40 -120q125 0 216 8q0 158 -96 158z" />
    <glyph glyph-name="f" unicode="f" horiz-adv-x="656" 
d="M158 16q-12 316 2 696q-11 0 -21 -1q-6 -1 -21.5 -1.5t-22.5 -0.5q-19 -1 -57 -1q-2 8 -6 36q0 6 -2 16t-2 32q0 19 -4 36q-6 50 -2 118l152 14q13 280 134 414q116 132 282 132q160 0 290 -100l-140 -210q-66 50 -144 14q-100 -48 -106 -232q28 0 74 2q12 0 50 4h16
q10 -28 12 -90q2 -59 -8 -144q-4 0 -64 -6l-96 -8q-22 -400 -12 -704z" />
    <glyph glyph-name="g" unicode="g" horiz-adv-x="1000" 
d="M612 952q-2 26 -2 82q105 0 156 -1q20 0 44.5 -0.5t41 -1t27.5 -0.5q25 -1 47 -1q-22 -601 -28 -968q-6 -228 -112 -340q-104 -110 -278 -110q-123 0 -306 62v290q113 -74 230 -74q82 0 126 44q46 46 50 170q-85 -70 -202 -70q-171 0 -260 122q-86 119 -86 318
q0 235 92 384q92 152 268 152q110 0 192 -58zM612 362q0 310 -2 340q-23 44 -86 44q-70 0 -106 -68q-37 -67 -42 -164q-4 -94 30 -156q32 -68 98 -68q42 0 74 26q27 24 34 46z" />
    <glyph glyph-name="h" unicode="h" horiz-adv-x="982" 
d="M642 1030q266 -5 262 -356l-10 -652l-308 -12v208q0 63 1 104t1 86q0 42 1 70t1 56q5 122 -18 154q-19 34 -70 34q-92 -2 -94 -148l-2 -500q-126 -14 -316 -20q0 135 4 728q4 378 6 574l4 194l334 -28q-12 -235 -24 -590q95 102 228 98z" />
    <glyph glyph-name="i" unicode="i" horiz-adv-x="502" 
d="M274 1076q-84 0 -132 36q-52 40 -52 108q0 72 52 112q48 36 132 36q82 0 134 -36q50 -36 50 -112q0 -72 -50 -108q-52 -36 -134 -36zM432 938q-22 -350 -28 -908q-112 -12 -324 -6l10 924z" />
    <glyph glyph-name="j" unicode="j" horiz-adv-x="506" 
d="M100 92l4 908l328 -6q0 -25 -22 -970q-11 -235 -108 -338q-97 -101 -252 -106q-134 -5 -272 72v266q89 -68 186 -68q66 0 102 54q29 49 34 188zM278 1396q81 0 128 -34q46 -31 46 -104q0 -70 -46 -104q-48 -36 -128 -36q-76 0 -124 36q-50 38 -50 104t50 104
q47 34 124 34z" />
    <glyph glyph-name="k" unicode="k" horiz-adv-x="1054" 
d="M1034 960q-26 -34 -180 -224q-10 -11 -164 -210q82 -108 422 -448l-362 -60l-330 358l-10 -368q-151 0 -310 16q5 333 16 624q8 225 24 560l8 210l342 -32q-34 -320 -58 -748q60 73 140 180q93 127 100 138l32 48z" />
    <glyph glyph-name="l" unicode="l" horiz-adv-x="526" 
d="M90 4q0 364 6 728t12 544l4 178l336 -14q-41 -616 -46 -1436h-312z" />
    <glyph glyph-name="m" unicode="m" horiz-adv-x="1510" 
d="M1144 994q276 0 276 -352q0 -229 -8 -408q-10 -200 -10 -224q-30 2 -150 2q-122 0 -152 2q8 270 8 518q-4 112 -24 148q-24 36 -70 36q-110 0 -112 -132l-12 -532h-152h-92h-42l-22 2q6 335 6 508q0 103 -20 138q-16 30 -70 30q-96 0 -96 -146q-5 -95 -6 -284
q-4 -190 -6 -280q-89 -4 -146 -4q-8 0 -20 1q-5 0 -13 0.5t-20 1t-22 0.5q-25 1 -79 1l4 990l292 18q0 -23 4 -130q113 98 272 98q144 0 204 -106q122 104 278 104z" />
    <glyph glyph-name="n" unicode="n" horiz-adv-x="1002" 
d="M646 978q270 0 268 -372q0 -95 -4 -334q-2 -51 -3.5 -96.5t-3 -77.5t-1.5 -38l-4 -64h-308q6 358 6 530q0 108 -20 140t-70 32q-96 0 -96 -140l-2 -86v-10q-2 -10 -3 -30q-1 -13 -1 -44q-2 -46 -3 -81q-1 -23 -1 -53q-4 -50 -6 -132q-2 -72 -2 -102h-302l10 972l298 -6
v-108q100 100 248 100z" />
    <glyph glyph-name="o" unicode="o" horiz-adv-x="996" 
d="M514 1030q222 0 324 -126t102 -342q0 -157 -42 -272q-44 -116 -146 -194q-104 -78 -266 -78q-216 0 -322 124q-104 122 -104 326q0 250 112 404q114 158 342 158zM624 522q0 224 -110 224q-60 0 -102 -78q-40 -76 -40 -200q0 -76 30 -132q32 -56 84 -56q68 0 104 68
q34 59 34 174z" />
    <glyph glyph-name="p" unicode="p" horiz-adv-x="974" 
d="M620 1010q150 0 226 -130q72 -122 68 -338q-1 -217 -94 -364q-95 -146 -260 -146q-110 0 -170 74q-10 -270 -10 -474q-175 -6 -290 -6q0 268 2 366q0 652 20 1034q21 4 62 4h64q35 0 52 1q7 0 20.5 0.5t18.5 1.5q9 1 17 1q34 0 62 4v-2l-2 -6v-16v-22v-64q106 82 214 82z
M488 310q61 5 90 62q26 54 30 156q0 204 -112 204q-62 0 -88 -38q-8 -122 -8 -306q0 -41 22 -60q22 -22 66 -18z" />
    <glyph glyph-name="q" unicode="q" horiz-adv-x="974" 
d="M64 542q4 490 338 490q47 0 102 -20q51 -19 76 -48v114l306 -8q-6 -797 -34 -1460l-290 -8q8 362 12 544q-58 -82 -198 -82q-160 0 -238 132q-76 135 -74 346zM378 556q0 -208 108 -208q38 0 62 24q26 26 26 52q0 159 -4 308q-30 32 -76 32q-115 -6 -116 -208z" />
    <glyph glyph-name="r" unicode="r" horiz-adv-x="720" 
d="M406 900q28 52 112 70t188 -12l-32 -290q-53 22 -118 22q-68 0 -110 -48q-39 -51 -40 -166q-2 -132 -6 -246q-2 -66 -2 -162v-60q-139 0 -306 10q0 250 6 498q6 241 12 368l6 126l294 -12q0 -34 -1 -50q0 -6 -0.5 -14t-1 -13t-0.5 -8q-1 -7 -1 -13z" />
    <glyph glyph-name="s" unicode="s" horiz-adv-x="914" 
d="M468 1034q403 2 404 -346l-272 -14q-1 118 -104 118q-90 0 -90 -70q0 -40 44 -70q40 -27 114 -52q49 -16 130 -50q62 -26 114 -84q51 -57 52 -134q1 -142 -98 -236q-101 -92 -306 -92q-204 0 -306 96q-100 94 -96 272l286 -6q0 -63 32 -98q32 -36 84 -36q88 0 88 76
q-1 33 -48 62q-41 27 -114 50q-51 16 -130 54q-62 30 -110 96q-48 62 -48 150q0 132 104 222q102 87 270 92z" />
    <glyph glyph-name="t" unicode="t" horiz-adv-x="686" 
d="M196 16v720l-134 -6q-45 134 -46 230q70 22 178 34l-2 312l336 22q-8 -229 -8 -302l144 8q2 -8 2 -36v-20q0 -7 1 -14t1 -18q0 -12 1 -21t1 -19q4 -70 0 -124q-23 -3 -75 -9t-79 -9q-2 -114 -2 -730q-6 -2 -22 -2q-9 0 -15 -1t-11 -1q-10 0 -24 -2t-42 -2q-20 0 -48 -4
q-80 -6 -156 -6z" />
    <glyph glyph-name="u" unicode="u" horiz-adv-x="1004" 
d="M362 78q-282 0 -282 342q0 58 4 286q0 44 8 222l2 76l312 4q-14 -384 -14 -518q0 -86 26 -118q24 -30 76 -30q42 0 72 30q28 29 28 80l6 598h316q0 -326 -2 -470q0 -83 -8 -376l-4 -126l-292 -14q4 48 0 112q-116 -98 -248 -98z" />
    <glyph glyph-name="v" unicode="v" horiz-adv-x="964" 
d="M8 994l322 6q32 -188 60 -308q32 -150 58 -256l24 -90q54 210 84 342q0 2 1.5 8l4 16t4.5 20q10 46 21 98q24 111 29 130l18 94l322 -34q-61 -203 -138 -448q-63 -198 -134 -408l-52 -156l-342 18q-58 150 -138 428q-60 207 -106 392z" />
    <glyph glyph-name="w" unicode="w" horiz-adv-x="1426" 
d="M1110 1018q92 0 154 2h156q-29 -96 -74 -241t-60 -193q-104 -331 -120 -382l-46 -140l-264 -12q-101 257 -156 478l-110 -498l-300 -10q-58 154 -138 420q-53 175 -104 376l-40 142l324 6q16 -90 23 -134l17 -102l8 -48q21 -104 44 -198l14 -62q0 2 1.5 7t4.5 15.5
t5 19.5q12 46 15 58q2 6 5 18.5t5 19.5q8 30 10 36q4 12 6 22q3 14 14 54q5 13 9 31q2 7 7 23q3 9 8 38q2 19 12 56l10 40l5 15q1 3 2.5 9t2.5 8q6 19 6 28l4 14l272 8q2 -19 36 -176q1 -9 36 -142q11 -52 28 -102q3 -11 9 -31l8 -24q3 -9 3 -13q8 -24 8 -26z" />
    <glyph glyph-name="x" unicode="x" horiz-adv-x="1028" 
d="M690 1056l340 -32q-131 -167 -346 -494q72 -104 162 -218q73 -93 144 -176q2 -2 6 -8t7 -9q10 -12 15 -17q3 -3 13 -15q2 -3 6 -7l3 -4l10 -10l-360 -40l-184 262v2q-111 -173 -178 -292l-320 58l316 466l-320 446l382 16q38 -85 122 -218l52 84z" />
    <glyph glyph-name="y" unicode="y" horiz-adv-x="990" 
d="M902 1028q0 -162 -2 -360q-4 -133 -6 -332q0 -76 -1 -112q0 -14 -0.5 -42.5t-1.5 -38.5q-1 -18 -1 -35q-2 -242 -122 -356t-296 -114q-159 0 -286 76v286q48 -37 106 -60q64 -24 124 -24q98 0 140 54q42 49 42 184q-82 -88 -232 -88q-286 0 -286 336v178v86q0 28 1 45
t1 29q0 33 4 122q0 29 1 42q0 5 0.5 15.5t1.5 14.5q1 7 1 12v4v4v18l314 -8q-14 -384 -14 -512q0 -85 22 -114q19 -28 72 -28q104 0 104 138q2 106 2 406v174h312z" />
    <glyph glyph-name="z" unicode="z" horiz-adv-x="854" 
d="M78 0q-11 54 -16 114q-4 67 -2 76v22l348 512l-310 -14q-3 11 -8 52q0 5 -7 40q-5 27 -5 30v3.5t-0.5 5t-1 6.5t-0.5 7q0 5 -1.5 17t-2.5 19l-4 40l-4 34q538 21 686 22l40 -234l-340 -496q258 15 314 16q20 -117 26 -244q-355 -27 -712 -28z" />
    <glyph glyph-name="braceleft" unicode="{" horiz-adv-x="854" 
d="M32 586v122q0 48 2 56l2 14l198 10l14 786q256 12 590 0q0 -122 -24 -228q-159 -19 -270 -26q-8 -139 -14 -476q-6 -282 -6 -466l-2 -182l250 -2q15 -62 26 -226q-195 -27 -564 -34q-4 486 0 652h-202z" />
    <glyph glyph-name="bar" unicode="|" horiz-adv-x="460" 
d="M140 -24v44q-25 234 -24 628q1 415 40 822l194 4q-28 -403 -4 -1506z" />
    <glyph glyph-name="braceright" unicode="}" horiz-adv-x="828" 
d="M20 162q269 14 272 14q18 314 2 1138l-272 26q0 15 4 104l8 90l4 32l14 2q21 0 40 1t62 1q44 2 234 -2q135 -1 212 -12q2 -326 -6 -766l200 -12v-4q2 -2 2 -8q0 -30 2 -56q2 -18 -2 -124h-206q-5 -294 -16 -654q-220 -8 -542 2q-2 57 -6 136q-2 74 -6 92z" />
    <glyph glyph-name="asciitilde" unicode="~" horiz-adv-x="1198" 
d="M94 524q0 10 2 18q0 3 4 18q0 5 4 13t4 13q6 23 22 62q12 30 36 66t50 62q29 29 68 46q42 18 90 18q87 0 200 -52q111 -52 164 -52q44 0 80 30q39 36 46 58l10 30l4 -2q3 0 14 -4l10 -2q10 -2 12 -2q27 -5 94 -32q65 -25 98 -46q-7 -20 -14 -32q-17 -35 -40 -70
q-42 -70 -60 -90q-33 -40 -84 -70q-53 -32 -104 -32q-93 0 -196 50q-113 54 -158 54q-39 0 -70 -28q-26 -20 -36 -48l-6 -28q-45 5 -130 22q-39 6 -88 22z" />
    <glyph glyph-name="uni00A0" unicode="&#xa0;" horiz-adv-x="312" 
 />
    <glyph glyph-name="exclamdown" unicode="&#xa1;" horiz-adv-x="646" 
d="M114 -460q6 144 34 510q11 120 14 154q3 32 7.5 80.5t5.5 65.5q5 56 9 96l14 138l290 12q10 -492 8 -624q0 -51 -4 -232q0 -17 -1 -32t-1 -34q0 -21 -1 -34t-1 -28v-38l-4 -52zM158 864q1 69 64 110q62 42 138 42q77 0 126 -46q48 -47 46 -106q-5 -65 -56 -106
q-56 -44 -136 -44q-76 0 -132 44q-50 42 -50 106z" />
    <glyph glyph-name="cent" unicode="&#xa2;" horiz-adv-x="1076" 
d="M624 938q-196 -54 -196 -292q0 -243 196 -292v584zM1002 304q-117 -105 -260 -118v-190h-118v194q-181 18 -278 138q-108 124 -106 318q0 188 108 314q106 118 276 142v196h118v-190q141 -11 244 -108l-94 -120q-70 66 -150 72v-608q91 11 178 80z" />
    <glyph glyph-name="sterling" unicode="&#xa3;" horiz-adv-x="1068" 
d="M134 1116q0 182 110 274t322 92q221 0 336 -124q116 -125 98 -374l-316 -16q11 224 -112 224q-96 0 -96 -110q0 -55 20 -152q11 -64 32 -126q66 2 328 2q8 -46 12 -96q0 -94 -2 -104q-108 -9 -290 -14q12 -80 6 -150q-10 -106 -70 -154q18 0 52 2q14 2 42 3q19 1 44 1
q35 2 100 6q200 10 212 10q4 -140 -8 -262q-346 -42 -790 -42q-25 56 -56 132q-28 71 -34 98l-10 32q110 30 156 70q44 38 48 96q4 36 -18 150l-198 -2q-3 13 -9 43q-5 24 -9 38q-4 13 -4 23q-6 48 -6 74v20q98 15 168 16q-11 23 -36 140q-22 88 -22 180z" />
    <glyph glyph-name="currency" unicode="&#xa4;" horiz-adv-x="1072" 
d="M168 356l116 124q-66 86 -66 214q0 135 64 218l-114 122l98 100l130 -130q91 64 202 64q108 0 202 -64l130 130l98 -100l-118 -122q66 -84 66 -218q0 -126 -66 -214l118 -124l-98 -98l-132 130q-90 -64 -200 -62q-110 0 -202 62l-130 -130zM742 526q60 66 60 168
q0 100 -60 170q-58 64 -144 64t-144 -64q-60 -70 -60 -170q0 -98 60 -168q58 -64 144 -62q86 -2 144 62z" />
    <glyph glyph-name="yen" unicode="&#xa5;" horiz-adv-x="1072" 
d="M500 360h-300v102h300v118h-300v102h254l-296 588h198l132 -302l52 -124q10 -24 23 -54.5t20 -47.5t11 -26h8l58 128q13 27 27 65q6 16 13.5 35t9.5 24l134 302h194l-298 -588h256v-102h-304v-118h304v-102h-304v-292h-192v292z" />
    <glyph glyph-name="copyright" unicode="&#xa9;" horiz-adv-x="1496" 
d="M754 492q72 0 84 160l208 2q-6 -161 -82 -258q-76 -100 -218 -100q-152 -2 -230 106q-74 104 -74 294q0 192 78 316q79 124 254 124q250 0 258 -254q5 -36 0 -80l-200 -10q8 144 -60 144q-90 0 -96 -228q-4 -101 14 -158q18 -58 64 -58zM768 1480q346 0 510 -194
q162 -188 146 -534q-6 -126 -30 -240q-25 -125 -68 -206q-59 -114 -122 -168q-79 -73 -186 -110q-111 -40 -262 -40q-344 0 -512 176q-170 179 -170 474q0 185 38 326q42 146 120 266q78 119 214 186q127 64 322 64zM1220 746q0 247 -100 392q-104 146 -348 146
q-240 0 -366 -166q-128 -170 -128 -440q0 -220 120 -364t348 -144q134 0 230 42q92 42 146 128q52 83 76 180q22 81 22 226z" />
    <glyph glyph-name="ordfeminine" unicode="&#xaa;" horiz-adv-x="1000" 
d="M886 434h-290v86q-85 -70 -232 -70q-154 0 -244 78t-90 200q0 130 88 214q85 82 278 82q124 0 206 -36v16l2 4v8v10q0 108 -18 144q-18 35 -74 40q-48 4 -72 -24q-23 -28 -34 -88l-284 22q12 158 114 254q98 92 268 92q216 0 310 -100t94 -358q-6 -284 -6 -294
q0 -12 -3 -55q-1 -9 -2.5 -34.5t-2.5 -36.5q0 -27 -1 -40q0 -5 -0.5 -11.5t-1 -10.5t-0.5 -7q-1 -6 -1 -13v-38q0 -9 -1 -15t-1 -11zM464 652q65 0 100 26q34 22 34 68q0 36 -36 56q-37 22 -98 22q-126 0 -126 -88q0 -84 126 -84zM634 168q-4 -68 -54 -102q-55 -38 -128 -38
q-67 0 -116 44q-44 42 -42 104q2 56 54 98q54 42 126 42q67 0 116 -46q48 -44 44 -102z" />
    <glyph glyph-name="guillemotleft" unicode="&#xab;" horiz-adv-x="1244" 
d="M1100 908l74 -226l-258 -160q44 -41 116 -92q56 -40 100 -66l38 -20l-80 -204q-120 66 -196 110q-127 75 -178 106l-68 44l12 282q83 52 192 104q5 2 13.5 6.5t24.5 13t28 14.5q21 12 66 32q10 4 26 13q19 10 22 11zM504 914l78 -224l-238 -158q38 -36 114 -92
q43 -36 100 -68l38 -20l-80 -204q-96 51 -194 110q-127 75 -178 106l-70 44l12 282z" />
    <glyph glyph-name="uni00AD" unicode="&#xad;" horiz-adv-x="1504" 
d="M1390 1002l-24 -352q-205 16 -872 16q-236 0 -494 -30q22 294 18 358l1310 8h62z" />
    <glyph glyph-name="registered" unicode="&#xae;" horiz-adv-x="1496" 
d="M768 1480q346 0 510 -194q162 -188 146 -534q-6 -126 -30 -240q-25 -125 -68 -206q-59 -114 -122 -168q-79 -73 -186 -110q-111 -40 -262 -40q-344 0 -512 176q-170 179 -170 474q0 185 38 326q42 146 120 266q78 119 214 186q127 64 322 64zM1220 746q0 247 -100 392
q-104 146 -348 146q-240 0 -366 -166q-128 -170 -128 -440q0 -220 120 -364t348 -144q134 0 230 42q92 42 146 128q52 83 76 180q22 81 22 226zM502 316v150l-2 658q30 2 150 2q406 -7 406 -250q0 -132 -120 -202q78 -143 180 -268l-192 -60q-83 106 -188 270h-16
q-3 0 -14 -4v-50v-50q0 -19 -1 -32t-1 -28v-126q-167 -10 -202 -10zM852 858q0 82 -146 82q0 -128 -2 -170q148 10 148 88z" />
    <glyph glyph-name="degree" unicode="&#xb0;" horiz-adv-x="716" 
d="M642 1310q0 -115 -92 -192q-86 -74 -208 -74q-118 0 -194 76q-72 76 -72 204q0 112 84 184q86 74 200 74q123 0 202 -76q80 -74 80 -196zM432 1310q0 38 -20 64q-13 22 -54 22q-33 0 -52 -22q-24 -26 -24 -58q0 -31 22 -56q20 -24 52 -24q31 0 56 22q20 18 20 52z" />
    <glyph glyph-name="uni00B2" unicode="&#xb2;" horiz-adv-x="780" 
d="M178 1012q342 300 342 414q0 68 -34 102q-36 38 -96 38q-78 0 -152 -102l-86 78q107 146 260 146q115 0 182 -64q68 -62 68 -178q0 -137 -248 -394h284v-124h-520v84z" />
    <glyph glyph-name="ordmasculine" unicode="&#xba;" horiz-adv-x="1028" 
d="M672 156q-5 -67 -56 -102q-55 -38 -126 -38q-69 0 -118 44q-44 41 -40 104q1 58 56 100q50 38 122 38q67 0 116 -44q48 -46 46 -102zM514 1440q226 0 324 -126q102 -126 102 -342q0 -238 -110 -390t-344 -152q-218 0 -322 122t-104 330q0 248 112 402q114 156 342 156z
M624 934q0 224 -110 224q-60 0 -102 -78q-40 -76 -40 -198q0 -74 30 -132q32 -56 84 -56q66 0 102 68q36 70 36 172z" />
    <glyph glyph-name="guillemotright" unicode="&#xbb;" horiz-adv-x="1234" 
d="M152 148l-78 222l258 160q-58 52 -114 92q-42 30 -102 66l-34 20l82 206q74 -41 194 -112q23 -13 83.5 -49.5t94.5 -56.5l68 -42l-14 -284q-42 -28 -194 -102q-46 -23 -92.5 -46t-65 -32t-20.5 -10zM734 164l-76 224l236 156q-51 45 -118 94q-56 40 -100 66l-40 24
l86 204q27 -13 196 -112q93 -55 178 -108l66 -40l-12 -284z" />
    <glyph glyph-name="questiondown" unicode="&#xbf;" horiz-adv-x="1042" 
d="M666 -80l320 8q0 -236 -130 -354q-128 -116 -360 -116q-212 0 -326 96q-112 91 -112 284q0 98 42 180q42 83 106 144q18 18 128 112q60 48 108 124q46 73 46 142q0 12 -8 52q26 -2 126 -2h40q15 0 24 1t20 1h64q36 -54 36 -110q0 -79 -58 -168q-59 -97 -130 -168
q-68 -74 -128 -160q-58 -85 -58 -152q0 -94 98 -94q58 0 106 42q46 42 46 138zM800 858q0 -60 -54 -102q-55 -40 -130 -40q-73 0 -138 38q-62 38 -62 98q0 74 60 116q61 44 138 44q79 0 134 -46q52 -43 52 -108z" />
    <glyph glyph-name="Agrave" unicode="&#xc0;" horiz-adv-x="1166" 
d="M1130 64l-336 -38l-44 264q-244 -6 -376 -18l-72 -276l-332 16q91 358 196 696q93 302 178 550l70 190l448 18q71 -406 112 -616q65 -335 112 -570zM606 1048q-108 -330 -152 -512q139 0 240 8q-3 12 -10 49l-16 88q-2 11 -9 49t-11 58q-31 173 -42 260zM758 1600
l-166 -28q-72 68 -114 114l-11 11l-19 19l-20 20q-7 8 -27 28q-18 18 -21 22l-34 40l206 58q74 -97 102 -136l8 -12q9 -12 11 -14t11 -14q1 -1 26 -40q13 -21 20 -28z" />
    <glyph glyph-name="Aacute" unicode="&#xc1;" horiz-adv-x="1166" 
d="M1130 64l-336 -38l-44 264q-244 -6 -376 -18l-72 -276l-332 16q91 358 196 696q93 302 178 550l70 190l448 18q71 -406 112 -616q65 -335 112 -570zM606 1048q-108 -330 -152 -512q139 0 240 8q-3 12 -10 49l-16 88q-2 11 -9 49t-11 58q-31 173 -42 260zM508 1602
q95 145 202 284l210 -56q-126 -148 -244 -256q-98 12 -168 28z" />
    <glyph glyph-name="Acircumflex" unicode="&#xc2;" horiz-adv-x="1166" 
d="M1130 64l-336 -38l-44 264q-244 -6 -376 -18l-72 -276l-332 16q91 358 196 696q93 302 178 550l70 190l448 18q71 -406 112 -616q65 -335 112 -570zM606 1048q-108 -330 -152 -512q139 0 240 8q-3 12 -10 49l-16 88q-2 11 -9 49t-11 58q-31 173 -42 260zM320 1594
q123 142 252 256h146q70 -62 122 -114q78 -78 100 -104l36 -40l-196 -28q-72 63 -136 134q-39 -43 -130 -134q-87 7 -194 30z" />
    <glyph glyph-name="Atilde" unicode="&#xc3;" horiz-adv-x="1166" 
d="M1130 64l-336 -38l-44 264q-244 -6 -376 -18l-72 -276l-332 16q91 358 196 696q93 302 178 550l70 190l448 18q71 -406 112 -616q65 -335 112 -570zM606 1048q-108 -330 -152 -512q139 0 240 8q-3 12 -10 49l-16 88q-2 11 -9 49t-11 58q-31 173 -42 260zM252 1620
q2 2 2 12q2 6 2 10q4 15 18 52q13 32 36 68q12 22 58 52q36 24 88 24q64 0 146 -36q85 -36 122 -36t60 20q28 23 34 42l8 22l30 -6l8 -4q9 -2 25 -9q11 -5 37 -13q23 -7 70 -30l-10 -20q-10 -21 -30 -52q-44 -62 -46 -64q-13 -16 -62 -48q-35 -22 -74 -22q-62 0 -144 36
t-116 36t-54 -18q-20 -16 -24 -36l-6 -18q-20 1 -94 16q-35 6 -64 14z" />
    <glyph glyph-name="Adieresis" unicode="&#xc4;" horiz-adv-x="1166" 
d="M1130 64l-336 -38l-44 264q-244 -6 -376 -18l-72 -276l-332 16q91 358 196 696q93 302 178 550l70 190l448 18q71 -406 112 -616q65 -335 112 -570zM606 1048q-108 -330 -152 -512q139 0 240 8q-3 12 -10 49l-16 88q-2 11 -9 49t-11 58q-31 173 -42 260zM586 1714
q-6 -50 -50 -88q-41 -32 -100 -32q-60 0 -98 36q-38 35 -34 92q4 50 42 84q42 36 98 36q61 0 104 -40q44 -41 38 -88zM978 1688q-5 -57 -44 -86q-42 -30 -108 -30q-58 0 -96 38q-38 39 -34 88q2 50 48 86q41 32 104 32q53 0 94 -38q40 -34 36 -90z" />
    <glyph glyph-name="Aring" unicode="&#xc5;" horiz-adv-x="1166" 
d="M1130 64l-336 -38l-44 264q-244 -6 -376 -18l-72 -276l-332 16q91 358 196 696q93 302 178 550l70 190l448 18q71 -406 112 -616q65 -335 112 -570zM606 1048q-108 -330 -152 -512q139 0 240 8q-3 12 -10 49l-16 88q-2 11 -9 49t-11 58q-31 173 -42 260zM868 1756
q0 -80 -72 -128t-168 -48t-152 48q-58 48 -58 136q0 72 68 120q73 50 160 50q97 0 158 -52q64 -54 64 -126zM720 1756q4 28 -18 42q-25 16 -54 16q-25 0 -50 -16q-21 -17 -22 -38q-4 -23 16 -40q24 -18 52 -18q70 0 76 54z" />
    <glyph glyph-name="AE" unicode="&#xc6;" horiz-adv-x="1638" 
d="M1512 328q0 -92 -6 -256q-244 -24 -724 -60q0 19 1 40q0 9 0.5 23t1 35t0.5 38q1 43 1 134q-219 -6 -376 -16l-136 -284l-330 16q140 309 346 712q117 230 300 560l108 192l862 24q2 -146 -6 -278q-208 -5 -388 -20l-18 -322q229 10 356 10q0 -71 1 -112q0 -16 0.5 -49.5
t1.5 -45.5q1 -22 1 -51l-372 -34q-6 -104 -6 -264q3 0 42.5 1t136.5 3t203 4zM548 532q137 0 238 8q0 335 8 490q-114 -204 -246 -498z" />
    <glyph glyph-name="Ccedilla" unicode="&#xc7;" horiz-adv-x="1094" 
d="M258 -218q125 97 192 244q-380 86 -380 706q0 152 30 282q29 127 92 234q61 102 166 164q104 60 238 60q236 0 334 -140q98 -138 88 -422l-320 -10q10 268 -102 268q-160 0 -168 -438q-4 -184 36 -298q38 -110 114 -110q70 0 100 74q29 69 34 232l338 8q6 -538 -356 -612
q-104 -240 -298 -326q-72 30 -138 84z" />
    <glyph glyph-name="Egrave" unicode="&#xc8;" horiz-adv-x="964" 
d="M836 336q0 -83 -10 -264q-417 -34 -716 -46q0 166 -1 245q0 31 -0.5 69.5t-1 64.5t-0.5 43q-1 39 -1 72q0 182 8 478q6 248 16 348l8 114q398 26 742 26q6 -146 -6 -270q-126 -7 -384 -28l-22 -322q229 10 356 10q4 -213 4 -248l-370 -36q-8 -178 -8 -264q32 0 228 5
q131 3 158 3zM628 1612l-166 -26q-81 77 -114 112q-11 11 -50 54q-30 32 -46 48l-34 40l208 56q66 -84 100 -134q51 -76 78 -110z" />
    <glyph glyph-name="Eacute" unicode="&#xc9;" horiz-adv-x="964" 
d="M836 336q0 -83 -10 -264q-417 -34 -716 -46q0 166 -1 245q0 31 -0.5 69.5t-1 64.5t-0.5 43q-1 39 -1 72q0 182 8 478q6 248 16 348l8 114q398 26 742 26q6 -146 -6 -270q-126 -7 -384 -28l-22 -322q229 10 356 10q4 -213 4 -248l-370 -36q-8 -178 -8 -264q32 0 228 5
q131 3 158 3zM360 1612q82 125 204 284l208 -54q-126 -148 -244 -256q-134 18 -168 26z" />
    <glyph glyph-name="Ecircumflex" unicode="&#xca;" horiz-adv-x="990" 
d="M836 336q0 -83 -10 -264q-417 -34 -716 -46q0 166 -1 245q0 31 -0.5 69.5t-1 64.5t-0.5 43q-1 39 -1 72q0 182 8 478q6 248 16 348l8 114q398 26 742 26q6 -146 -6 -270q-126 -7 -384 -28l-22 -322q229 10 356 10q4 -213 4 -248l-370 -36q-8 -178 -8 -264q32 0 228 5
q131 3 158 3zM168 1622q123 142 252 254h150q70 -62 118 -110q52 -52 100 -106l38 -40l-198 -28q-74 66 -134 134q-30 -32 -132 -134q-68 6 -194 30z" />
    <glyph glyph-name="Edieresis" unicode="&#xcb;" horiz-adv-x="956" 
d="M836 336q0 -83 -10 -264q-417 -34 -716 -46q0 166 -1 245q0 31 -0.5 69.5t-1 64.5t-0.5 43q-1 39 -1 72q0 182 8 478q6 248 16 348l8 114q398 26 742 26q6 -146 -6 -270q-126 -7 -384 -28l-22 -322q229 10 356 10q4 -213 4 -248l-370 -36q-8 -178 -8 -264q32 0 228 5
q131 3 158 3zM448 1722q-6 -57 -46 -88q-41 -32 -102 -32q-60 0 -98 36q-38 35 -34 92q1 49 40 84q42 36 102 36q61 0 104 -40q40 -37 34 -88zM844 1696q-5 -56 -48 -86q-40 -28 -106 -28q-60 0 -96 36t-34 90q5 50 46 84q41 32 104 32q55 0 96 -38q42 -36 38 -90z" />
    <glyph glyph-name="Igrave" unicode="&#xcc;" horiz-adv-x="598" 
d="M494 1452q-9 -306 -18 -616q0 -18 -5 -235q-6 -271 -7 -345l-4 -226l-338 -10v224v124q0 26 -1 38t-1 29v13l14 988zM460 1588l-166 -28q-31 28 -112 114q-23 23 -45 46t-53 54l-32 40l206 56q51 -65 100 -136q12 -14 36 -49q26 -37 42 -57z" />
    <glyph glyph-name="Iacute" unicode="&#xcd;" horiz-adv-x="598" 
d="M492 1452q-9 -306 -18 -616q-14 -546 -14 -580l-2 -226l-338 -10v224v124v38q0 22 -1 29t-1 13l12 988zM164 1562q117 177 202 284l210 -56q-122 -140 -244 -254q-134 18 -168 26z" />
    <glyph glyph-name="Icircumflex" unicode="&#xce;" horiz-adv-x="594" 
d="M-28 1602q123 142 252 256h146q70 -62 122 -114q78 -78 100 -104l36 -40l-196 -28q-90 82 -138 136q-69 -77 -128 -136q-87 7 -194 30zM496 1452q-9 -306 -18 -616q-14 -546 -14 -580l-2 -226l-338 -10v224v124v38q0 22 -1 29t-1 13l14 988z" />
    <glyph glyph-name="Idieresis" unicode="&#xcf;" horiz-adv-x="606" 
d="M244 1702q-6 -48 -50 -86q-41 -32 -100 -32q-56 0 -98 36q-34 31 -32 92q1 49 40 84q40 34 98 34q63 0 104 -38q44 -44 38 -90zM636 1678q-5 -57 -44 -86q-42 -30 -106 -30q-60 0 -98 38q-36 36 -34 88q2 50 48 86q41 32 104 32q53 0 94 -38q40 -34 36 -90zM496 1452
q-9 -306 -18 -616q-14 -546 -14 -580l-2 -226l-338 -10v224v124v38q0 22 -1 29t-1 13l14 988z" />
    <glyph glyph-name="Eth" unicode="&#xd0;" horiz-adv-x="1226" 
d="M30 614q-4 62 0 114q0 7 1 13t1 15t1 16t1 12v14l4 22q18 2 68 2q24 0 40 1t30 1q4 487 4 624q82 10 222 6q385 -18 576 -206q190 -186 184 -490q-8 -356 -218 -556q-204 -195 -610 -212q-116 -2 -184 0q0 12 3 78q4 94 8 228q3 108 11 322h-74q-43 0 -68 -4zM804 738
q8 399 -268 406l-18 -312h142q2 -4 6 -24q2 -12 8 -62q4 -52 -6 -112q-18 -2 -78 -2q-31 0 -49 -1t-35 -1l-4 -118q-1 -112 -6 -208q143 11 222 130q80 119 86 304z" />
    <glyph glyph-name="Ntilde" unicode="&#xd1;" horiz-adv-x="1258" 
d="M258 1604l6 24q1 14 16 52q12 30 36 66q13 24 58 54q31 22 88 22q58 0 146 -36q75 -34 124 -34q35 0 58 20q28 23 34 42l10 22h2l4 -4h4q1 0 3 -1t3 -1q5 0 12 -4q4 -1 70 -22q28 -8 70 -30l-6 -12l-4 -8q-10 -21 -30 -52q-43 -62 -46 -64q-18 -22 -62 -48
q-41 -24 -74 -24q-57 0 -144 38q-82 36 -116 36q-32 0 -54 -18q-20 -14 -26 -36l-4 -20q-8 0 -94 18q-11 1 -29 5q-13 3 -24 6q-10 3 -13 3zM1150 1458q6 -703 -28 -1438q-35 0 -64 -1q-16 -1 -60.5 -1.5t-66.5 -0.5q-55 -1 -157 -1q-218 499 -336 898q-14 -507 4 -932
l-326 -12q-8 919 22 1450q218 5 408 16l280 -816q10 530 8 840h68q30 0 50 -1t42 -1h156z" />
    <glyph glyph-name="Ograve" unicode="&#xd2;" horiz-adv-x="1166" 
d="M1102 742q-5 -156 -38 -294q-30 -131 -92 -240q-60 -103 -164 -162q-109 -61 -242 -62q-179 0 -294 94q-112 91 -160 248q-44 143 -40 358q1 211 58 394q49 167 174 280q120 108 298 108q262 0 384 -192q126 -197 116 -532zM752 730q6 194 -22 302q-30 114 -118 114
q-86 4 -132 -126q-50 -135 -56 -338q-4 -182 32 -290q36 -112 118 -112q160 4 178 450zM714 1600l-166 -28q-72 68 -114 114q-22 22 -94 100l-36 40l208 58q51 -65 100 -136l8 -12q9 -12 11 -14t11 -14q21 -28 28 -40q17 -24 18 -28z" />
    <glyph glyph-name="Oacute" unicode="&#xd3;" horiz-adv-x="1166" 
d="M1102 742q-5 -156 -38 -294q-30 -131 -92 -240q-60 -103 -164 -162q-109 -61 -242 -62q-179 0 -294 94q-112 91 -160 248q-44 143 -40 358q1 211 58 394q49 167 174 280q120 108 298 108q262 0 384 -192q126 -197 116 -532zM752 730q6 194 -22 302q-30 114 -118 114
q-86 4 -132 -126q-50 -135 -56 -338q-4 -182 32 -290q36 -112 118 -112q160 4 178 450zM474 1602q87 135 204 284l206 -56q-129 -151 -242 -256q-98 12 -168 28z" />
    <glyph glyph-name="Ocircumflex" unicode="&#xd4;" horiz-adv-x="1166" 
d="M1102 742q-5 -156 -38 -294q-30 -131 -92 -240q-60 -103 -164 -162q-109 -61 -242 -62q-179 0 -294 94q-112 91 -160 248q-44 143 -40 358q1 211 58 394q49 167 174 280q120 108 298 108q262 0 384 -192q126 -197 116 -532zM752 730q6 194 -22 302q-30 114 -118 114
q-86 4 -132 -126q-50 -135 -56 -338q-4 -182 32 -290q36 -112 118 -112q160 4 178 450zM304 1608q123 142 252 256h148q80 -70 120 -110l38 -38l40 -40q18 -18 26 -28l34 -42l-196 -26q-100 93 -138 134q-48 -54 -128 -134q-117 11 -196 28z" />
    <glyph glyph-name="Otilde" unicode="&#xd5;" horiz-adv-x="1166" 
d="M202 1612l6 24q1 7 20 52q24 58 32 68q13 21 62 52q34 22 88 22q71 0 146 -34q89 -36 122 -36q35 0 58 20q27 24 34 42l8 22l28 -6l8 -2q2 -1 6 -2.5t9.5 -4t9.5 -4.5q11 -5 37 -13q36 -12 72 -30l-10 -20q-10 -23 -30 -52q-32 -44 -48 -64q-28 -30 -60 -48
q-38 -24 -76 -24q-55 0 -142 38q-82 36 -118 36q-27 0 -50 -18q-21 -19 -28 -36l-6 -20q-3 0 -8.5 1.5t-15 3t-17.5 3.5q-44 8 -51 10q-11 1 -28 5q-15 3 -23 6q-9 3 -13 3zM1102 742q-5 -156 -38 -294q-30 -131 -92 -240q-60 -103 -164 -162q-109 -61 -242 -62
q-179 0 -294 94q-112 91 -160 248q-44 143 -40 358q1 211 58 394q49 167 174 280q120 108 298 108q262 0 384 -192q126 -197 116 -532zM752 730q6 194 -22 302q-30 114 -118 114q-86 4 -132 -126q-50 -135 -56 -338q-4 -182 32 -290q36 -112 118 -112q160 4 178 450z" />
    <glyph glyph-name="Odieresis" unicode="&#xd6;" horiz-adv-x="1166" 
d="M1102 742q-5 -156 -38 -294q-30 -131 -92 -240q-60 -103 -164 -162q-109 -61 -242 -62q-179 0 -294 94q-112 91 -160 248q-44 143 -40 358q1 211 58 394q49 167 174 280q120 108 298 108q262 0 384 -192q126 -197 116 -532zM752 730q6 194 -22 302q-30 114 -118 114
q-86 4 -132 -126q-50 -135 -56 -338q-4 -182 32 -290q36 -112 118 -112q160 4 178 450zM538 1706q-6 -57 -46 -88q-41 -32 -102 -32q-58 0 -98 36q-38 35 -34 92q2 48 42 84q40 34 100 34q63 0 104 -38q40 -37 34 -88zM934 1680q-5 -56 -48 -86q-42 -30 -106 -30
q-58 0 -96 38q-36 37 -34 88q4 52 46 86q41 32 104 32q57 0 98 -38q40 -34 36 -90z" />
    <glyph glyph-name="multiply" unicode="&#xd7;" horiz-adv-x="992" 
d="M98 788q48 66 108 126q39 39 78 64l28 16l182 -142l72 62v-2l102 92l234 -184l-182 -156l158 -136q-105 -115 -208 -196l-172 136l-182 -156q-100 66 -196 188q64 69 154 152z" />
    <glyph glyph-name="Oslash" unicode="&#xd8;" horiz-adv-x="1166" 
d="M1110 760q-11 -343 -140 -550q-126 -204 -394 -208q-74 -2 -154 16l-94 -122q-8 1 -78 22q-42 12 -84 30l-32 16l88 184q-150 181 -142 552q1 211 58 394q49 167 174 280q120 108 298 108q84 0 144 -18l98 128l196 -68q-50 -123 -86 -188q158 -186 148 -576zM760 750
q6 192 -22 300q-25 114 -118 114q-82 4 -130 -128q-52 -137 -58 -338q-4 -182 32 -290q36 -112 118 -112q160 4 178 454z" />
    <glyph glyph-name="Ugrave" unicode="&#xd9;" horiz-adv-x="1186" 
d="M114 1418l360 -14q-28 -324 -28 -650q0 -18 1 -34t1 -40v-52q0 -10 1 -18q1 -4 1.5 -17t0.5 -19q1 -16 1 -46q5 -61 14 -92q10 -27 26 -62q16 -33 42 -44q25 -12 64 -12q72 0 112 40l10 1098l358 10l-26 -1458l-338 -12q-2 10 -2 56v32q0 4 -2 18v4q-94 -78 -242 -78
q-192 0 -288 154q-94 151 -94 512q0 102 8 326q6 186 12 288q6 110 8 110zM748 1558l-166 -26q-24 22 -72 68q-10 10 -21 20t-16 15l-7 7q-48 52 -98 102l-32 40l206 58l42 -56q32 -42 38 -50q20 -26 22 -30q61 -90 76 -108z" />
    <glyph glyph-name="Uacute" unicode="&#xda;" horiz-adv-x="1186" 
d="M114 1418l360 -14q-28 -324 -28 -650q0 -18 1 -34t1 -40v-52q0 -10 1 -18q1 -4 1.5 -17t0.5 -19q1 -16 1 -46q5 -61 14 -92q10 -27 26 -62q16 -33 42 -44q25 -12 64 -12q72 0 112 40l10 1098l358 10l-26 -1458l-338 -12q-2 10 -2 56v32q0 4 -2 18v4q-94 -78 -242 -78
q-192 0 -288 154q-94 151 -94 512q0 102 8 326q6 186 12 288q6 110 8 110zM430 1558q118 176 202 284l210 -56q-122 -140 -244 -254q-134 18 -168 26z" />
    <glyph glyph-name="Ucircumflex" unicode="&#xdb;" horiz-adv-x="1186" 
d="M114 1418l360 -14q-28 -324 -28 -650q0 -18 1 -34t1 -40v-52q0 -10 1 -18q1 -4 1.5 -17t0.5 -19q1 -16 1 -46q5 -61 14 -92q10 -27 26 -62q16 -33 42 -44q25 -12 64 -12q72 0 112 40l10 1098l358 10l-26 -1458l-338 -12q-2 10 -2 56v32q0 4 -2 18v4q-94 -78 -242 -78
q-192 0 -288 154q-94 151 -94 512q0 102 8 326q6 186 12 288q6 110 8 110zM260 1582q123 142 252 256h150q32 -28 118 -114q78 -78 100 -104l40 -40l-200 -28q-80 74 -134 134q-14 -16 -132 -134q-87 7 -194 30z" />
    <glyph glyph-name="Udieresis" unicode="&#xdc;" horiz-adv-x="1186" 
d="M114 1418l360 -14q-28 -324 -28 -650q0 -18 1 -34t1 -40v-52q0 -10 1 -18q1 -4 1.5 -17t0.5 -19q1 -16 1 -46q5 -61 14 -92q10 -27 26 -62q16 -33 42 -44q25 -12 64 -12q72 0 112 40l10 1098l358 10l-26 -1458l-338 -12q-2 10 -2 56v32q0 4 -2 18v4q-94 -78 -242 -78
q-192 0 -288 154q-94 151 -94 512q0 102 8 326q6 186 12 288q6 110 8 110zM534 1706q-6 -57 -46 -88q-41 -32 -102 -32q-58 0 -98 36q-38 35 -34 92q1 49 40 84q40 34 102 34q63 0 104 -38q40 -37 34 -88zM930 1680q-5 -56 -48 -86q-42 -30 -106 -30q-58 0 -96 38
q-36 37 -34 88q4 52 46 86q41 32 104 32q55 0 96 -38q42 -36 38 -90z" />
    <glyph glyph-name="Yacute" unicode="&#xdd;" horiz-adv-x="1094" 
d="M-18 1412l386 24q37 -147 84 -302q30 -102 72 -228l24 -74l212 656l362 -42q-144 -405 -410 -1040l16 -390l-354 -32q0 118 -1 185q0 26 -0.5 80t-1.5 74q-1 35 -1 81zM410 1564q117 177 202 284l208 -54q-120 -144 -242 -256q-134 18 -168 26z" />
    <glyph glyph-name="Thorn" unicode="&#xde;" horiz-adv-x="1100" 
d="M484 1452l-12 -222q308 -30 444 -154q140 -126 140 -318q0 -194 -150 -330q-146 -134 -448 -170q-8 -91 -8 -238l-332 -8v1424zM718 736q4 82 -60 128q-73 52 -194 58q0 -108 -2 -180q-4 -125 -6 -190q117 5 190 54q68 47 72 130z" />
    <glyph glyph-name="germandbls" unicode="&#xdf;" horiz-adv-x="1468" 
d="M500 958q-26 -378 -26 -926l-302 -16q-6 166 -6 356q0 212 6 340q-6 0 -15 -1q-4 0 -10 -0.5t-15.5 -1t-16.5 -0.5q-19 -1 -61 -1q-2 8 -6 36q-1 12 -5 38q-1 7 -3 17t-2 13q-2 14 -2 16q-4 64 0 118q68 2 152 12q36 526 560 526q200 0 328 -86t128 -232q0 -74 -38 -148
q-35 -67 -82 -108q-54 -48 -84 -84q-38 -50 -38 -84q0 -36 50 -68q56 -34 116 -56q85 -28 142 -56q58 -25 118 -96q51 -57 56 -144q1 -142 -98 -230q-100 -83 -306 -88q-412 -6 -442 338l282 24q14 -116 154 -116q86 0 86 72q0 30 -48 60q-42 23 -118 48q-75 23 -136 52
q-68 30 -118 92q-48 60 -48 144q0 68 48 140q42 62 96 122q52 58 58 102q10 66 -26 104q-34 40 -114 40q-198 0 -214 -268z" />
    <glyph glyph-name="agrave" unicode="&#xe0;" horiz-adv-x="968" 
d="M862 30l-292 -6q-4 53 -4 86q-88 -70 -234 -70q-144 0 -230 80t-86 200q0 130 86 214q85 82 268 82q134 0 206 -34v54q0 162 -90 162q-88 0 -112 -108l-278 20q12 160 112 254q98 92 268 92q204 0 304 -108q100 -112 100 -358q0 -175 -4 -286q-2 -51 -6 -124
q0 -25 -1 -38q0 -5 -0.5 -16t-1.5 -15q-1 -7 -1 -15zM446 244q63 0 92 26q34 30 34 66t-36 60q-28 22 -90 22q-64 0 -90 -26q-28 -28 -28 -64q0 -38 28 -60q28 -24 90 -24zM668 1170l-166 -28q-72 70 -114 114q-2 2 -18 18.5t-31 31.5q-37 38 -51 54l-32 36l206 58
q74 -97 102 -136q5 -6 20 -28t24 -32q7 -9 21 -31q11 -16 13 -19z" />
    <glyph glyph-name="aacute" unicode="&#xe1;" horiz-adv-x="968" 
d="M862 30l-292 -6q-4 53 -4 86q-88 -70 -234 -70q-144 0 -230 80t-86 200q0 130 86 214q85 82 268 82q134 0 206 -34v54q0 162 -90 162q-88 0 -112 -108l-278 20q12 160 112 254q98 92 268 92q204 0 304 -108q100 -112 100 -358q0 -175 -4 -286q-2 -51 -6 -124
q0 -25 -1 -38q0 -5 -0.5 -16t-1.5 -15q-1 -7 -1 -15zM446 244q63 0 92 26q34 30 34 66t-36 60q-28 22 -90 22q-64 0 -90 -26q-28 -28 -28 -64q0 -38 28 -60q28 -24 90 -24zM360 1178q82 125 204 284l208 -56q-126 -148 -244 -256q-98 12 -168 28z" />
    <glyph glyph-name="acircumflex" unicode="&#xe2;" horiz-adv-x="968" 
d="M862 30l-292 -6q-4 53 -4 86q-88 -70 -234 -70q-144 0 -230 80t-86 200q0 130 86 214q85 82 268 82q134 0 206 -34v54q0 162 -90 162q-88 0 -112 -108l-278 20q12 160 112 254q98 92 268 92q204 0 304 -108q100 -112 100 -358q0 -175 -4 -286q-2 -51 -6 -124
q0 -25 -1 -38q0 -5 -0.5 -16t-1.5 -15q-1 -7 -1 -15zM446 244q63 0 92 26q34 30 34 66t-36 60q-28 22 -90 22q-64 0 -90 -26q-28 -28 -28 -64q0 -38 28 -60q28 -24 90 -24zM178 1174q123 142 252 256h150q49 -43 118 -112q80 -80 102 -106l38 -40l-200 -28q-71 61 -134 136
q-39 -43 -132 -136q-87 7 -194 30z" />
    <glyph glyph-name="atilde" unicode="&#xe3;" horiz-adv-x="968" 
d="M862 30l-292 -6q-4 53 -4 86q-88 -70 -234 -70q-144 0 -230 80t-86 200q0 130 86 214q85 82 268 82q134 0 206 -34v54q0 162 -90 162q-88 0 -112 -108l-278 20q12 160 112 254q98 92 268 92q204 0 304 -108q100 -112 100 -358q0 -175 -4 -286q-2 -51 -6 -124
q0 -25 -1 -38q0 -5 -0.5 -16t-1.5 -15q-1 -7 -1 -15zM446 244q63 0 92 26q34 30 34 66t-36 60q-28 22 -90 22q-64 0 -90 -26q-28 -28 -28 -64q0 -38 28 -60q28 -24 90 -24zM134 1192q2 2 2 12q2 6 2 10q4 15 18 52q18 45 34 68q13 21 60 52q36 24 88 24q64 0 146 -36
q88 -36 122 -36q37 0 60 22q24 20 32 40l8 22q2 0 30 -6l8 -4q7 -2 23 -9q11 -5 37 -13q23 -8 42 -16q24 -10 30 -12l-4 -8q-2 -8 -6 -14q-13 -30 -28 -52l-48 -64q-20 -24 -60 -48q-35 -22 -76 -22q-62 0 -144 36q-80 36 -114 36q-30 0 -54 -18q-20 -14 -26 -36l-4 -18
q-20 1 -94 16q-4 1 -31 8q-26 7 -35 8z" />
    <glyph glyph-name="adieresis" unicode="&#xe4;" horiz-adv-x="968" 
d="M862 30l-292 -6q-4 53 -4 86q-88 -70 -234 -70q-144 0 -230 80t-86 200q0 130 86 214q85 82 268 82q134 0 206 -34v54q0 162 -90 162q-88 0 -112 -108l-278 20q12 160 112 254q98 92 268 92q204 0 304 -108q100 -112 100 -358q0 -175 -4 -286q-2 -51 -6 -124
q0 -25 -1 -38q0 -5 -0.5 -16t-1.5 -15q-1 -7 -1 -15zM446 244q63 0 92 26q34 30 34 66t-36 60q-28 22 -90 22q-64 0 -90 -26q-28 -28 -28 -64q0 -38 28 -60q28 -24 90 -24zM462 1278q-6 -57 -46 -88q-41 -32 -100 -32q-56 0 -98 36q-38 36 -36 92q1 49 44 84q40 34 98 34
q63 0 104 -38q40 -37 34 -88zM858 1252q-4 -58 -46 -86q-42 -30 -108 -30q-58 0 -96 38q-34 34 -32 88q4 52 46 86q41 32 102 32q57 0 98 -38q40 -34 36 -90z" />
    <glyph glyph-name="aring" unicode="&#xe5;" horiz-adv-x="968" 
d="M862 30l-292 -6q-4 53 -4 86q-88 -70 -234 -70q-144 0 -230 80t-86 200q0 130 86 214q85 82 268 82q134 0 206 -34v54q0 162 -90 162q-88 0 -112 -108l-278 20q12 160 112 254q98 92 268 92q204 0 304 -108q100 -112 100 -358q0 -175 -4 -286q-2 -51 -6 -124
q0 -25 -1 -38q0 -5 -0.5 -16t-1.5 -15q-1 -7 -1 -15zM446 244q63 0 92 26q34 30 34 66t-36 60q-28 22 -90 22q-64 0 -90 -26q-28 -28 -28 -64q0 -38 28 -60q28 -24 90 -24zM736 1328q0 -80 -70 -128q-74 -50 -168 -50t-156 50q-58 48 -58 136q0 68 70 120q73 50 160 50
q99 0 160 -52q62 -53 62 -126zM590 1328q4 28 -18 42q-25 16 -56 16q-25 0 -50 -16q-19 -13 -24 -38q-4 -22 18 -40q22 -16 52 -16q72 0 78 52z" />
    <glyph glyph-name="ae" unicode="&#xe6;" horiz-adv-x="1478" 
d="M1018 262q74 0 98 116q83 -2 156 -4t103 -3t31 -1q-11 -138 -116 -246q-106 -108 -290 -108q-206 0 -276 136q-122 -140 -364 -132q-141 1 -238 86q-92 80 -92 204q0 128 88 212q86 84 278 84q44 0 110 -8q58 -6 78 -14l22 -8q7 214 -92 220q-45 4 -73 -25
q-27 -29 -35 -91l-284 20q12 162 114 258q95 92 274 88q204 -6 280 -154q90 130 264 130q170 2 262 -102q94 -106 90 -310q-2 -94 -12 -138h-20q-23 -5 -68 -6q-34 -2 -104 -6q-186 -8 -294 -18q0 -82 30 -130q32 -50 80 -50zM466 238q70 0 102 26q34 28 34 66q0 34 -36 58
t-98 24q-126 0 -126 -88q0 -86 124 -86zM1038 794q-48 0 -78 -44q-33 -51 -40 -126q123 0 214 8q0 72 -24 118q-24 44 -72 44z" />
    <glyph glyph-name="ccedilla" unicode="&#xe7;" horiz-adv-x="910" 
d="M200 -190q102 84 150 196q-290 60 -280 468q6 234 110 380t332 146q168 0 256 -94q86 -96 90 -244q4 -54 -2 -88l-270 -24q10 168 -80 168q-58 0 -92 -64q-37 -67 -38 -178q-10 -226 96 -226q53 0 78 46q30 52 36 120l278 -6q-7 -141 -86 -256q-78 -110 -212 -146
q-76 -185 -246 -274q-69 25 -120 76z" />
    <glyph glyph-name="egrave" unicode="&#xe8;" horiz-adv-x="930" 
d="M496 240q78 0 98 116h36q12 0 24 -1t30 -1t30 -1t26 -1q92 -4 144 -6q-11 -136 -116 -244q-104 -108 -292 -108q-211 0 -308 130q-100 132 -98 354q1 229 118 382q120 154 334 154q178 0 270 -104t92 -302q0 -76 -12 -160q-32 -2 -202 -12q-2 0 -8 -0.5t-18 -1t-24 -0.5
q-41 -1 -103 -6q-23 -2 -68.5 -4.5t-62.5 -3.5q0 -84 30 -132t80 -48zM516 766q-46 0 -80 -46q-31 -41 -38 -120q123 0 214 8q0 158 -96 158zM632 1116l-166 -28q-52 48 -112 112q-37 43 -56 61q-14 14 -28 29l-14 14l-32 38l206 56q66 -84 100 -134q7 -9 20 -29
q14 -21 24 -33q10 -14 21 -30q9 -14 13 -18z" />
    <glyph glyph-name="eacute" unicode="&#xe9;" horiz-adv-x="930" 
d="M496 240q78 0 98 116h36q12 0 24 -1t30 -1t30 -1t26 -1q92 -4 144 -6q-11 -136 -116 -244q-104 -108 -292 -108q-211 0 -308 130q-100 132 -98 354q1 229 118 382q120 154 334 154q178 0 270 -104t92 -302q0 -76 -12 -160q-32 -2 -202 -12q-2 0 -8 -0.5t-18 -1t-24 -0.5
q-41 -1 -103 -6q-23 -2 -68.5 -4.5t-62.5 -3.5q0 -84 30 -132t80 -48zM516 766q-46 0 -80 -46q-31 -41 -38 -120q123 0 214 8q0 158 -96 158zM368 1118q57 87 206 282l206 -54q-126 -148 -244 -256q-93 11 -168 28z" />
    <glyph glyph-name="ecircumflex" unicode="&#xea;" horiz-adv-x="948" 
d="M496 240q78 0 98 116h36q12 0 24 -1t30 -1t30 -1t26 -1q92 -4 144 -6q-11 -136 -116 -244q-104 -108 -292 -108q-211 0 -308 130q-100 132 -98 354q1 229 118 382q120 154 334 154q178 0 270 -104t92 -302q0 -76 -12 -160q-32 -2 -202 -12q-2 0 -8 -0.5t-18 -1t-24 -0.5
q-41 -1 -103 -6q-23 -2 -68.5 -4.5t-62.5 -3.5q0 -84 30 -132t80 -48zM516 766q-46 0 -80 -46q-31 -41 -38 -120q123 0 214 8q0 158 -96 158zM180 1132q123 142 252 256h150q54 -48 118 -112t100 -106l40 -40l-198 -26q-109 101 -136 132l-132 -132q-113 11 -194 28z" />
    <glyph glyph-name="edieresis" unicode="&#xeb;" horiz-adv-x="930" 
d="M496 240q78 0 98 116h36q12 0 24 -1t30 -1t30 -1t26 -1q92 -4 144 -6q-11 -136 -116 -244q-104 -108 -292 -108q-211 0 -308 130q-100 132 -98 354q1 229 118 382q120 154 334 154q178 0 270 -104t92 -302q0 -76 -12 -160q-32 -2 -202 -12q-2 0 -8 -0.5t-18 -1t-24 -0.5
q-41 -1 -103 -6q-23 -2 -68.5 -4.5t-62.5 -3.5q0 -84 30 -132t80 -48zM516 766q-46 0 -80 -46q-31 -41 -38 -120q123 0 214 8q0 158 -96 158zM458 1208q-6 -57 -46 -88q-41 -32 -100 -32q-58 0 -100 36q-38 35 -34 92q1 49 44 84q42 36 98 36q61 0 104 -40q40 -37 34 -88z
M854 1184q-5 -56 -48 -86q-42 -30 -106 -30q-60 0 -96 36t-32 90q5 50 46 84q41 32 102 32q60 0 98 -36q40 -34 36 -90z" />
    <glyph glyph-name="igrave" unicode="&#xec;" horiz-adv-x="540" 
d="M424 1086l-166 -28q-72 70 -114 114q-10 10 -18 19t-18 19l-19 19q-12 12 -17 19q-9 9 -14 16t-10 12l-36 36l210 58q51 -65 100 -136q6 -6 20 -26q20 -29 24 -34q7 -9 21 -31q10 -17 13 -19zM440 934q-22 -350 -28 -908q-130 -10 -324 -8l10 926z" />
    <glyph glyph-name="iacute" unicode="&#xed;" horiz-adv-x="540" 
d="M126 1086q85 128 206 284l206 -56q-126 -148 -244 -256q-98 12 -168 28zM434 934q-22 -350 -28 -908q-130 -10 -324 -8l10 926z" />
    <glyph glyph-name="icircumflex" unicode="&#xee;" horiz-adv-x="550" 
d="M-48 1082q123 142 252 256h150q70 -62 120 -112q80 -80 102 -106l36 -40l-196 -28q-90 82 -138 136q-69 -77 -128 -136q-98 10 -198 30zM446 934q-22 -350 -28 -908q-130 -10 -324 -8l10 926z" />
    <glyph glyph-name="idieresis" unicode="&#xef;" horiz-adv-x="554" 
d="M236 1208q-6 -50 -50 -88q-41 -32 -100 -32q-56 0 -98 36q-38 36 -36 92q1 49 44 84q42 36 98 36q61 0 104 -40q44 -41 38 -88zM628 1184q-5 -57 -44 -86q-42 -30 -108 -30q-62 0 -98 36t-32 90q2 48 48 84q41 32 104 32q54 0 94 -36q40 -34 36 -90zM450 934
q-22 -350 -28 -908q-130 -10 -324 -8l10 926z" />
    <glyph glyph-name="eth" unicode="&#xf0;" horiz-adv-x="956" 
d="M314 1046q-45 35 -64 56q-21 24 -26 42l-8 16q119 74 144 88q-37 26 -46 30q-5 1 -26 14q-2 2 -7 4.5l-7 3.5l-8 2q-22 10 -24 12q37 89 52 110q26 42 54 66l18 20q152 -42 272 -132l148 74q30 -32 84 -138l-106 -66q130 -196 136 -554q2 -333 -92 -516
q-92 -182 -334 -180q-414 6 -414 502q0 224 96 348q97 124 254 124q136 0 196 -84q-6 141 -100 236zM472 270q53 -4 94 52q38 53 38 164q0 216 -120 216q-72 0 -104 -48q-34 -47 -34 -180q0 -104 34 -150q36 -49 92 -54z" />
    <glyph glyph-name="ntilde" unicode="&#xf1;" horiz-adv-x="1002" 
d="M636 978q272 0 270 -372q0 -95 -4 -334q-4 -82 -5 -111q-2 -60 -5 -101l-4 -64h-306q6 358 6 530q0 106 -22 140q-20 32 -68 32q-96 0 -96 -140l-2 -86q0 -10 -1 -18q-1 -4 -1.5 -16t-0.5 -18q-1 -15 -1 -42q-2 -69 -6 -124q-1 -19 -2.5 -66t-2.5 -64q-3 -79 -3 -104
h-300l10 972l296 -6v-108q100 100 248 100zM134 1162q2 2 2 12v8l2 4q2 14 18 50q18 45 34 68q14 24 60 54q34 22 88 22q58 0 146 -36q79 -36 122 -36q35 0 60 22q25 23 32 42l8 20h2q2 -2 6 -2l2 -2h6q7 0 14 -4q5 0 68 -22q36 -12 72 -30l-4 -8q-1 -10 -6 -16
q-5 -10 -28 -48q-32 -44 -48 -64q-21 -27 -60 -50q-35 -22 -76 -22q-57 0 -144 38q-80 36 -114 36q-30 0 -54 -18q-20 -14 -26 -38l-4 -18q-20 1 -94 16q-33 8 -42 10l-24 6z" />
    <glyph glyph-name="ograve" unicode="&#xf2;" horiz-adv-x="998" 
d="M500 1030q220 0 322 -126q104 -128 104 -342q0 -149 -44 -272q-42 -120 -146 -194q-104 -78 -268 -78q-212 0 -318 124q-104 122 -104 326q0 250 112 404q114 158 342 158zM610 522q0 224 -110 224q-60 0 -102 -78q-40 -76 -40 -200q0 -77 28 -132q32 -56 82 -56
q72 0 108 68q34 59 34 174zM674 1148l-166 -26q-81 77 -114 112q-91 92 -98 104l-34 38l206 56q17 -23 53 -69q28 -36 38 -50q9 -13 13 -17q64 -91 74 -108z" />
    <glyph glyph-name="oacute" unicode="&#xf3;" horiz-adv-x="998" 
d="M500 1030q220 0 322 -126q104 -128 104 -342q0 -149 -44 -272q-42 -120 -146 -194q-104 -78 -268 -78q-212 0 -318 124q-104 122 -104 326q0 250 112 404q114 158 342 158zM610 522q0 224 -110 224q-60 0 -102 -78q-40 -76 -40 -200q0 -77 28 -132q32 -56 82 -56
q72 0 108 68q34 59 34 174zM372 1154q57 87 206 282l206 -54q-126 -148 -244 -256q-98 12 -168 28z" />
    <glyph glyph-name="ocircumflex" unicode="&#xf4;" horiz-adv-x="1002" 
d="M500 1030q220 0 322 -126q104 -128 104 -342q0 -149 -44 -272q-42 -120 -146 -194q-104 -78 -268 -78q-212 0 -318 124q-104 122 -104 326q0 250 112 404q114 158 342 158zM610 522q0 224 -110 224q-60 0 -102 -78q-40 -76 -40 -200q0 -77 28 -132q32 -56 82 -56
q72 0 108 68q34 59 34 174zM186 1144q123 142 252 256h150q54 -48 118 -112q97 -97 102 -104l38 -42l-198 -26q-95 89 -136 134q-14 -16 -132 -134q-113 11 -194 28z" />
    <glyph glyph-name="otilde" unicode="&#xf5;" horiz-adv-x="1010" 
d="M138 1162q2 2 2 12v8l2 4q2 14 18 50q18 45 34 68q14 24 60 54q31 22 88 22q58 0 146 -36q83 -36 122 -36q35 0 60 22q25 23 32 42l8 20h2q2 -2 6 -2l4 -2h6q5 0 12 -4q5 0 68 -22q36 -12 72 -30l-4 -8q-1 -10 -6 -16q-5 -10 -28 -48q-32 -44 -48 -64q-21 -27 -60 -50
q-35 -22 -74 -22q-59 0 -146 38q-82 36 -114 36q-30 0 -54 -18q-20 -14 -26 -38l-4 -18q-20 1 -94 16q-33 8 -42 10l-24 6zM500 1030q220 0 322 -126q104 -128 104 -342q0 -149 -44 -272q-42 -120 -146 -194q-104 -78 -268 -78q-212 0 -318 124q-104 122 -104 326
q0 250 112 404q114 158 342 158zM610 522q0 224 -110 224q-60 0 -102 -78q-40 -76 -40 -200q0 -77 28 -132q32 -56 82 -56q72 0 108 68q34 59 34 174z" />
    <glyph glyph-name="odieresis" unicode="&#xf6;" horiz-adv-x="998" 
d="M472 1262q-6 -51 -48 -86q-43 -34 -100 -34q-54 0 -98 38q-38 36 -36 92q1 49 44 84q40 34 98 34q63 0 104 -38q42 -40 36 -90zM866 1236q-4 -58 -46 -86q-40 -28 -108 -28q-58 0 -96 38q-34 34 -32 88q4 52 46 86q41 32 104 32q55 0 96 -38q40 -34 36 -92zM500 1030
q220 0 322 -126q104 -128 104 -342q0 -149 -44 -272q-42 -120 -146 -194q-104 -78 -268 -78q-212 0 -318 124q-104 122 -104 326q0 250 112 404q114 158 342 158zM610 522q0 224 -110 224q-60 0 -102 -78q-40 -76 -40 -200q0 -77 28 -132q32 -56 82 -56q72 0 108 68
q34 59 34 174z" />
    <glyph glyph-name="divide" unicode="&#xf7;" horiz-adv-x="990" 
d="M642 230q-1 -52 -48 -88q-46 -36 -102 -36q-62 0 -102 40q-38 38 -36 92q2 50 48 86q41 34 100 34q62 0 104 -36q38 -36 36 -92zM644 868q-1 -52 -48 -88q-41 -32 -102 -32q-66 0 -102 36q-38 38 -36 92q2 51 48 88q43 34 100 34q61 0 104 -38q38 -36 36 -92zM100 424
q-2 43 2 134q2 56 6 80l4 26q262 -2 772 -2q16 -63 4 -232q-294 12 -788 -6z" />
    <glyph glyph-name="oslash" unicode="&#xf8;" horiz-adv-x="998" 
d="M514 1030q46 0 96 -8l84 118l170 -64q-23 -91 -50 -146q126 -120 126 -368q0 -157 -42 -272q-44 -116 -146 -194q-104 -78 -266 -78q-56 0 -98 6l-78 -128q-28 6 -74 20q-1 0 -5.5 2t-7.5 3l-18 6q-12 4 -17 5q-30 8 -36 12l-36 18l70 152q-126 114 -126 354
q0 250 112 404q114 158 342 158zM624 522q0 44 -2 52q-5 80 -30 122q-29 50 -78 50q-62 0 -102 -82q-40 -83 -40 -196q0 -76 30 -132q32 -56 84 -56q130 0 138 242z" />
    <glyph glyph-name="ugrave" unicode="&#xf9;" horiz-adv-x="1004" 
d="M348 78q-282 0 -282 342q0 200 2 286q0 44 8 222l4 76l310 4q-14 -411 -14 -518q0 -84 28 -118q24 -30 74 -30q46 0 72 30q30 32 30 80l6 598h316q0 -86 -4 -470q0 -49 -10 -376l-2 -126l-290 -14q4 48 0 112q-116 -98 -248 -98zM652 1170l-164 -28q-23 23 -51 50t-43 42
l-22 22q-36 39 -40 43q-8 8 -35 38q-18 20 -21 23l-34 36l206 58q51 -69 58 -79q32 -45 42 -57q51 -72 76 -110z" />
    <glyph glyph-name="uacute" unicode="&#xfa;" horiz-adv-x="1004" 
d="M348 78q-282 0 -282 342q0 200 2 286q0 44 8 222l4 76l310 4q-14 -411 -14 -518q0 -84 28 -118q24 -30 74 -30q46 0 72 30q30 32 30 80l6 598h316q0 -86 -4 -470q0 -49 -10 -376l-2 -126l-290 -14q4 48 0 112q-116 -98 -248 -98zM344 1160q95 145 202 284l210 -56
q-126 -148 -244 -256q-98 12 -168 28z" />
    <glyph glyph-name="ucircumflex" unicode="&#xfb;" horiz-adv-x="1026" 
d="M348 78q-282 0 -282 342q0 200 2 286q0 44 8 222l4 76l310 4q-14 -411 -14 -518q0 -84 28 -118q24 -30 74 -30q46 0 72 30q30 32 30 80l6 598h316q0 -86 -4 -470q0 -49 -10 -376l-2 -126l-290 -14q4 48 0 112q-116 -98 -248 -98zM172 1182q123 142 252 254h150
q70 -62 118 -110q52 -52 100 -106l40 -42l-200 -28q-71 62 -134 136q-39 -43 -132 -136q-59 6 -194 32z" />
    <glyph glyph-name="udieresis" unicode="&#xfc;" horiz-adv-x="1004" 
d="M348 78q-282 0 -282 342q0 200 2 286q0 44 8 222l4 76l310 4q-14 -411 -14 -518q0 -84 28 -118q24 -30 74 -30q46 0 72 30q30 32 30 80l6 598h316q0 -86 -4 -470q0 -49 -10 -376l-2 -126l-290 -14q4 48 0 112q-116 -98 -248 -98zM456 1292q-6 -57 -46 -88
q-41 -32 -100 -32q-62 0 -100 36q-38 35 -34 92q2 48 42 84q42 36 100 36q61 0 104 -40q40 -37 34 -88zM852 1266q-4 -54 -48 -84q-44 -32 -106 -32q-58 0 -96 38q-36 36 -32 90q5 50 46 84q41 32 102 32q56 0 98 -36q40 -34 36 -92z" />
    <glyph glyph-name="yacute" unicode="&#xfd;" horiz-adv-x="990" 
d="M886 1028q0 -164 -2 -358q-2 -48 -3 -162q-1 -76 -1 -172q0 -76 -1 -112q0 -14 -0.5 -42.5t-1.5 -38.5q-1 -18 -1 -35q-2 -242 -122 -356t-298 -114q-157 0 -284 76v286q48 -37 106 -60q66 -24 124 -24q96 0 138 54q44 55 44 184q-82 -88 -232 -88q-286 0 -286 336v178
q0 53 4 160q2 40 2 122v48q0 14 1 22t1 14l2 26l312 -8q-14 -415 -14 -512q0 -80 24 -114q19 -28 68 -28q108 0 108 138q2 106 2 406v174h310zM334 1120q97 147 202 282l210 -54q-122 -140 -244 -254q-134 18 -168 26z" />
    <glyph glyph-name="thorn" unicode="&#xfe;" horiz-adv-x="974" 
d="M622 1010q148 0 224 -130q74 -123 70 -338q-1 -217 -94 -364q-95 -146 -260 -146q-110 0 -170 74q-10 -434 -10 -474q-179 -6 -290 -6q-2 40 -2 338q5 1141 22 1468q26 0 80 2q60 2 96 6q34 0 58 2t42 2q2 0 16 2h4v-7q0 -8 -1 -15t-1 -20v-90v-120v-266q106 82 216 82z
M488 310q61 5 90 62q26 54 30 156q4 204 -112 204q-60 0 -86 -38q-10 -213 -10 -306q4 -42 24 -60q24 -22 64 -18z" />
    <glyph glyph-name="ydieresis" unicode="&#xff;" horiz-adv-x="990" 
d="M886 1028q0 -164 -2 -358q-2 -48 -3 -162q-1 -76 -1 -172q0 -76 -1 -112q0 -14 -0.5 -42.5t-1.5 -38.5q-1 -18 -1 -35q-2 -242 -122 -356t-298 -114q-157 0 -284 76v286q48 -37 106 -60q66 -24 124 -24q96 0 138 54q44 55 44 184q-82 -88 -232 -88q-286 0 -286 336v178
q0 53 4 160q2 40 2 122v48q0 14 1 22t1 14l2 26l312 -8q-14 -415 -14 -512q0 -80 24 -114q19 -28 68 -28q108 0 108 138q2 106 2 406v174h310zM450 1272q-6 -57 -46 -88q-43 -34 -102 -34q-55 0 -98 38q-38 35 -34 92q1 49 40 84q40 34 102 34q63 0 104 -38q40 -37 34 -88z
M846 1246q-5 -56 -48 -86q-42 -30 -106 -30q-58 0 -96 38q-36 36 -34 88q4 52 46 86q41 32 104 32q55 0 96 -38q42 -36 38 -90z" />
    <glyph glyph-name="Abreve" unicode="&#x102;" horiz-adv-x="1166" 
d="M1130 64l-336 -38l-44 264q-244 -6 -376 -18l-72 -276l-332 16q91 358 196 696q93 302 178 550l70 190l448 18q71 -406 112 -616q65 -335 112 -570zM606 1048q-108 -330 -152 -512q139 0 240 8q-3 12 -10 49l-16 88q-2 11 -9 49t-11 58q-31 173 -42 260zM350 1814l220 2
q0 -90 64 -90q36 0 62 26q23 23 24 56l202 -4q-6 -100 -80 -168q-72 -66 -208 -66q-274 0 -284 244z" />
    <glyph glyph-name="abreve" unicode="&#x103;" horiz-adv-x="958" 
d="M854 30l-294 -6q-2 22 -2 86q-88 -70 -234 -70q-144 0 -230 80t-86 200q0 130 86 214q85 82 268 82q132 0 204 -34v54q0 162 -90 162q-86 0 -110 -108l-278 20q12 160 112 254q98 92 266 92q206 0 306 -108q100 -112 100 -358q0 -148 -6 -286q-1 -18 -3 -59
q-1 -27 -1 -61q0 -25 -1 -39q0 -5 -0.5 -16.5t-1.5 -15.5q-1 -7 -1 -17zM438 244q63 0 92 26q32 32 32 66q0 36 -34 60q-28 22 -90 22q-66 0 -92 -26t-26 -64q0 -36 26 -60t92 -24zM240 1388l216 2q0 -90 68 -90q36 0 62 26q23 23 24 56l198 -4q-6 -104 -76 -168
q-72 -66 -208 -66q-274 0 -284 244z" />
    <glyph glyph-name="Aogonek" unicode="&#x104;" horiz-adv-x="1178" 
d="M1158 60h-6q-5 -2 -13 -3q-6 -1 -19 -1q-17 0 -31 -1q-22 -2 -29 -3q-59 -6 -72 -8q-41 -6 -46 -6q-38 -2 -84 -12q-42 -7 -62 -20q-16 -12 -16 -30q0 -48 86 -50h12h10h14h4q2 2 4 2h4h6v-140q-11 -4 -48 -4q-116 0 -194 48t-78 154q0 68 58 110q60 45 134 56l-22 134
q-244 -6 -378 -18l-72 -280l-334 16q83 336 194 704q114 384 180 554l70 194l452 18q81 -444 116 -618q1 -3 40 -206q32 -160 40 -208q14 -84 30 -150q43 -194 50 -232zM624 1052q-104 -325 -150 -518q138 0 240 8q-3 9 -44 242q-32 175 -46 268z" />
    <glyph glyph-name="aogonek" unicode="&#x105;" horiz-adv-x="972" 
d="M866 4q-130 0 -130 -40q0 -50 110 -50h30v-140q-8 -2 -42 -2q-127 0 -216 40q-90 42 -90 132q0 63 62 104v64q-92 -74 -260 -72q-147 5 -230 82q-84 78 -84 198q0 130 88 214q85 82 274 82q138 0 210 -34v46q0 44 -2 54q-5 105 -54 112q-21 8 -56 2q-73 -11 -86 -106
l-282 20q12 162 120 258q102 92 278 88q176 -5 272 -80q100 -78 112 -254q0 -34 1 -50q0 -6 0.5 -19t1.5 -17q1 -8 1 -14q0 -19 -1.5 -57.5t-3 -105t-3.5 -127.5q0 -1 -14 -242zM450 244q66 0 98 26q36 30 36 66q0 34 -38 60q-34 22 -96 22q-126 0 -126 -90q0 -84 126 -84z
" />
    <glyph glyph-name="Cacute" unicode="&#x106;" horiz-adv-x="1094" 
d="M574 302q66 0 102 76q32 74 36 240l344 10q4 -302 -118 -464t-374 -162q-132 0 -238 58q-100 54 -156 158t-80 226q-24 124 -24 276q0 204 54 368q54 166 176 270q127 106 296 106q242 0 340 -140q102 -140 92 -422l-326 -12q6 268 -106 268q-161 0 -172 -440
q-1 -190 36 -304q37 -112 118 -112zM472 1606q87 135 204 284l206 -54q-126 -148 -244 -256q-133 18 -166 26z" />
    <glyph glyph-name="cacute" unicode="&#x107;" horiz-adv-x="910" 
d="M450 250q55 0 80 46q28 48 34 120l280 -6q-12 -172 -116 -294q-102 -120 -288 -120q-207 0 -298 124q-94 126 -92 354q6 236 108 380q104 146 334 146q168 0 252 -90q88 -94 94 -236q4 -60 -2 -100l-272 -24q4 168 -78 168q-58 0 -92 -64q-37 -67 -38 -178
q-10 -226 94 -226zM342 1126q118 176 202 284l210 -54q-126 -148 -244 -256q-134 18 -168 26z" />
    <glyph glyph-name="Ccaron" unicode="&#x10c;" horiz-adv-x="1094" 
d="M574 302q66 0 102 76q32 74 36 240l344 10q4 -302 -118 -464t-374 -162q-132 0 -238 58q-100 54 -156 158t-80 226q-24 124 -24 276q0 204 54 368q54 166 176 270q127 106 296 106q242 0 340 -140q102 -140 92 -422l-326 -12q6 268 -106 268q-161 0 -172 -440
q-1 -190 36 -304q37 -112 118 -112zM270 1810q53 24 80 30q63 13 76 14l28 2q9 -12 62 -62q48 -44 70 -72q54 60 134 134q118 -12 200 -26q-154 -170 -258 -260h-150q-10 8 -28 26l-34 34l-23 23l-19 19l-10 10q-8 8 -23 22.5t-22 21.5q-19 19 -35 33q-8 7 -16 15z" />
    <glyph glyph-name="ccaron" unicode="&#x10d;" horiz-adv-x="910" 
d="M456 250q55 0 80 46q30 52 36 120l278 -6q-12 -172 -116 -294q-102 -120 -288 -120q-207 0 -298 124q-94 126 -92 354q6 236 108 380q104 146 334 146q168 0 252 -90q88 -94 94 -236q4 -60 -2 -100l-270 -24q4 168 -80 168q-58 0 -92 -64q-33 -60 -38 -178
q-10 -226 94 -226zM178 1328q47 21 80 28q39 11 76 16l28 2l62 -62q38 -36 70 -72q60 68 134 134q124 -11 198 -26q-154 -170 -256 -260h-150q-39 39 -116 110l-96 94z" />
    <glyph glyph-name="Dcaron" unicode="&#x10e;" horiz-adv-x="1188" 
d="M140 1448q124 14 288 -4q350 -48 526 -230q172 -178 166 -456q-7 -327 -198 -518q-194 -194 -564 -236q-171 -16 -252 -14q34 749 34 1458zM764 738q13 394 -268 406q-37 -531 -44 -840q147 11 226 130q80 119 86 304zM250 1786q47 21 80 28q63 13 76 14l28 4
q5 -7 46 -48l48 -48q27 -27 36 -38q41 45 136 134q124 -12 198 -24q-139 -153 -260 -260h-146q-8 8 -29 26q-27 23 -44 39q-30 28 -45 43q-33 32 -94 98z" />
    <glyph glyph-name="dcaron" unicode="&#x10f;" horiz-adv-x="1014" 
d="M558 -2v114q-74 -86 -212 -80q-156 2 -230 134q-70 125 -70 350q0 216 90 348q94 135 254 134q110 -2 182 -66l8 528l318 -6q-30 -875 -52 -1444zM456 302q50 -4 76 22q29 29 30 86l4 278q-6 16 -30 30q-29 17 -58 18q-68 5 -98 -60q-27 -56 -32 -156q0 -212 108 -218z
M1150 1156l-170 30l80 404l188 -26z" />
    <glyph glyph-name="Dcroat" unicode="&#x110;" horiz-adv-x="1188" 
d="M140 1448q124 14 288 -4q350 -48 526 -230q172 -178 166 -456q-7 -327 -198 -518q-194 -194 -564 -236q-171 -16 -252 -14q34 749 34 1458zM764 738q13 394 -268 406q-37 -531 -44 -840q147 11 226 130q80 119 86 304zM256 1586q0 70 2 96q0 5 1 10t1 14t1 14t1 10v14
l2 20q322 12 598 12q2 -2 2 -12q2 -6 2 -10l2 -6v-8q0 -4 1 -9t1 -13v-26q4 -54 -2 -90q-242 -1 -612 -16z" />
    <glyph glyph-name="dcroat" unicode="&#x111;" horiz-adv-x="1008" 
d="M454 1104q-2 10 -2 52q0 19 4 72q0 4 1 9t1 11t1 10t1 8v12l4 14q11 0 22 1q6 1 22 1.5t24 0.5q20 1 58 1l4 164l318 -6q-1 -57 -6 -154h74q12 -64 12 -104q0 -33 -4 -76q-10 -2 -44 -2q-17 0 -26 -1t-18 -1l-40 -1106l-286 -12v128q-70 -94 -202 -94q-158 0 -236 132
q-76 127 -76 352q0 208 90 346q90 136 250 136q110 0 186 -66q0 142 2 174q-6 0 -15 -1t-23 -1h-40h-56zM472 302h12q92 0 94 108l4 278q-6 13 -32 30q-32 18 -56 18q-61 0 -96 -62q-36 -62 -36 -154q0 -212 110 -218z" />
    <glyph glyph-name="Eogonek" unicode="&#x118;" horiz-adv-x="964" 
d="M840 336q0 -136 8 -314q-126 0 -126 -46q0 -44 86 -46l54 2v-140q-18 -2 -44 -2q-278 0 -278 194q0 45 22 70q-377 -27 -448 -28q0 140 -1 207q0 25 -0.5 79t-1.5 73q-1 34 -1 63q0 196 8 514q4 149 18 376l6 122q398 26 742 26q6 -146 -6 -270q-126 -7 -384 -28
l-20 -322q229 10 354 10q0 -30 2 -112q4 -111 4 -136l-372 -36q-8 -178 -8 -264q32 0 228 5q131 3 158 3z" />
    <glyph glyph-name="eogonek" unicode="&#x119;" horiz-adv-x="930" 
d="M486 240q74 0 98 116h36q12 0 23 -1t29 -1t31 -1t27 -1q94 -4 144 -6q-20 -240 -314 -368q-24 -24 18 -48q2 -20 94 -20v-142q-8 -2 -46 -2q-272 0 -272 178q0 40 12 64q-301 42 -306 416q0 261 110 416q110 156 352 158q158 2 252 -90q94 -94 100 -274q2 -86 -12 -186
q-32 -2 -202 -12q-2 0 -8 -0.5t-18 -1t-24 -0.5q-42 -2 -105 -6q-23 -2 -67 -4.5t-64 -3.5q0 -79 32 -132q30 -48 80 -48zM506 770q-48 0 -78 -46q-32 -47 -42 -124q125 0 216 8q0 162 -96 162z" />
    <glyph glyph-name="Ecaron" unicode="&#x11a;" horiz-adv-x="996" 
d="M836 336q0 -83 -10 -264q-417 -34 -716 -46q0 166 -1 245q0 31 -0.5 69.5t-1 64.5t-0.5 43q-1 39 -1 72q0 182 8 478q6 248 16 348l8 114q398 26 742 26q6 -146 -6 -270q-126 -7 -384 -28l-22 -322q229 10 356 10q4 -213 4 -248l-370 -36q-8 -178 -8 -264q32 0 228 5
q131 3 158 3zM180 1822q53 24 80 30q63 13 76 14l28 2q9 -12 62 -62q48 -44 70 -72q54 60 134 134q122 -12 198 -24q-154 -170 -256 -260h-150q-9 9 -15 14q-12 10 -23 21q-5 5 -13 12.5t-11 10.5l-23 23l-19 19l-10 10q-10 10 -42 40t-36 34l-18 18z" />
    <glyph glyph-name="ecaron" unicode="&#x11b;" horiz-adv-x="942" 
d="M496 240q78 0 98 116h36q12 0 24 -1t30 -1t30 -1t26 -1q92 -4 144 -6q-11 -136 -116 -244q-104 -108 -292 -108q-211 0 -308 130q-100 132 -98 354q1 229 118 382q120 154 334 154q178 0 270 -104t92 -302q0 -76 -12 -160q-32 -2 -202 -12q-2 0 -8 -0.5t-18 -1t-24 -0.5
q-41 -1 -103 -6q-23 -2 -68.5 -4.5t-62.5 -3.5q0 -84 30 -132t80 -48zM516 766q-46 0 -80 -46q-31 -41 -38 -120q123 0 214 8q0 158 -96 158zM192 1326q47 21 80 28q63 13 76 14l28 4l48 -48l48 -48q25 -25 36 -40q60 70 136 136q57 -5 198 -26q-154 -170 -258 -260h-150
q-9 9 -15 14q-12 10 -23 21q-5 5 -13 12.5t-11 10.5l-52 52q-48 44 -92 96z" />
    <glyph glyph-name="Gbreve" unicode="&#x11e;" horiz-adv-x="1140" 
d="M580 786q3 0 258 14q96 4 178 4l56 2q4 -155 2 -176q-7 -603 -494 -608q-173 0 -294 94q-116 92 -170 252q-50 151 -46 368q5 172 32 294q30 135 90 244q59 109 162 170q98 60 240 60q226 0 346 -138q120 -137 110 -416l-328 -28q-16 256 -128 256q-69 0 -116 -116
q-45 -111 -50 -302q-4 -205 38 -320q42 -118 128 -118q66 0 102 60q38 65 44 156q-64 -4 -76 -4h-32q-2 0 -16 -2h-4l-16 2q-22 122 -16 252zM290 1830l220 2q0 -90 68 -90q32 0 58 26q27 27 28 56l198 -4q-6 -100 -80 -168q-70 -64 -204 -64q-280 0 -288 242z" />
    <glyph glyph-name="gbreve" unicode="&#x11f;" horiz-adv-x="1000" 
d="M598 952q-2 26 -2 82q105 0 155 -1q19 0 43.5 -0.5t41 -1t27.5 -0.5q25 -1 47 -1q-23 -710 -28 -968q-6 -230 -110 -340t-278 -110q-123 0 -306 62v290q113 -74 230 -74q80 0 124 44q47 47 52 170q-85 -70 -204 -70q-171 0 -260 122q-84 116 -84 318q0 235 92 384
q92 152 268 152q110 0 192 -58zM598 362q0 310 -2 340q-26 44 -86 44q-70 0 -106 -68q-37 -67 -42 -164q-2 -94 30 -156q36 -68 98 -68q40 0 72 26q26 23 36 46zM216 1360l218 2q0 -90 68 -90q36 0 60 24q21 23 26 56l198 -4q-6 -100 -78 -166t-206 -66q-276 0 -286 244z
" />
    <glyph glyph-name="Idotaccent" unicode="&#x130;" horiz-adv-x="572" 
d="M432 1672q-6 -50 -52 -86q-43 -34 -102 -34q-53 0 -96 38q-38 35 -34 90q5 53 44 84q41 34 100 34q64 0 106 -36q38 -35 34 -90zM474 1452q-4 -49 -18 -616q-7 -335 -12 -580l-2 -226l-338 -10v224v124v38q0 22 -1 29t-1 13l10 988z" />
    <glyph glyph-name="dotlessi" unicode="&#x131;" horiz-adv-x="534" 
d="M444 934q-22 -350 -28 -908q-130 -10 -324 -8l10 926z" />
    <glyph glyph-name="Lacute" unicode="&#x139;" horiz-adv-x="814" 
d="M760 318q13 -132 18 -278q-238 -21 -672 -32q0 169 4 738q2 362 6 530l4 172l358 10q-19 -207 -26 -448q-3 -79 -7 -227q-1 -41 -3 -99.5t-2 -77.5q-2 -82 -2 -86l-4 -200zM174 1596q95 145 202 284l210 -56q-126 -148 -244 -256q-98 12 -168 28z" />
    <glyph glyph-name="lacute" unicode="&#x13a;" horiz-adv-x="544" 
d="M86 4q0 364 6 728t12 544l4 178l336 -14q-41 -616 -46 -1436h-312zM146 1586q97 147 202 282l208 -54q-120 -144 -242 -256q-98 12 -168 28z" />
    <glyph glyph-name="Lcaron" unicode="&#x13d;" horiz-adv-x="842" 
d="M760 318q13 -132 18 -278q-238 -21 -672 -32q0 169 4 738q2 362 6 530l4 172l358 10q-19 -207 -26 -448q-3 -79 -7 -227q-1 -41 -3 -99.5t-2 -77.5q-2 -82 -2 -86l-4 -200zM756 1044l-178 30l84 412l194 -24z" />
    <glyph glyph-name="lcaron" unicode="&#x13e;" horiz-adv-x="740" 
d="M96 4q0 364 6 728q4 139 6 316q0 66 1 103q0 14 0.5 43.5t1.5 40.5q1 19 1 41l6 178l336 -14q-41 -616 -46 -1436h-312zM712 1032l-180 30l86 416l198 -22z" />
    <glyph glyph-name="Lslash" unicode="&#x141;" horiz-adv-x="836" 
d="M22 510q-2 26 -2 86q0 58 2 80l2 34l126 26l14 712l354 10q-21 -225 -32 -668l194 28q8 -38 12 -90q4 -42 -6 -112l-206 -32l-6 -264l324 -2q19 -159 20 -278q-237 -21 -670 -32q0 426 2 522q-4 0 -17.5 -2.5t-47 -7.5t-63.5 -10z" />
    <glyph glyph-name="lslash" unicode="&#x142;" horiz-adv-x="716" 
d="M14 486q0 45 4 126q5 56 6 68l2 16l170 34l16 724l336 -14q-21 -367 -28 -650l166 32q26 -42 10 -200q-81 -12 -184 -36q-8 -296 -8 -582h-314v72q0 366 2 448q-6 0 -14 -2q-2 0 -5.5 -1t-9.5 -2.5t-11 -2.5q-5 0 -16 -4t-16 -4q-98 -21 -106 -22z" />
    <glyph glyph-name="Nacute" unicode="&#x143;" horiz-adv-x="1258" 
d="M1154 1458q6 -658 -30 -1438q-35 0 -64 -1q-16 -1 -60.5 -1.5t-66.5 -0.5q-55 -1 -157 -1q-218 499 -336 898q-14 -507 4 -932l-326 -12q-8 919 22 1450q218 5 408 16l280 -816q10 530 8 840h68q30 0 50 -1t42 -1h158zM480 1574q80 123 204 284l206 -54
q-129 -151 -242 -256q-134 18 -168 26z" />
    <glyph glyph-name="nacute" unicode="&#x144;" horiz-adv-x="1002" 
d="M636 978q272 0 270 -372q0 -95 -4 -334q-4 -82 -5 -111q-2 -60 -5 -101l-4 -64h-306q6 358 6 530q0 106 -22 140q-20 32 -68 32q-96 0 -96 -140l-2 -86q0 -10 -1 -18q-1 -4 -1.5 -16t-0.5 -18q-1 -15 -1 -42q-2 -69 -6 -124q-1 -19 -2.5 -66t-2.5 -64q-3 -79 -3 -104
h-300l10 972l296 -6v-108q100 100 248 100zM330 1164q95 145 202 284l208 -56q-120 -144 -242 -256q-98 12 -168 28z" />
    <glyph glyph-name="Ncaron" unicode="&#x147;" horiz-adv-x="1258" 
d="M1154 1458q6 -658 -30 -1438q-35 0 -64 -1q-16 -1 -60.5 -1.5t-66.5 -0.5q-55 -1 -157 -1q-218 499 -336 898q-14 -507 4 -932l-326 -12q-8 919 22 1450q218 5 408 16l280 -816q10 530 8 840h68q30 0 50 -1t42 -1h158zM308 1788q54 22 78 28q39 11 74 16l32 4
q24 -30 44 -50l48 -46q2 -2 6.5 -7t13 -15t16.5 -18q48 54 138 136q81 -7 196 -26q-154 -170 -258 -260h-150q-6 6 -114 108q-5 5 -16 17t-33 34.5t-43 44.5z" />
    <glyph glyph-name="ncaron" unicode="&#x148;" horiz-adv-x="1002" 
d="M636 978q272 0 270 -372q0 -95 -4 -334q-4 -82 -5 -111q-2 -60 -5 -101l-4 -64h-306q6 358 6 530q0 106 -22 140q-20 32 -68 32q-96 0 -96 -140l-2 -86q0 -10 -1 -18q-1 -4 -1.5 -16t-0.5 -18q-1 -15 -1 -42q-2 -69 -6 -124q-1 -19 -2.5 -66t-2.5 -64q-3 -79 -3 -104
h-300l10 972l296 -6v-108q100 100 248 100zM190 1334q47 21 80 28q63 13 76 14l28 4q9 -12 62 -62q38 -36 70 -72q58 65 136 134q126 -12 198 -24q-154 -170 -258 -260h-150q-6 6 -114 108q-43 40 -94 96z" />
    <glyph glyph-name="Ohungarumlaut" unicode="&#x150;" horiz-adv-x="1166" 
d="M1102 742q-5 -156 -38 -294q-30 -131 -92 -240q-60 -103 -164 -162q-109 -61 -242 -62q-179 0 -294 94q-112 91 -160 248q-44 143 -40 358q1 211 58 394q49 167 174 280q120 108 298 108q262 0 384 -192q126 -197 116 -532zM752 730q6 194 -22 302q-30 114 -118 114
q-86 4 -132 -126q-50 -135 -56 -338q-4 -182 32 -290q36 -112 118 -112q160 4 178 450zM300 1594q117 165 214 282l178 -56q-130 -150 -246 -254q-83 14 -146 28zM632 1594q100 138 216 282l178 -56q-130 -150 -246 -254q-84 12 -148 28z" />
    <glyph glyph-name="ohungarumlaut" unicode="&#x151;" horiz-adv-x="1018" 
d="M506 1030q220 0 322 -126q104 -128 104 -342q0 -149 -44 -272q-42 -120 -146 -194q-106 -78 -266 -78q-214 0 -320 124q-104 122 -104 326q0 250 112 404q114 158 342 158zM616 522q0 224 -110 224q-60 0 -102 -78q-40 -76 -40 -200q0 -77 28 -132q29 -56 84 -56
q70 0 106 68q34 59 34 174zM216 1148q132 184 214 284l178 -56q-130 -150 -246 -254q-64 11 -146 26zM548 1148q116 160 216 284l178 -56q-130 -150 -246 -254q-118 17 -148 26z" />
    <glyph glyph-name="OE" unicode="&#x152;" horiz-adv-x="1548" 
d="M1438 342q0 -134 -8 -264q-329 -35 -652 -58q-104 -26 -212 -26q-262 0 -382 190q-118 185 -112 510q5 173 34 304q29 135 92 246q62 111 164 172q100 60 240 60q39 0 144 -16q642 18 738 18q6 -146 -6 -270q-235 -12 -410 -30q16 -147 22 -318q210 10 338 10
q4 -213 4 -248l-350 -34q-7 -117 -30 -254q26 0 77.5 1.5t141 3t167.5 3.5zM750 740q6 76 0 150q-11 112 -16 134q-12 55 -44 96q-32 38 -80 38q-84 0 -132 -130q-50 -132 -54 -336q-4 -181 32 -290q36 -116 118 -112q162 0 176 450z" />
    <glyph glyph-name="oe" unicode="&#x153;" horiz-adv-x="1496" 
d="M1050 240q74 0 98 116h36q12 0 24 -1t30 -1t30 -1t26 -1q96 -4 146 -6q-10 -136 -114 -244q-106 -108 -292 -108q-179 0 -270 130q-88 -106 -278 -106q-216 0 -322 124q-104 122 -104 326q0 250 112 404q114 158 342 158q212 0 302 -150q101 117 272 118q165 4 260 -98
q94 -101 92 -302q0 -74 -12 -150q-22 -2 -204 -12q-3 0 -8.5 -0.5t-16 -1t-18.5 -0.5q-35 -2 -101 -6q-24 -2 -70 -4.5t-68 -3.5q0 -91 28 -132q30 -48 80 -48zM624 522q0 44 -2 52q-5 80 -30 122q-29 50 -78 50q-62 0 -102 -82q-40 -83 -40 -196q0 -76 30 -132
q32 -56 84 -56q130 0 138 242zM1072 770q-48 0 -78 -46q-32 -48 -42 -124q125 0 216 8q0 162 -96 162z" />
    <glyph glyph-name="Racute" unicode="&#x154;" horiz-adv-x="1152" 
d="M98 -20v280l-6 1208q110 8 254 6q718 -19 718 -458q0 -254 -216 -380q131 -242 356 -546l-326 -102q-185 239 -364 548q-2 -2 -12 -2q-6 -2 -10 -2h-14q-10 0 -14 -4h-10q-6 0 -10 -4v-90v-90q0 -38 -1 -63t-1 -49v-120q0 -43 -1 -69t-1 -49q-210 -14 -342 -14zM708 996
q4 83 -64 124q-62 42 -194 38q0 -256 -2 -338q116 7 190 52q70 46 70 124zM404 1592q97 147 202 282l208 -54q-120 -144 -242 -256q-98 12 -168 28z" />
    <glyph glyph-name="racute" unicode="&#x155;" horiz-adv-x="720" 
d="M398 900q28 52 112 70t188 -12l-32 -290q-53 22 -120 22q-66 0 -108 -48q-39 -51 -40 -166q-4 -49 -6 -130q-2 -74 -2 -116q-2 -66 -2 -162v-60q-137 0 -304 10q0 250 6 498q6 241 12 368l6 126l294 -12q0 -34 -1 -50q0 -6 -0.5 -14t-1 -13t-0.5 -8q-1 -7 -1 -13z
M248 1134q117 177 202 284l210 -54q-126 -148 -244 -256q-134 18 -168 26z" />
    <glyph glyph-name="Rcaron" unicode="&#x158;" horiz-adv-x="1152" 
d="M98 -20v280l-6 1208q110 8 254 6q718 -19 718 -458q0 -254 -216 -380q131 -242 356 -546l-326 -102q-185 239 -364 548q-2 -2 -12 -2q-6 -2 -10 -2h-14q-10 0 -14 -4h-10q-6 0 -10 -4v-90v-90q0 -38 -1 -63t-1 -49v-120q0 -43 -1 -69t-1 -49q-210 -14 -342 -14zM708 996
q4 83 -64 124q-62 42 -194 38q0 -256 -2 -338q116 7 190 52q70 46 70 124zM170 1800q16 7 80 26q71 16 76 16l28 4l62 -62q48 -44 70 -72q54 60 134 134q84 -7 198 -26q-154 -170 -258 -260h-148q-42 41 -118 112q-60 58 -94 94z" />
    <glyph glyph-name="rcaron" unicode="&#x159;" horiz-adv-x="722" 
d="M400 900q28 52 112 70t188 -12l-32 -290q-53 22 -120 22q-68 0 -108 -48q-39 -51 -40 -166q-4 -49 -6 -130q-2 -74 -2 -116q-2 -66 -2 -162v-60q-137 0 -304 10q0 250 6 498q6 241 12 368l6 126l294 -12q0 -34 -1 -50q0 -6 -0.5 -14t-1 -13t-0.5 -8q-1 -7 -1 -13z
M50 1346q46 21 76 28q63 13 76 14l32 4q22 -26 44 -48l50 -48q2 -2 6 -6.5l12 -13.5l16 -18q38 41 138 134q117 -12 196 -24q-154 -170 -258 -260h-150q-6 6 -114 108q-43 40 -94 96z" />
    <glyph glyph-name="Sacute" unicode="&#x15a;" horiz-adv-x="1054" 
d="M648 1002q6 194 -112 194q-106 0 -106 -108q0 -48 44 -98q35 -38 106 -78q73 -39 136 -78q74 -44 140 -98q63 -53 106 -140q42 -82 42 -196q0 -190 -130 -290q-128 -98 -338 -98q-116 0 -194 22q-89 24 -156 74q-72 52 -106 154q-32 92 -22 248h354q-4 -124 24 -172
q30 -52 96 -52q100 0 100 110q0 64 -56 118q-62 53 -144 100q-123 75 -164 102q-84 55 -144 148q-56 89 -56 216q0 192 120 306t340 114q224 0 344 -124q120 -120 114 -364zM392 1626q70 108 204 282l206 -54q-129 -151 -242 -256q-93 11 -168 28z" />
    <glyph glyph-name="sacute" unicode="&#x15b;" horiz-adv-x="914" 
d="M460 1034q403 2 404 -346l-272 -14q-1 118 -104 118q-90 0 -90 -70q0 -40 44 -70q40 -27 114 -52q49 -16 130 -50q62 -26 114 -84q51 -57 52 -134q1 -142 -98 -236q-101 -92 -306 -92q-204 0 -306 96q-100 94 -96 272l286 -6q0 -63 32 -98q32 -36 84 -36q88 0 88 76
q-1 33 -48 62q-41 27 -114 50q-51 16 -130 54q-62 30 -110 96q-48 62 -48 150q0 132 104 222q102 87 270 92zM344 1146q118 176 202 284l210 -54q-126 -148 -244 -256q-134 18 -168 26z" />
    <glyph glyph-name="Scedilla" unicode="&#x15e;" horiz-adv-x="1054" 
d="M246 -244q10 6 20 16q15 15 18 16q21 15 80 88q57 69 92 140q-398 48 -368 494h352q-2 -121 26 -172q30 -52 96 -52q104 0 104 110q0 64 -60 118q-48 48 -142 100q-50 29 -164 102q-82 54 -142 148q-60 92 -60 216q0 190 122 306q120 114 338 114q226 0 346 -124
q120 -125 112 -364l-336 -10q6 194 -110 194q-110 0 -110 -108q0 -48 44 -98q35 -38 106 -78q134 -73 140 -78q67 -38 136 -98q66 -55 108 -140q42 -88 42 -196q0 -154 -90 -250t-242 -126q-96 -248 -322 -348q-65 17 -136 80z" />
    <glyph glyph-name="scedilla" unicode="&#x15f;" horiz-adv-x="914" 
d="M476 1034q401 2 402 -346l-272 -14q-1 118 -104 118q-90 0 -90 -70q0 -40 44 -70q40 -27 114 -52q44 -13 132 -50q60 -24 114 -84q45 -51 50 -134q4 -121 -64 -200q-72 -86 -198 -114q-102 -214 -290 -300q-64 16 -136 78q101 77 178 212q-306 42 -296 364l286 -6
q0 -63 32 -98q36 -36 84 -36q88 0 88 76q-1 33 -48 62q-48 31 -112 50q-58 18 -132 54q-62 30 -110 96q-48 62 -48 150q0 132 104 222q102 87 272 92z" />
    <glyph glyph-name="Scaron" unicode="&#x160;" horiz-adv-x="1062" 
d="M660 1002q6 194 -114 194q-106 0 -106 -108q0 -48 44 -98q35 -38 106 -78q90 -48 138 -78q57 -34 138 -98q63 -53 106 -140q44 -93 44 -196q0 -193 -132 -290q-128 -98 -338 -98q-116 0 -194 22q-89 24 -156 74q-68 50 -104 154q-34 100 -24 248h354q-5 -128 24 -172
q30 -52 96 -52q102 0 102 110q0 64 -58 118q-48 48 -142 100q-55 31 -166 102q-79 53 -140 148q-60 92 -60 216q0 192 120 306t340 114q224 0 344 -124q120 -120 114 -364zM244 1828q53 24 80 30q30 11 76 12l28 4l12 -12l23 -23l27 -27q18 -16 68 -72q64 71 136 134
q117 -12 196 -24q-154 -170 -258 -260h-146q-9 9 -118 110q-39 33 -94 96z" />
    <glyph glyph-name="scaron" unicode="&#x161;" horiz-adv-x="914" 
d="M460 1034q403 2 404 -346l-272 -14q-1 118 -104 118q-90 0 -90 -70q0 -40 44 -70q40 -27 114 -52q49 -16 130 -50q62 -26 114 -84q51 -57 52 -134q1 -142 -98 -236q-101 -92 -306 -92q-204 0 -306 96q-100 94 -96 272l286 -6q0 -63 32 -98q32 -36 84 -36q88 0 88 76
q-1 33 -48 62q-41 27 -114 50q-51 16 -130 54q-62 30 -110 96q-48 62 -48 150q0 132 104 222q102 87 270 92zM166 1362q16 7 80 26q39 11 76 16l28 2l12 -12q2 -2 9.5 -9t12.5 -12q5 -4 14.5 -13t13.5 -14q18 -16 68 -72q54 61 136 132q124 -12 198 -24q-154 -170 -258 -260
h-148q-9 9 -118 110q-17 17 -27 26q-15 14 -35 35q-13 14 -32 33z" />
    <glyph glyph-name="uni0162" unicode="&#x162;" horiz-adv-x="890" 
d="M178 -420q45 58 62 82q5 5 16 23q9 15 33 49q5 8 20.5 29.5t24.5 34.5q50 73 100 138l256 -72q-137 -167 -300 -316q-145 20 -212 32zM30 1170q-6 214 2 292q492 24 828 24q20 -104 2 -276l-226 -14q-5 -155 -10 -530q0 -145 -1 -219q0 -28 -0.5 -87.5t-1.5 -80.5
q-1 -38 -1 -79v-174l-346 -14q-2 136 -2 1064v102z" />
    <glyph glyph-name="uni0163" unicode="&#x163;" horiz-adv-x="686" 
d="M90 -408q123 180 252 352l252 -70q-148 -183 -298 -314q-107 12 -206 32zM182 36v722l-134 -6q-45 134 -46 232q78 21 178 34l-2 310l336 20q-8 -229 -8 -302l142 8q4 -17 4 -34q0 -50 2 -92q4 -70 0 -126q-87 -10 -152 -18q-2 -114 -2 -726l-48 -6q-10 0 -24 -2
q-17 -4 -42 -4q-26 0 -48 -2q-120 -8 -156 -8z" />
    <glyph glyph-name="Tcaron" unicode="&#x164;" horiz-adv-x="890" 
d="M30 1146q-6 216 2 292q467 28 828 28q20 -104 2 -276l-226 -16q-5 -155 -10 -528q0 -145 -1 -219q0 -28 -0.5 -87.5t-1.5 -80.5q-1 -38 -1 -79v-174l-346 -14q-2 134 -2 1060v104zM136 1796q31 15 76 26q71 16 76 16l32 4q18 -24 58 -62q48 -44 70 -72q54 62 138 134
q81 -7 196 -26q-154 -170 -258 -260h-150q-1 1 -9.5 9t-16.5 16q-7 7 -18.5 18t-15.5 15l-23 23l-20 20l-11 11q-60 58 -94 94z" />
    <glyph glyph-name="tcaron" unicode="&#x165;" horiz-adv-x="800" 
d="M196 16v720l-134 -6q-45 134 -46 230q70 22 178 34l-2 312l336 22q-8 -229 -8 -302l144 8q2 -8 2 -36v-20q0 -7 1 -14t1 -18q0 -12 1 -21t1 -19q4 -70 0 -124q-23 -3 -75 -9t-79 -9q-2 -114 -2 -730q-6 -2 -22 -2q-9 0 -15 -1t-11 -1q-10 0 -24 -2t-42 -2q-20 0 -48 -4
q-80 -6 -156 -6zM790 1132l-174 28l82 390l190 -24z" />
    <glyph glyph-name="Uring" unicode="&#x16e;" horiz-adv-x="1186" 
d="M114 1418l360 -14q-28 -324 -28 -650q0 -18 1 -34t1 -40v-52q0 -10 1 -18q1 -4 1.5 -17t0.5 -19q1 -16 1 -46q5 -61 14 -92q10 -27 26 -62q16 -33 42 -44q25 -12 64 -12q72 0 112 40l10 1098l358 10l-26 -1458l-338 -12q-2 10 -2 56v32q0 4 -2 18v4q-94 -78 -242 -78
q-192 0 -288 154q-94 151 -94 512q0 102 8 326q6 186 12 288q6 110 8 110zM832 1706q0 -78 -72 -126q-76 -52 -168 -52q-93 0 -154 52q-60 48 -60 134q0 66 70 118t160 52q96 0 160 -54t64 -124zM684 1706q5 26 -18 40q-29 18 -56 18q-26 0 -48 -16q-24 -14 -26 -38
q-2 -21 20 -40q26 -18 50 -18q72 0 78 54z" />
    <glyph glyph-name="uring" unicode="&#x16f;" horiz-adv-x="1004" 
d="M354 78q-282 0 -282 342q0 58 4 286q0 44 8 222l2 76l312 4q-16 -409 -16 -518q0 -84 28 -118q24 -30 76 -30q42 0 72 30q28 29 28 80l6 598h316q0 -326 -2 -470q0 -83 -8 -376l-6 -126l-290 -14q4 48 0 112q-116 -98 -248 -98zM740 1296q0 -78 -70 -126
q-73 -50 -168 -50q-94 0 -156 50q-58 48 -58 134q0 70 70 122q68 48 160 48q101 0 160 -50q62 -56 62 -128zM594 1296q4 28 -18 42q-29 18 -56 18q-23 0 -48 -16q-21 -13 -26 -40q-1 -22 18 -40q22 -16 52 -16q72 0 78 52z" />
    <glyph glyph-name="Uhungarumlaut" unicode="&#x170;" horiz-adv-x="1186" 
d="M116 1418l360 -14q-28 -324 -28 -650q0 -18 1 -34t1 -40v-52q0 -10 1 -18q1 -4 1.5 -17t0.5 -19q1 -16 1 -46q5 -61 14 -92q10 -27 26 -62q16 -33 42 -44q30 -12 64 -12q72 0 112 40l10 1098l358 10l-26 -1458l-338 -12q-2 10 -2 56v32q0 4 -2 18v4q-92 -78 -240 -78
q-194 0 -290 154q-94 151 -94 512q0 102 8 326q6 186 12 288q6 110 8 110zM264 1570q116 163 214 284l180 -56q-130 -150 -246 -254q-104 16 -148 26zM598 1570q116 163 214 284l178 -56q-152 -174 -244 -254q-118 17 -148 26z" />
    <glyph glyph-name="uhungarumlaut" unicode="&#x171;" horiz-adv-x="1016" 
d="M354 78q-282 0 -282 342q0 58 4 286q0 44 8 222l2 76l312 4q-16 -409 -16 -518q0 -84 28 -118q24 -30 76 -30q42 0 72 30q28 29 28 80l6 598h316q0 -326 -2 -470q0 -83 -8 -376l-6 -126l-290 -14q4 48 0 112q-116 -98 -248 -98zM184 1154q100 138 216 282l178 -56
q-130 -150 -246 -254q-87 13 -148 28zM518 1154q110 154 214 282l178 -56q-152 -174 -244 -254q-84 12 -148 28z" />
    <glyph glyph-name="Ydieresis" unicode="&#x178;" horiz-adv-x="1094" 
d="M-18 1412l386 24q37 -147 84 -302q30 -102 72 -228l24 -74l212 656l362 -42q-144 -405 -410 -1040l16 -390l-354 -32q0 118 -1 185q0 26 -0.5 80t-1.5 74q-1 35 -1 81zM500 1700q-6 -48 -50 -86q-41 -32 -100 -32q-58 0 -98 36q-38 35 -34 92q2 50 42 84t98 34
q63 0 104 -38q44 -44 38 -90zM892 1676q-5 -57 -44 -86q-42 -30 -108 -30q-58 0 -96 38q-36 37 -34 88q2 50 48 86q41 32 104 32q53 0 94 -38q40 -34 36 -90z" />
    <glyph glyph-name="Zacute" unicode="&#x179;" horiz-adv-x="976" 
d="M96 -10l-64 270q284 478 472 932q-199 -6 -216 -8q-54 -4 -122 -6q-64 -2 -82 -2q-24 172 -8 286q479 11 770 28l82 -260l-504 -944q116 2 269 6q136 4 187 4q4 -7 4 -18v-20q4 -24 6 -98q4 -76 0 -132q-250 -21 -794 -38zM326 1590q97 147 202 282l208 -54
q-120 -144 -242 -256q-98 12 -168 28z" />
    <glyph glyph-name="zacute" unicode="&#x17a;" horiz-adv-x="866" 
d="M82 0q-11 54 -16 114q-4 67 -2 76v22l348 512l-310 -14q-3 11 -8 52q0 5 -7 40q-5 27 -5 30v3.5t-0.5 5t-1 6.5t-0.5 7q0 5 -1.5 17t-2.5 19l-4 40l-4 34q538 21 686 22l40 -234l-340 -496q258 15 314 16q20 -117 26 -244q-355 -27 -712 -28zM272 1122q92 142 204 282
l208 -54q-122 -140 -244 -254q-134 18 -168 26z" />
    <glyph glyph-name="Zdotaccent" unicode="&#x17b;" horiz-adv-x="976" 
d="M96 -10l-64 270q284 478 472 932q-199 -6 -216 -8q-54 -4 -122 -6q-64 -2 -82 -2q-24 172 -8 286q479 11 770 28l82 -260l-504 -944q116 2 269 6q136 4 187 4q4 -7 4 -18v-20q4 -24 6 -98q4 -76 0 -132q-250 -21 -794 -38zM604 1696q-6 -50 -52 -86q-43 -34 -102 -34
q-53 0 -96 38q-38 35 -34 92q5 51 44 82q41 34 100 34q64 0 106 -36q38 -35 34 -90z" />
    <glyph glyph-name="zdotaccent" unicode="&#x17c;" horiz-adv-x="866" 
d="M82 0q-11 54 -16 114q-4 67 -2 76v22l348 512l-310 -14q-3 11 -8 52q0 5 -7 40q-5 27 -5 30v3.5t-0.5 5t-1 6.5t-0.5 7q0 5 -1.5 17t-2.5 19l-4 40l-4 34q538 21 686 22l40 -234l-340 -496q258 15 314 16q20 -117 26 -244q-355 -27 -712 -28zM576 1232q-6 -50 -52 -86
q-41 -32 -102 -32q-56 0 -98 36q-41 36 -36 92q2 46 48 84q41 34 100 34q64 0 102 -36q43 -36 38 -92z" />
    <glyph glyph-name="Zcaron" unicode="&#x17d;" horiz-adv-x="976" 
d="M96 -10l-64 270q284 478 472 932q-199 -6 -216 -8q-54 -4 -122 -6q-64 -2 -82 -2q-24 172 -8 286q479 11 770 28l82 -260l-504 -944q116 2 269 6q136 4 187 4q4 -7 4 -18v-20q4 -24 6 -98q4 -76 0 -132q-250 -21 -794 -38zM168 1820q53 24 80 30q30 11 76 12l28 4l62 -62
q48 -44 70 -72q54 60 134 134q122 -12 198 -24q-154 -170 -258 -260h-148q-9 9 -118 110q-56 52 -92 94z" />
    <glyph glyph-name="zcaron" unicode="&#x17e;" horiz-adv-x="878" 
d="M78 0q-11 54 -16 114q-4 67 -2 76v22l348 512l-310 -14q-3 11 -8 52q0 5 -7 40q-5 27 -5 30v3.5t-0.5 5t-1 6.5t-0.5 7q0 5 -1.5 17t-2.5 19l-4 40l-4 34q538 21 686 22l40 -234l-340 -496q258 15 314 16q20 -117 26 -244q-355 -27 -712 -28zM120 1348q47 21 80 28
q39 11 76 16l32 2q22 -26 44 -48l48 -46q2 -2 6.5 -7t13 -15t16.5 -18q38 41 138 134q117 -12 196 -24q-154 -170 -258 -260h-150q-6 6 -114 108q-40 38 -92 94z" />
    <glyph glyph-name="florin" unicode="&#x192;" horiz-adv-x="1070" 
d="M966 1128q-58 27 -100 28q-133 0 -162 -218l-12 -112h222v-144h-238l-50 -420q-23 -193 -88 -282q-78 -112 -234 -112q-91 1 -146 32l30 144q48 -19 90 -20q83 5 120 70q36 64 52 218l42 370h-158v134l132 10h42l12 96q20 202 96 294q78 94 240 94q79 0 152 -32z" />
    <glyph glyph-name="uni0401" unicode="&#x401;" horiz-adv-x="956" 
d="M836 336q0 -83 -10 -264q-417 -34 -716 -46q0 166 -1 245q0 31 -0.5 69.5t-1 64.5t-0.5 43q-1 39 -1 72q0 182 8 478q6 248 16 348l8 114q398 26 742 26q6 -146 -6 -270q-126 -7 -384 -28l-22 -322q229 10 356 10q4 -213 4 -248l-370 -36q-8 -178 -8 -264q32 0 228 5
q131 3 158 3zM448 1722q-6 -57 -46 -88q-41 -32 -102 -32q-60 0 -98 36q-38 35 -34 92q1 49 40 84q42 36 102 36q61 0 104 -40q40 -37 34 -88zM844 1696q-5 -56 -48 -86q-40 -28 -106 -28q-60 0 -96 36t-34 90q5 50 46 84q41 32 104 32q55 0 96 -38q42 -36 38 -90z" />
    <glyph glyph-name="uni0402" unicode="&#x402;" horiz-adv-x="1340" 
d="M632 784q64 44 138 66q62 14 146 12q81 -1 178 -62q64 -38 108 -108q42 -68 68 -166q24 -92 20 -202q-5 -114 -38 -218q-36 -110 -108 -216t-186 -192q-16 11 -80 64q-6 5 -34 28q-29 22 -40 34q-59 53 -72 64q53 47 94 108q38 57 68 130q34 78 40 182q10 143 -34 216
q-43 73 -124 78q-38 0 -66 -16q-30 -17 -46 -44q-21 -38 -28 -66q-8 -40 -12 -84q-2 -34 -2 -102q0 -35 -1 -62t-1 -60q-2 -62 -2 -148l-336 -26l-6 1148l-248 -10q-2 48 -2 108q0 25 1 46t1 48q0 50 6 86q33 2 394 22q215 12 430 10q7 -41 12 -92q1 -46 0 -88
q-2 -33 -6 -92l-228 -24z" />
    <glyph glyph-name="uni0404" unicode="&#x404;" horiz-adv-x="1160" 
d="M1080 626q2 -150 -28 -272q-30 -121 -94 -198q-124 -166 -374 -166q-135 0 -244 58q-89 49 -160 158q-30 55 -48 110q-24 73 -30 122q-26 118 -26 278q0 105 14 194q16 95 42 178q54 175 180 272q122 110 296 110q244 0 344 -144q51 -67 76 -178q22 -94 18 -244l-328 -14
q4 132 -24 202t-86 70q-66 0 -108 -82q-47 -89 -60 -224q36 0 100 -4q48 -2 104 -2q2 -18 2 -40v-46v-64q0 -42 2 -90l-190 -10v4l-20 -4q1 -28 14 -104q1 -15 6 -32q1 -5 4 -15.5t5 -16.5q1 -5 3.5 -13t3.5 -11q36 -118 118 -118q66 0 102 82q39 80 40 240z" />
    <glyph glyph-name="uni0406" unicode="&#x406;" horiz-adv-x="562" 
d="M114 0q0 366 6 728q6 304 14 544l4 178l336 -14q-43 -654 -48 -1436h-312z" />
    <glyph glyph-name="uni0407" unicode="&#x407;" horiz-adv-x="614" 
d="M130 0q0 366 6 728q6 364 12 544l4 178l336 -14q-43 -654 -48 -1436h-310zM266 1680q-6 -57 -46 -88q-43 -34 -104 -34q-53 0 -96 38q-38 35 -34 92q1 49 40 84q40 34 100 34q65 0 106 -38q40 -37 34 -88zM662 1652q-5 -56 -48 -86q-40 -28 -106 -28q-60 0 -96 36
q-38 38 -36 92q1 46 48 82q43 34 104 34q53 0 96 -40q42 -36 38 -90z" />
    <glyph glyph-name="uni0408" unicode="&#x408;" horiz-adv-x="846" 
d="M720 1452v-256q0 -252 -2 -410q-5 -180 -6 -304q-6 -130 -30 -214q-24 -87 -66 -146q-85 -117 -256 -128q-77 -4 -134 4q-56 7 -110 18q-52 13 -100 32v292l9 -3t11 -3.5t10 -3.5q34 -11 66 -16q47 -10 98 -4q44 5 74 18q34 24 52 52q20 32 26 68q19 79 20 146q0 4 3 44
t3 60v100v128q0 30 -3 96t-3 92q0 28 -2 82q-4 61 -6 158l-2 82z" />
    <glyph glyph-name="uni0409" unicode="&#x409;" horiz-adv-x="1736" 
d="M1734 418q-12 -211 -232 -314q-114 -56 -282 -80q-165 -24 -390 -20h-72l2 458v670l-84 -10q-16 -114 -56 -322q0 -4 -3 -18.5t-10.5 -49.5t-14.5 -68q-20 -94 -32 -136q-15 -55 -36 -124q-19 -62 -38 -102q-48 -103 -98 -172q-48 -66 -88 -106q-44 -44 -88 -68l-216 198
q45 36 84 92q36 50 78 132q41 78 84 208q41 126 66 266q26 136 44 266q22 145 36 284l716 46l-6 -620h18q160 4 266 -24q113 -29 176 -68q33 -22 58 -42q28 -24 42 -44q44 -52 60 -108q11 -38 16 -82v-42zM1372 426q6 32 0 62q-12 80 -186 86q-42 2 -80 0v-142q0 -10 -1 -19
t-1 -21v-44v-56q233 7 268 134z" />
    <glyph glyph-name="uni040A" unicode="&#x40a;" horiz-adv-x="1720" 
d="M1682 436q-16 -210 -232 -310q-71 -33 -172 -58q-88 -21 -222 -32v-4h-36q-71 -4 -110 -6q-48 -2 -118 2h-72l4 364l-4 164q-98 -6 -164 -12q-2 0 -53 -5q-31 -3 -41 -3l-8 -540l-336 -16q-2 134 -2 308v336q1 439 14 748l356 6l-18 -546l252 14v598l366 12
q-11 -149 -12 -296q-1 -99 -6 -304v-18h6q156 2 260 -24q111 -29 174 -68q31 -17 56 -42q11 -11 22 -20q13 -10 22 -22q37 -48 54 -104q19 -64 20 -80v-42zM1326 442q6 36 0 60q-12 80 -188 86q-36 4 -78 0v-138v-82v-56q230 11 266 130z" />
    <glyph glyph-name="uni040B" unicode="&#x40b;" horiz-adv-x="1200" 
d="M1106 622q6 -23 12 -64q3 -18 8 -94q1 -17 3 -53q1 -23 1 -53q2 -50 2 -112q2 -106 -2 -278l-344 -18q2 94 2 196v78v74v64q0 27 -4 48q-6 63 -28 120q-23 57 -80 64h-4q-32 -5 -50 -18q-21 -18 -28 -36q-13 -30 -14 -42q-4 -28 -4 -38q0 -130 -2 -196t-2 -106v-144
l-344 -18q-2 66 -2 328v704v102l-244 -8q-2 94 -2 180q0 34 6 112q237 14 460 20q294 8 366 8q18 -102 0 -276l-226 -18q-4 -124 -4 -194q0 -76 -4 -176q4 4 15 10q13 8 21 12q37 22 44 24q55 27 108 34q65 10 136 -14q69 -18 122 -72q52 -55 82 -150z" />
    <glyph glyph-name="uni040F" unicode="&#x40f;" horiz-adv-x="1340" 
d="M1220 60q-5 0 -22 -1.5t-45 -4t-57 -4.5q-19 -1 -68 -6t-68 -6l-77 -7q-85 -7 -87 -7v-272q-40 -6 -84 -12q-10 0 -40 -3q-8 -1 -24.5 -2.5t-23.5 -2.5q-57 -4 -104 -4v60q0 21 -1 39t-1 41t-1 41t-1 39q0 35 -4 56q-70 -4 -160 -12q-15 -1 -132 -10q-16 0 -47 -3t-43 -3
q-34 0 -34 4q-6 126 -6 266q0 166 2 342q2 40 2 98v118v124q0 60 2 100q0 50 2 88t2 76l6 220l342 14l-8 -474v-524l6 -122l416 44l4 238q6 144 6 152q0 88 2 150l6 126l4 424l342 16q2 -136 2 -314v-340q-2 -234 -2 -442q0 -60 -6 -300z" />
    <glyph glyph-name="uni0410" unicode="&#x410;" horiz-adv-x="1148" 
d="M1132 64l-336 -38l-44 264q-244 -6 -376 -18l-72 -276l-332 16q91 358 196 696q115 374 180 550l68 190l448 18q71 -406 112 -616q65 -335 112 -570zM608 1048q-108 -330 -152 -512q139 0 240 8q-3 12 -10 49l-16 88q-2 11 -9 49t-11 58q-31 173 -42 260z" />
    <glyph glyph-name="uni0411" unicode="&#x411;" horiz-adv-x="1118" 
d="M1084 430q-12 -215 -242 -322q-231 -112 -688 -106h-76l30 1448q25 4 64 4q24 0 43 1t45 1q25 0 44 1t42 1h62q57 2 308 8q128 2 294 2q0 -47 -4 -132q-2 -69 -12 -154q-74 0 -164 -6q-162 -12 -200 -16l-174 -14v-58q0 -32 -2 -56q-2 -38 -2 -88q0 -25 -1 -46t-1 -48
q158 2 272 -26q102 -24 182 -70q28 -16 56 -44l46 -46q44 -52 60 -108q14 -52 18 -84v-42zM708 436q6 38 0 62q-8 86 -192 90q-36 2 -80 0v-146v-86v-56q242 12 272 136z" />
    <glyph glyph-name="uni0412" unicode="&#x412;" horiz-adv-x="1144" 
d="M884 720q218 -71 206 -304q-12 -213 -234 -316q-225 -108 -672 -100h-74l32 1430q126 12 264 6q357 -12 526 -120q168 -108 168 -272q0 -123 -62 -208q-65 -85 -154 -116zM752 994q2 74 -63 111q-64 37 -199 39q-16 -150 -18 -318q135 11 202 54q72 48 78 114zM458 288
q240 11 270 136q6 36 0 60q-12 82 -190 88q-36 4 -78 0v-142v-84v-27q0 -16 -1 -21t-1 -10z" />
    <glyph glyph-name="uni0413" unicode="&#x413;" horiz-adv-x="890" 
d="M444 18q-60 -4 -92 -6q-26 -2 -48 -2q-9 0 -15 -1t-11 -1h-26q-18 0 -48 -2q-12 -1 -44 -3q-21 -1 -48 -1q0 101 -1 182q-1 122 -3 168q-2 110 -2 150q0 98 2 204q5 125 6 278q1 16 2.5 55.5t2.5 52.5q3 66 3 88q2 30 12 156l8 114q214 15 398 22q194 6 368 6
q4 -74 0 -144q-5 -105 -8 -130q-28 -1 -94 -6q-68 -5 -92 -6q-99 -6 -220 -18l-30 -602q-2 -18 -3 -61q-1 -29 -1 -65q-1 -49 -6 -164q-2 -84 -6 -156q-4 -85 -4 -108z" />
    <glyph glyph-name="uni0414" unicode="&#x414;" horiz-adv-x="1192" 
d="M1136 328q-4 -57 -4 -124q0 -61 -4 -142q-2 -72 -2 -170q-11 -1 -80 -10q-8 0 -37 -3q-7 -1 -17 -2t-17.5 -2t-12.5 -1q-96 -6 -100 -6q0 20 -2 44t-2 60q0 24 -4 60q-2 26 -2 48q-53 -2 -154 -6q-78 -2 -132 -6q-111 -5 -136 -8q-23 -3 -61 -5q-18 -1 -41 -3t-28 -2
l4 -162q-28 -7 -70 -14q-84 -14 -204 -20q-2 30 -8 164q-2 72 -2 146q0 63 4 144l4 -4l-4 4q8 2 22 2h22q16 0 30 2q10 16 48 84q41 71 82 226q26 104 56 256q17 88 44 258q21 130 38 280l686 60l-10 -1140q28 -4 54 -4q27 0 38 -4h2zM432 332q38 2 84 2t84 2h120v822
l-78 -8q-24 -158 -54 -302q-24 -123 -26 -128q-16 -69 -32 -128q-18 -61 -36 -116q-13 -39 -38 -98l-12 -24q-7 -15 -12 -22z" />
    <glyph glyph-name="uni0415" unicode="&#x415;" horiz-adv-x="918" 
d="M840 336q0 -134 -8 -264q-408 -34 -718 -46q0 166 -1 245q0 31 -0.5 69.5t-1 64.5t-0.5 43q-1 39 -1 72q0 182 8 478q4 142 18 348l6 114q398 26 742 26q6 -146 -6 -270q-126 -7 -384 -28l-20 -322q229 10 354 10q0 -30 2 -112q4 -111 4 -136l-372 -36q-8 -178 -8 -264
q32 0 228 5q131 3 158 3z" />
    <glyph glyph-name="uni0416" unicode="&#x416;" horiz-adv-x="1800" 
d="M1430 1468l344 -58q-68 -114 -116 -186q-90 -140 -104 -164q-69 -113 -92 -152q-56 -99 -82 -156q14 -28 30 -59q30 -58 38 -75q36 -74 80 -154q26 -46 96 -162q42 -69 108 -160l-310 -128q-64 88 -98 144q-24 39 -47.5 77.5t-35.5 58t-15 24.5q-40 69 -92 166
q-46 84 -90 162l10 -640l-344 -18q-18 673 -18 1234l4 252l364 -10q0 -9 -2 -69q0 -14 -4 -67q-4 -91 -6 -140q-2 -64 -2 -154q0 -46 -1 -86t-1 -94zM356 20l-344 56q2 4 49 82q28 47 61 100q78 127 94 154q42 72 82 146q42 76 78 152q-10 18 -33 63q-6 12 -19 37.5
t-18 35.5l-49 91q-9 16 -18.5 34t-13.5 25.5t-5 9.5q-25 47 -98 168q-39 62 -110 162l308 128q57 -75 102 -146q56 -89 100 -168q25 -46 48 -86t48 -86q12 -24 50 -90l40 -70v-214z" />
    <glyph glyph-name="uni0417" unicode="&#x417;" horiz-adv-x="992" 
d="M150 1434q88 8 190 8q98 0 212 -14q202 -34 294 -132q97 -103 98 -220q2 -61 -14 -122q-17 -60 -44 -104q-30 -46 -70 -80q-46 -38 -84 -54q114 -47 166 -128q57 -87 58 -202q4 -124 -78 -218q-85 -98 -228 -146q-77 -24 -158 -30q-84 -6 -166 0q-54 4 -150 24
q-22 5 -120 34q7 44 28 118q25 82 72 172q7 -4 48 -22q32 -13 78 -26q51 -15 92 -16q48 -4 90 8q47 13 72 38q30 30 38 56q10 33 4 66q-6 32 -30 60q-30 33 -54 46q-36 20 -70 32q-36 12 -74 18q-40 6 -76 6q-2 42 0 84t6 72q0 4 1 9.5t2 13.5t2 14q3 23 3 31q55 5 80 10
q51 13 76 22q34 12 78 40q39 26 52 56q16 35 16 62q0 32 -18 58q-19 29 -50 46q-48 23 -140 28q-84 2 -196 -8q-14 61 -18 86q-9 74 -10 96q-2 20 -8 108z" />
    <glyph glyph-name="uni0418" unicode="&#x418;" horiz-adv-x="1230" 
d="M1180 1496q-9 -241 -10 -312q-2 -107 -6 -316q0 -52 -2 -100t-2 -122q-2 -58 -2 -122q0 -47 -4 -104v-168l-4 -244h-342l14 714v10l-2 4v4v14q-20 -52 -80 -194l-90 -204q-6 -14 -24.5 -54t-28.5 -63q-36 -81 -39 -85q-15 -35 -45 -95t-45 -95l-4 30v-20l-350 -20v324
q0 93 -1 171t-1 179q5 537 12 784l374 6l-20 -572q-2 -32 -2 -72v-78l322 788l2 -4v2z" />
    <glyph glyph-name="uni0419" unicode="&#x419;" horiz-adv-x="1216" 
d="M1172 1496q-9 -241 -10 -312q-2 -107 -6 -316q0 -52 -2 -100q-4 -64 -4 -122q-2 -58 -2 -122q0 -47 -4 -104v-168l-2 -244h-342l14 714v10l-2 4v4v14q-20 -52 -80 -194l-90 -204q-6 -14 -24.5 -54t-28.5 -63q-36 -81 -39 -85q-15 -35 -45 -95t-45 -95l-4 30v-20l-350 -20
v324q0 93 -1 171t-1 179q5 537 12 784l374 6l-22 -572q-2 -32 -2 -72v-78l324 788l2 -4v2zM866 1742v-160l-510 -40q-4 60 -4 92q-2 2 0 34v32q0 31 4 42h510z" />
    <glyph glyph-name="uni041A" unicode="&#x41a;" horiz-adv-x="1150" 
d="M834 1480l336 -54q-218 -360 -388 -714q120 -237 344 -538l-302 -126q-191 251 -368 560l8 -570l-334 -16q-20 728 -20 1208l2 244l360 -6q-16 -284 -16 -652z" />
    <glyph glyph-name="uni041B" unicode="&#x41b;" horiz-adv-x="1126" 
d="M-20 152q40 32 82 90q35 48 78 130q46 91 82 204q40 134 64 260q33 169 44 262q19 137 32 282l710 80l-16 -1430l-326 -32v1116l-82 -10q-24 -164 -54 -318q-1 -6 -4.5 -21.5t-10 -47.5t-13.5 -63q-1 -6 -7 -30t-10 -41q-11 -45 -15 -63q-5 -26 -36 -122
q-20 -60 -38 -102q-47 -103 -96 -170q-48 -66 -86 -102q-40 -40 -86 -64z" />
    <glyph glyph-name="uni041C" unicode="&#x41c;" horiz-adv-x="1554" 
d="M1154 1000q-43 -168 -98 -410q-74 -333 -92 -396q-112 -20 -306 -32q-106 330 -226 766q-8 -481 2 -922l-338 -16q-12 690 18 1434q201 0 500 -28q101 -503 190 -722q94 336 168 790h248q34 0 67 1t79 1h104q28 -422 12 -1440l-316 -12q0 680 -12 986z" />
    <glyph glyph-name="uni041D" unicode="&#x41d;" horiz-adv-x="1140" 
d="M714 858v612l372 10q-10 -339 -16 -610q-4 -92 -6 -216q0 -63 -1 -114q-1 -76 -3 -108q-2 -80 -2 -164l-2 -240h-334l-6 534q-192 -13 -266 -20l-8 -550l-340 -16q-4 359 -4 654q1 521 12 766l366 6l-18 -558z" />
    <glyph glyph-name="uni041E" unicode="&#x41e;" horiz-adv-x="1134" 
d="M1096 742q-5 -156 -38 -294q-30 -131 -92 -240q-60 -103 -164 -162q-104 -61 -240 -62q-181 0 -296 94q-112 91 -160 248q-44 143 -40 358q5 224 56 394q49 167 174 280q120 108 300 108q260 0 382 -192q126 -199 118 -532zM746 730q6 186 -24 302q-30 114 -116 114
q-82 4 -130 -126q-52 -137 -58 -338q-4 -182 32 -290q36 -112 118 -112q160 4 178 450z" />
    <glyph glyph-name="uni041F" unicode="&#x41f;" horiz-adv-x="1186" 
d="M1108 1390q4 -135 4 -240q0 -95 -4 -294v-220q-2 -58 -2 -120q0 -45 -4 -102v-164l-8 -222l-342 -14l10 478q-2 90 -2 200v324l-4 114l-280 -18l-12 -282q-2 -64 -2 -154q0 -12 -6 -150l-2 -124v-2l-6 -424l-340 -20q-6 304 -6 658q5 275 6 458q4 188 6 312h2v36
q267 18 496 30q156 9 182 10q13 1 44.5 2.5t43.5 2.5q54 3 70 3q62 2 112 2q42 0 42 -2v-24q0 -28 2 -54z" />
    <glyph glyph-name="uni0420" unicode="&#x420;" horiz-adv-x="1006" 
d="M80 14l30 1448q130 10 236 0q369 -17 526 -144q158 -126 158 -332q0 -197 -140 -334q-137 -134 -454 -164q-8 -174 -12 -466zM690 960q6 88 -48 142t-178 58l-20 -386q109 1 176 56q69 53 70 130z" />
    <glyph glyph-name="uni0421" unicode="&#x421;" horiz-adv-x="1086" 
d="M578 302q66 0 102 76q32 74 36 240l344 10q4 -302 -118 -464t-372 -162q-134 0 -240 58q-100 54 -156 158t-80 226q-24 124 -24 276q0 204 54 368q53 164 178 270q127 106 294 106q242 0 340 -140q102 -140 92 -422l-326 -12q6 268 -106 268q-161 0 -172 -440
q-1 -190 36 -304q37 -112 118 -112z" />
    <glyph glyph-name="uni0422" unicode="&#x422;" horiz-adv-x="906" 
d="M34 1146q-6 216 2 292q467 28 828 28q20 -104 2 -276l-224 -16q-10 -302 -12 -528q0 -145 -1 -219q0 -28 -0.5 -87.5t-1.5 -80.5q-1 -38 -1 -79v-174l-346 -14q-2 134 -2 1060v104z" />
    <glyph glyph-name="uni0423" unicode="&#x423;" horiz-adv-x="1102" 
d="M-20 1392l386 22l204 -556l192 614l342 -42q-22 -59 -89 -236q-66 -174 -81 -214l-66 -174q-4 -11 -64 -162q-6 -14 -26 -70q-16 -46 -24 -66l-36 -84q-2 -4 -15 -34.5t-23 -54.5q-22 -53 -36 -83q-24 -56 -50 -88q-10 -19 -80 -92q-53 -56 -164 -116q-32 39 -56 82
q-8 16 -24 45q-3 5 -24 43q-16 32 -25 49t-25 51q35 21 56 38q20 12 42 34l28 28q3 2 22 34q8 12 26 52l32 64z" />
    <glyph glyph-name="uni0424" unicode="&#x424;" horiz-adv-x="1686" 
d="M1618 1000q15 -63 20 -114q6 -60 6 -126q0 -176 -54 -318q-56 -152 -174 -236q-56 -40 -122 -64q-73 -27 -138 -28q-88 0 -146 36l-2 -178l-336 -16q-4 43 -4 72v72h-2h2v6l-16 -6l-16 -8q-7 -4 -10 -4q-6 0 -12 -2l-4 -2q-4 -1 -7 -2q-6 -1 -9 -4l-18 -6q-12 0 -34 -6
q-5 0 -10 -1t-10 -1h-20h-56q-85 12 -152 44q-48 24 -86 56q-34 28 -68 80q-27 55 -44 94q-25 63 -32 104q-28 106 -28 240q0 87 16 168q18 97 42 152q25 71 70 130q41 55 102 104q64 46 136 70t158 24h36q27 -10 32 -10q9 -1 46 -14v84q0 8 6 68l358 6l-2 -118q21 6 70 18
q41 10 86 10q50 0 104 -12q72 -18 114 -38q78 -47 130 -128q55 -85 78 -196zM550 320q38 0 62 2q22 1 54 20v232q2 88 2 202v202v2v4l4 2v64q-42 28 -88 26q-47 -5 -80 -26l-24 -20q-16 -12 -24 -26q-19 -26 -32 -68q-19 -61 -24 -110q-9 -91 -10 -146q-2 -78 8 -150
q7 -51 26 -114q19 -44 44 -68q27 -27 60 -28h14h8zM1294 760q0 171 -38 268q-35 87 -100 94q-33 8 -70 4q-32 -2 -56 -12l-6 -340q-1 -19 -3 -65q-1 -30 -1 -67q0 -39 -1 -68q-1 -44 -3 -66l2 -2q-2 -8 -2 -26l-4 -86q34 -15 68 -16q31 -2 70 8q10 0 18 2q5 0 9 4t7 4
q103 66 110 364z" />
    <glyph glyph-name="uni0425" unicode="&#x425;" horiz-adv-x="1176" 
d="M816 1504l344 -38l-402 -706q121 -213 176 -302q32 -49 78 -124q18 -32 42 -69q26 -40 26 -41l52 -80l-352 -66q-171 281 -232 394l-258 -444l-312 58l384 670l-350 644l378 16q129 -290 172 -372q171 299 254 460z" />
    <glyph glyph-name="uni0426" unicode="&#x426;" horiz-adv-x="1214" 
d="M1186 152q-2 -50 -2 -112v-98v-94q-22 -4 -82 -12q-6 0 -37 -3q-10 -1 -26.5 -2.5t-22.5 -2.5q-57 -4 -102 -4q-2 12 -3 42q-1 20 -1 44q-4 76 -6 108q-79 -4 -122 -6q-24 0 -63 -4t-63 -4q-7 0 -27.5 -2t-34.5 -3q-40 -3 -60 -3q-32 0 -56 -1q-36 -1 -54 -3l-352 -22
q-4 60 -6 126q-4 79 -4 138v156q0 94 2 180q4 48 2 94q-2 45 2 118v122q0 47 4 100q2 40 2 84v74l4 216l338 14l-10 -462v-518l8 -106l274 18l10 272h-4q6 144 6 150q0 86 2 144h2v128l6 418l336 14q4 -177 4 -310v-334q0 -144 -2 -246q0 -59 -1 -105q-2 -70 -3 -101l116 8
q6 0 10 1t8 1q10 0 18 -2h2z" />
    <glyph glyph-name="uni0427" unicode="&#x427;" horiz-adv-x="1044" 
d="M60 1444l346 10q-2 -86 -6 -182q-4 -89 -4 -148q0 -78 2 -112q2 -68 32 -118q28 -48 92 -58q26 -2 52 -2h34h24l12 558l374 14l-38 -1400l-354 -20l6 550q-72 0 -140 6q-10 0 -36 2q-10 1 -44 5q-8 1 -20.5 2.5t-17.5 2.5q-47 4 -94 24q-69 30 -122 80q-50 48 -84 144
q-4 20 -12 66q0 6 -6 88q-2 42 -2 104v112q0 128 6 272z" />
    <glyph glyph-name="uni0428" unicode="&#x428;" horiz-adv-x="1664" 
d="M1622 804q0 -125 -1 -223q-1 -146 -3 -211q-2 -182 -6 -300v-32q-508 -28 -764 -44q-15 -1 -62 -3.5t-76 -3.5q-93 -4 -142 -9q-16 -1 -244 -14q-7 0 -172 -8q-66 -4 -66 4q-6 246 -6 264q0 105 4 336q0 46 -2 94q-2 45 2 118v118q0 29 1 52t1 48q4 53 4 84v74l4 216
l336 14l-8 -462v-196v-170q0 -48 1 -81t1 -67l4 -134l252 20v142q0 84 2 166q0 24 -1 45t-1 49q0 58 2 114q0 72 2 120t2 100q2 40 2 84v78l6 214l336 14l-10 -464q0 -108 2 -194v-170q0 -48 1 -81t1 -67l2 -120l236 18l6 262v-2q1 24 3 74q1 33 1 76q0 42 1 74q1 48 3 72
l4 124l4 418l336 14q2 -130 2 -308v-336z" />
    <glyph glyph-name="uni0429" unicode="&#x429;" horiz-adv-x="1852" 
d="M1826 158q-2 -54 -2 -116q0 -31 -1 -54t-1 -48v-98q-4 0 -84 -10q-8 0 -39 -3q-8 -1 -26 -2.5t-25 -2.5q-60 -4 -104 -4q-1 12 -3 44q-1 21 -1 48q0 31 -1 56q-1 38 -3 54q-250 -12 -276 -14q-55 -5 -157 -9q-29 -1 -82 -3.5t-71 -3.5q-158 -9 -312 -16
q-219 -10 -268 -10q-121 -5 -190 -6q-72 -4 -72 0q-6 126 -6 270q0 168 2 344q2 38 2 96q0 31 -1 58t-1 62q2 62 2 124q0 60 2 100q2 42 2 86v80l8 220l344 14l-8 -478v-198q0 -47 1 -86t1 -88v-150l4 -142l254 20v148q0 59 4 170q4 49 2 98q-2 48 -2 120q0 10 3 55t3 67
q0 45 4 102v86q0 22 1 39t1 37l6 222l342 16l-10 -476v-526l4 -132l240 16l12 278q2 64 2 152q0 14 6 152l2 126v2l6 424l340 18q2 -53 3 -157q1 -70 1 -159q2 -146 2 -342q-6 -270 -6 -470l118 10l18 6h14h8z" />
    <glyph glyph-name="uni042A" unicode="&#x42a;" horiz-adv-x="1124" 
d="M1110 442q-12 -214 -234 -316q-103 -49 -278 -78q-160 -26 -392 -22h-70l24 1148l-222 -8v178q0 63 4 110q7 0 28 2t35 3q41 3 59 3l114 6v-2q12 2 40 3q19 1 42 1q24 2 54 2t54 2q23 2 68 3q31 1 70 1q-2 -153 -6 -292q0 -30 -1 -55t-1 -57q0 -31 -1 -54t-1 -48t-1 -43
t-1 -37v-44q158 4 264 -24q117 -30 178 -66q6 -4 31 -23q19 -15 27 -21q30 -23 42 -44q45 -57 58 -106q11 -38 16 -82v-40zM748 448q6 32 0 60q-7 81 -186 86q-40 6 -76 0v-142v-36q0 -16 -4 -44v-56q236 8 266 132z" />
    <glyph glyph-name="uni042B" unicode="&#x42b;" horiz-adv-x="1522" 
d="M1032 400q-12 -208 -232 -314q-219 -110 -674 -100h-70l14 1442q9 0 16 1q4 1 13.5 1.5t14.5 0.5q12 1 32 1q19 1 59 3q26 1 59 1q26 2 78 3q35 1 80 1q0 -83 -1 -149q-1 -98 -3 -145q0 -30 -1 -54t-1 -56t-1 -55t-1 -49v-78v-46q160 4 266 -24q113 -29 176 -68
q64 -41 100 -86q48 -54 60 -106q15 -65 16 -82v-42zM672 408q2 32 0 60q-16 82 -188 88q-42 4 -78 0v-142v-84q-4 -28 -4 -38v-18q240 7 270 134zM1130 1468l338 16q6 -300 6 -654q0 -129 -1 -232q-1 -154 -3 -222q0 -37 -2 -113l-4 -114q-2 -76 -2 -83l-362 -4l14 556
q4 85 4 152q0 69 4 150l2 122v4z" />
    <glyph glyph-name="uni042C" unicode="&#x42c;" horiz-adv-x="1088" 
d="M1062 454v-20q0 -12 -2 -20q-11 -210 -232 -318q-233 -108 -676 -100h-76l16 1452q26 0 76 2q19 1 59 3q26 1 59 1q77 5 158 6q-2 -144 -2 -294v-114q0 -29 -1 -52t-1 -50v-80v-42q157 2 268 -28q116 -32 172 -68q40 -21 64 -42q32 -30 44 -44q41 -48 58 -106
q11 -38 16 -86zM696 420q8 32 0 62q-12 84 -190 88q-36 6 -78 0v-144v-82v-38q0 -2 -2 -16v-4q239 11 270 134z" />
    <glyph glyph-name="uni042D" unicode="&#x42d;" horiz-adv-x="1096" 
d="M1036 1076q46 -159 28 -368q-5 -91 -14 -144q-12 -60 -28 -128q-13 -63 -42 -122q-39 -83 -54 -106q-66 -100 -168 -156q-54 -30 -114 -42q-73 -14 -128 -14q-248 0 -362 162q-114 158 -92 458l346 -10q-5 -102 0 -140q6 -57 22 -96q30 -78 98 -78q80 0 124 114
q16 34 24 72q8 39 18 88l-8 4v-4l-186 4q0 6 5 104q3 62 3 72q0 1 1 13t3 41t4 60h192q-8 284 -146 284q-116 0 -124 -266l-330 10q5 152 32 246q29 100 86 174q58 70 144 106q89 36 212 36q179 0 294 -106q56 -51 98 -120q36 -62 62 -148z" />
    <glyph glyph-name="uni042E" unicode="&#x42e;" horiz-adv-x="1538" 
d="M1400 1262q61 -103 86 -222q25 -126 24 -286q0 -65 -10 -138q0 -4 -28 -140q-24 -119 -86 -228q-58 -100 -156 -156q-48 -30 -106 -42q-73 -16 -124 -18q-172 0 -280 90q-105 90 -152 238q-15 49 -22 86q-10 46 -12 96l-60 4v-4l-68 4q4 -47 4 -70v-60l14 -410l-342 -20
q-1 112 -6 256q-4 136 0 326q4 48 2 92t2 114v114q0 29 1 50t1 46q2 40 2 84v72l6 212l326 10l-10 -450v-86h98h30q2 44 18 128q7 39 32 122q48 162 166 268q116 104 284 104q126 0 216 -48q92 -50 150 -138zM1178 744q4 94 -2 162q-6 78 -20 128q-24 106 -112 106
q-80 0 -122 -120q-52 -126 -58 -322q-4 -184 30 -276q20 -50 48 -78q26 -26 66 -26q152 0 170 426z" />
    <glyph glyph-name="uni042F" unicode="&#x42f;" horiz-adv-x="1140" 
d="M758 14v116q0 19 -1 33t-1 31v50v106v88v88q-10 0 -12 2h-8h-2q-2 2 -4 2h-8q-6 0 -8 2t-6 2h-8q-12 0 -14 2q-1 -2 -10.5 -17t-33.5 -54.5t-48 -78.5q-9 -16 -31 -50q-5 -8 -11 -17l-14 -21t-13 -19q-8 -12 -19 -28t-14 -21q-16 -25 -104 -148q-44 -63 -98 -130
l-310 100q8 10 48 66q13 18 33.5 47t28.5 39q4 8 52 74q47 66 56 80q67 99 94 146q69 118 74 128q-208 118 -208 366q0 422 692 440q78 4 130 2q66 -5 112 -6l-4 -1164v-268q-120 0 -330 12zM566 860q66 -42 184 -54q0 28 -1 56t-1 72v198q-131 4 -186 -34q-62 -44 -62 -122
q0 -74 66 -116z" />
    <glyph glyph-name="uni0430" unicode="&#x430;" horiz-adv-x="940" 
d="M856 30l-292 -6q-4 53 -4 86q-88 -70 -234 -70q-144 0 -230 80t-86 200q0 130 86 214q85 82 268 82q134 0 206 -34v54q0 162 -90 162q-88 0 -112 -108l-278 20q12 160 112 254q98 92 266 92q208 0 306 -108q100 -112 100 -358q0 -175 -4 -286q-2 -51 -6 -124
q0 -25 -1 -38q0 -5 -0.5 -16t-1.5 -15q-1 -7 -1 -15zM532 270q34 30 34 66t-36 60q-28 22 -90 22q-64 0 -90 -26q-28 -28 -28 -64q0 -38 28 -60q26 -24 90 -24q63 0 92 26z" />
    <glyph glyph-name="uni0431" unicode="&#x431;" horiz-adv-x="970" 
d="M864 898q88 -142 82 -366q0 -46 -2 -80q-5 -53 -10 -74q-13 -73 -34 -132v-4q-17 -37 -52 -96q-29 -49 -62 -76q-41 -35 -92 -54q-54 -22 -134 -24h-74h-12h-14q-2 2 -16 2h-2q-6 0 -10 4h-10q-2 2 -12 2q-6 0 -10 4q-6 0 -8 2q-8 0 -10 2t-8 2q-85 30 -138 92
q-50 58 -86 134q-34 73 -48 142q-11 56 -16 118q0 24 -2 46t-2 48q-4 213 32 366q37 162 94 268q60 112 140 180q87 75 166 110q43 20 116 32q72 12 148 18q107 8 140 8q72 0 104 -2q0 -8 -10 -92q0 -5 -1.5 -12t-3 -17.5t-2.5 -18.5q-5 -35 -5 -38q-5 -40 -16 -88
q-134 4 -186 0q-82 -6 -144 -30t-108 -72q-54 -56 -84 -126q-8 -20 -14 -50q-9 -43 -10 -56q72 72 176 72q166 0 250 -144zM614 524q10 220 -108 220q-58 0 -88 -70q-14 -37 -20 -72q-4 -23 -4 -74q-4 -42 0 -70q4 -32 4 -38q10 -148 98 -148q112 0 118 252z" />
    <glyph glyph-name="uni0432" unicode="&#x432;" horiz-adv-x="956" 
d="M720 816q46 -27 82 -66q37 -38 62 -104q22 -52 28 -140q6 -76 -16 -166q-36 -168 -128 -254q-87 -81 -220 -92q-156 -10 -256 54t-154 168q-28 47 -46 156q-16 87 -16 228q0 126 24 258q24 135 78 250q53 117 130 194q76 76 156 112q86 39 164 40q79 2 150 -22
q66 -22 102 -72q34 -47 46 -98q10 -47 4 -110q-5 -43 -24 -104q-14 -45 -42 -88q-32 -51 -56 -76q-32 -36 -68 -68zM562 418q4 48 0 94q-5 49 -20 76q-19 33 -58 40q-43 10 -116 -14q-3 -18 -8 -98q-2 -38 -2 -88q0 -51 8 -88q10 -64 40 -86q29 -20 68 -14q26 4 54 42
q28 40 34 136zM612 1086q8 33 2 60q-6 22 -28 38q-17 12 -48 2q-26 -8 -60 -48t-52 -96q-21 -67 -28 -112q-17 -89 -18 -136q48 25 86 58q44 39 70 74q29 36 48 82q22 54 28 78z" />
    <glyph glyph-name="uni0433" unicode="&#x433;" horiz-adv-x="722" 
d="M116 1084q16 -1 61 -2.5t73 -2.5q85 -3 122 -3q17 -1 53 -3q23 -1 53 -1q29 0 51 -1q32 -1 49 -3q34 -2 88 -6q20 0 35 -1q23 -1 33 -3q0 -98 -6 -166q0 -3 -2 -17.5t-5.5 -41.5t-6.5 -57h-90q-24 0 -43 1t-47 1h-104q0 -46 -1 -81q-2 -54 -3 -79q0 -26 -1 -42
q0 -7 -0.5 -20.5t-1.5 -18.5q-1 -10 -1 -23q-4 -85 -4 -138q0 -70 -2 -124q0 -46 -2 -84t-2 -90v-62q-62 0 -158 4q-52 1 -166 6q0 146 2 264l4 268q1 18 2.5 62.5t2.5 63.5q3 78 3 100q2 56 3 99q1 29 1 65z" />
    <glyph glyph-name="uni0434" unicode="&#x434;" horiz-adv-x="1016" 
d="M612 952q-2 26 -2 82q105 0 156 -1q20 0 44.5 -0.5t41 -1t27.5 -0.5q25 -1 47 -1q-22 -601 -28 -968q-6 -228 -112 -340q-104 -110 -278 -110q-123 0 -306 62v290q113 -74 230 -74q82 0 126 44q46 46 50 170q-85 -70 -202 -70q-171 0 -260 122q-86 119 -86 318
q0 235 92 384q92 152 268 152q110 0 192 -58zM612 362q0 310 -2 340q-23 44 -86 44q-70 0 -106 -68q-37 -67 -42 -164q-4 -94 30 -156q32 -68 98 -68q42 0 74 26q27 24 34 46z" />
    <glyph glyph-name="uni0435" unicode="&#x435;" horiz-adv-x="946" 
d="M490 240q74 0 98 116h36q12 0 23 -1t29 -1t31 -1t27 -1q94 -4 144 -6q-11 -136 -116 -244q-106 -108 -294 -108q-209 0 -306 130q-100 132 -98 354q1 229 118 382q120 154 334 154q176 0 268 -104q94 -106 94 -302q0 -76 -12 -160q-32 -2 -202 -12q-2 0 -8 -0.5t-18 -1
t-24 -0.5q-42 -2 -105 -6q-23 -2 -67 -4.5t-64 -3.5q0 -79 32 -132q30 -48 80 -48zM510 766q-46 0 -80 -46q-29 -41 -40 -120q125 0 216 8q0 158 -96 158z" />
    <glyph glyph-name="uni0436" unicode="&#x436;" horiz-adv-x="1646" 
d="M1234 544q40 -54 152 -182q78 -88 284 -294l-372 -64l-326 382l-10 -392q-170 0 -328 18q0 56 8 350l-306 -358l-354 64q198 216 264 294q121 141 148 182q-18 26 -54.5 76.5t-51.5 71.5q-14 19 -27 37l-19.5 27t-7.5 10q-49 65 -58 77q-20 26 -56 75q-54 78 -60 88
l320 46l32 -52l30 -44q9 -12 68 -104q5 -8 19 -26q20 -25 25 -33q5 -7 12.5 -17t9.5 -12q17 -23 41.5 -55.5t32.5 -42.5v-44v26q0 9 4 24q2 92 6 198q0 30 3 105q1 23 2.5 63.5t2.5 55.5q46 0 136 -6q5 0 41.5 -2t65.5 -3q27 -1 101 -5q-1 -11 -3.5 -46t-3.5 -54
q-1 -17 -3 -40t-3 -38t-1 -26q-9 -161 -10 -208q41 51 64 98q21 40 56 88q3 3 15 20.5t23 31.5t23 31.5t15 20.5q3 5 9 13t7 9l12 15q4 4 4 7l34 52l336 -46q-4 -7 -26 -34q-5 -5 -18 -23q-3 -4 -7 -9.5t-6.5 -9.5t-4.5 -6q-2 -3 -10 -13.5t-14 -18.5q-19 -26 -26 -34
q-2 -2 -8 -10t-12.5 -17t-14.5 -18q-28 -34 -37 -47q-7 -7 -54 -74q-43 -60 -114 -148z" />
    <glyph glyph-name="uni0437" unicode="&#x437;" horiz-adv-x="1012" 
d="M30 310l306 16q10 -34 42 -70t96 -36q22 2 52 6q19 1 48 20q21 15 34 36q12 20 12 56q0 32 -14 52q-16 22 -40 34q-32 14 -56 20q-30 6 -62 2l-68 -4v2q-2 6 -3 10t-1 10q-8 46 -8 50q0 8 -2 22t-2 24q-2 10 -2 18v10v22q111 11 174 50q66 42 62 102q0 48 -26 72
q-23 22 -66 22q-34 0 -58 -12q-28 -13 -34 -24q-23 -24 -34 -48q-18 -35 -24 -64l-272 -10v26v24q0 11 4 22q2 15 12 58q6 24 18 48q11 28 36 58q26 32 36 38q36 33 68 48q40 21 62 28q52 16 100 22q51 6 116 2q194 -6 290 -84q98 -74 94 -194q-1 -34 -16 -78
q-13 -33 -42 -64q-28 -28 -54 -46q-30 -22 -54 -28q74 -7 146 -70q60 -60 60 -168q0 -144 -130 -250q-130 -102 -346 -102q-102 0 -180 20q-68 18 -122 64q-70 54 -108 122q-38 69 -44 116z" />
    <glyph glyph-name="uni0438" unicode="&#x438;" horiz-adv-x="1160" 
d="M1100 1064q-9 -182 -10 -222q-2 -50 -2 -112t-2 -110q-4 -39 -4 -72q0 -46 -2 -88q0 -50 -2 -88t-2 -70q-2 -32 -2 -66v-56v-172h-316l12 506q0 14 2 28q0 5 1 11t1 13v16q-36 -66 -78 -144q-58 -104 -88 -162q-9 -17 -92 -160q-43 -75 -86 -142l-4 22v-16l-326 -8
q-6 216 -6 476q5 381 12 556l336 6l-22 -408v-34q0 -11 -1 -21t-1 -23v-44v-38l324 612v-2v2z" />
    <glyph glyph-name="uni0439" unicode="&#x439;" horiz-adv-x="1140" 
d="M1080 1062q0 -46 -4 -110t-4 -110q0 -45 -4 -110t-4 -112q-2 -30 -2 -72q0 -31 -4 -88v-86q0 -42 -2 -72v-122l-4 -170h-310l10 504q0 14 2 28q2 8 2 24v16q-36 -66 -78 -144q-38 -70 -88 -160q-37 -66 -90 -158q-37 -63 -86 -140l-4 18v-16l-326 -8q-2 96 -2 226v246
q5 381 12 556l334 6l-20 -406q-4 -15 -4 -34v-44v-44v-38l318 610l2 -2v2zM808 1336v-188l-474 -44q-2 50 -2 106q0 23 -1 40t-1 38q0 37 4 48h474z" />
    <glyph glyph-name="uni043A" unicode="&#x43a;" horiz-adv-x="1082" 
d="M682 530q44 -57 154 -174q84 -91 282 -286l-376 -64l-338 370l-10 -378q-64 0 -160 4q-32 1 -158 10q2 44 3 138q1 63 1 144q1 63 14 360q2 81 6 190q0 28 3 101q1 24 2.5 62.5t2.5 52.5q25 0 132 -4q90 -4 204 -12q-10 -110 -16 -196q-9 -151 -10 -200q10 10 76 94
q29 37 68 86l70 98q28 36 30 44l36 48l338 -42q-2 -3 -10 -13t-24.5 -31t-33.5 -42q-70 -90 -118 -144l-56 -72z" />
    <glyph glyph-name="uni043B" unicode="&#x43b;" horiz-adv-x="1086" 
d="M984 1070q8 -86 12 -216q5 -131 6 -332q2 -86 2 -188v-164q0 -94 -2 -164l-324 4l10 410l-4 346l-114 -20q-5 -49 -28 -190q-23 -117 -36 -170q-24 -90 -56 -158q-29 -59 -56 -92q-35 -42 -68 -72q-32 -28 -70 -54q-40 -27 -64 -38q-100 79 -144 146q-38 55 -50 84l-2 6
q54 33 88 64q37 31 68 70q34 42 48 92q23 73 46 198q22 125 28 192q10 90 20 200z" />
    <glyph glyph-name="uni043C" unicode="&#x43c;" horiz-adv-x="1356" 
d="M978 716q-26 -90 -34 -126q-16 -66 -42 -170q-4 -18 -23 -88t-23 -90l-32 -112q-2 0 -12.5 -2t-19.5 -3q-31 -4 -42 -5q-7 -1 -19.5 -2.5t-18.5 -1.5q-94 -9 -144 -10q-75 205 -192 560v-116v-130v-106q0 -139 4 -320l-310 -12q-4 294 -2 512q5 318 16 532q67 0 206 -4
q64 -1 240 -14q32 -142 84 -318q36 -119 76 -210q29 94 74 270q43 174 68 310h202h126q38 0 70 2t48 2q13 -231 14 -432q4 -292 -4 -624l-296 -8q0 215 -4 428q-1 70 -6 169q-4 88 -4 119z" />
    <glyph glyph-name="uni043D" unicode="&#x43d;" horiz-adv-x="1114" 
d="M692 644v414l372 6q-6 -179 -8 -220q-9 -184 -10 -222v-72q0 -46 -2 -88q-4 -57 -4 -86q0 -42 -2 -72v-118l-4 -174h-334l-6 352q-76 -1 -172 -10q-26 -2 -60 -6q-31 -4 -36 -4l-10 -358l-340 -12q-6 222 -6 474q4 199 6 332q0 26 2 82l4 84q2 56 2 60l364 2l-14 -380z
" />
    <glyph glyph-name="uni043E" unicode="&#x43e;" horiz-adv-x="986" 
d="M514 1030q222 0 324 -126t102 -342q0 -157 -42 -272q-44 -116 -146 -194q-104 -78 -266 -78q-216 0 -322 124q-104 122 -104 326q0 250 112 404q114 158 342 158zM624 522q0 224 -110 224q-60 0 -102 -78q-40 -76 -40 -200q0 -76 30 -132q32 -56 84 -56q68 0 104 68
q34 59 34 174z" />
    <glyph glyph-name="uni043F" unicode="&#x43f;" horiz-adv-x="1124" 
d="M1076 1074q-5 -109 -6 -166q-2 -54 -2 -94q-4 -40 0 -58h-4q0 -36 -2 -62t-2 -64v-70q0 -22 -1 -41t-1 -45q-4 -57 -4 -88q0 -42 -2 -74v-120l-4 -174h-338q0 126 2 236q4 124 4 234q0 106 4 262q-22 0 -70 -3q-18 -1 -42 -3t-30 -2q-117 -6 -144 -8q-2 -78 -2 -182
q0 -53 -1 -96t-1 -96q0 -54 -1 -97t-1 -95v-176l-342 -12q-2 98 -2 228v246q4 199 6 332q1 135 6 224q5 5 58 6q4 0 16.5 1t27 2t30.5 2q27 2 72 5q14 0 85 6q80 7 115 8q149 7 228 14q43 1 186 10q37 2 74 4.5t58.5 4t29.5 1.5z" />
    <glyph glyph-name="uni0440" unicode="&#x440;" horiz-adv-x="964" 
d="M592 1010q150 0 226 -130q70 -118 66 -338q-1 -217 -94 -364q-95 -146 -260 -146q-110 0 -170 74q-8 -242 -8 -474q-175 -6 -290 -6q0 268 2 366q0 652 20 1034q21 4 60 4h64q35 0 52 1q7 0 21 0.5t19 1.5q9 1 18 1q32 0 60 4v-8q0 -4 -1 -7t-1 -9v-22v-64q106 82 216 82
zM458 310q61 5 90 62q31 60 32 156q0 204 -114 204q-62 0 -88 -38q-8 -122 -8 -306q0 -40 24 -60q22 -22 64 -18z" />
    <glyph glyph-name="uni0441" unicode="&#x441;" horiz-adv-x="880" 
d="M458 250q55 0 80 46q30 52 36 120l278 -6q-12 -172 -116 -294q-102 -120 -288 -120q-207 0 -298 124q-94 126 -92 354q6 236 108 380q104 146 334 146q168 0 252 -90q88 -94 94 -236q4 -60 -2 -100l-270 -24q2 168 -80 168q-58 0 -92 -64q-33 -60 -38 -178
q-10 -226 94 -226z" />
    <glyph glyph-name="uni0442" unicode="&#x442;" horiz-adv-x="890" 
d="M16 758q-2 96 -2 174q0 57 4 106q28 1 118.5 4.5t152.5 6.5q169 7 195 9q219 10 368 10q12 -72 12 -116q0 -61 -10 -152l-242 -14q-4 -154 -6 -294q-1 -135 -6 -254v-90l-2 -26v16v34v26v-2v-176l-320 -14v42q0 8 -1 16t-1 20v58v98v166v256v102z" />
    <glyph glyph-name="uni0443" unicode="&#x443;" horiz-adv-x="972" 
d="M902 1028q0 -162 -2 -360q-4 -133 -6 -332q0 -76 -1 -112q0 -14 -0.5 -42.5t-1.5 -38.5q-1 -18 -1 -35q-2 -242 -122 -356t-296 -114q-159 0 -286 76v286q48 -37 106 -60q64 -24 124 -24q98 0 140 54q42 49 42 184q-82 -88 -232 -88q-286 0 -286 336v178v86q0 28 1 45
t1 29q0 33 4 122q0 29 1 42q0 5 0.5 15.5t1.5 14.5q1 7 1 12v4v4v18l314 -8q-14 -384 -14 -512q0 -85 22 -114q19 -28 72 -28q104 0 104 138q2 106 2 406v174h312z" />
    <glyph glyph-name="uni0444" unicode="&#x444;" horiz-adv-x="1426" 
d="M1310 906q74 -123 70 -358q-2 -230 -96 -384q-92 -152 -266 -152q-108 0 -172 76q0 -36 -1 -63q-2 -41 -3 -59q-4 -64 -4 -108v-102v-108q-97 -4 -166 -6q-64 -2 -132 -2v116q0 25 1 44t1 40v66v62v66q-61 -64 -174 -64q-182 0 -268 152q-82 151 -70 386q7 106 40 198
q30 84 72 150q84 136 238 136q46 0 88 -12q39 -13 82 -42q1 16 2.5 55.5t2.5 54.5q3 68 3 92q1 13 2.5 44.5t2.5 43.5q3 54 3 70q10 0 24 2t34 2h66q57 4 76 4h36h34q11 0 28 4v-8v-8v-4l-2 -6v-260v-68q104 86 222 86q153 0 226 -136zM532 282q0 3 4 4l4 2l6 6v200
q0 110 2 196q-30 18 -68 18q-118 0 -130 -212q-4 -58 2 -96q7 -40 16 -72q32 -68 92 -68q46 -4 72 22zM1038 370q14 30 20 72q9 64 10 94q0 105 -28 160q-29 56 -84 56q-63 0 -92 -44q-2 -63 -6 -148q-2 -70 -2 -174q0 -40 22 -62q24 -24 68 -20q62 2 92 66z" />
    <glyph glyph-name="uni0445" unicode="&#x445;" horiz-adv-x="1008" 
d="M670 1056l340 -32q-131 -167 -346 -494q72 -104 162 -218q71 -94 142 -176q4 -5 14 -17q5 -6 16 -17q3 -3 13 -15q2 -3 6 -7l3 -4l10 -10l-360 -40l-184 262v2q-111 -173 -178 -292l-320 58l316 466l-320 446l380 16q32 -71 124 -218l50 84z" />
    <glyph glyph-name="uni0446" unicode="&#x446;" horiz-adv-x="1200" 
d="M1176 -144q-12 0 -37 -3q-9 -1 -22 -3t-17 -2q-41 -5 -80 -6q-40 -2 -92 -2q-6 48 -6 78q0 43 -4 92q-140 0 -252 -2q-162 -5 -276 -14l-338 -22q-4 112 -6 228q-2 104 -2 246q4 199 6 332q0 25 2 83q1 15 2.5 43t1.5 42q2 56 2 60l342 2q0 -25 -1 -52t-1 -68
q0 -86 -2 -168q-4 -111 -4 -196v-210q22 0 68 3q17 1 40 3t30 2q24 0 71 3q16 1 40.5 3t32.5 2q4 111 4 200q0 118 2 212q0 90 2 160q0 42 1 73q2 48 3 71q96 7 190 12q85 2 164 6q-7 -139 -14 -342q-3 -69 -8 -370q7 1 25.5 2.5t29.5 2.5q34 3 47 3q22 0 39 1q24 1 35 3
q0 -22 -2 -62q0 -10 -1.5 -30t-2.5 -31q-2 -42 -2 -43q-2 -61 -6 -98q-4 -49 -4 -62v-182z" />
    <glyph glyph-name="uni0447" unicode="&#x447;" horiz-adv-x="1058" 
d="M40 1106l346 8q-1 -11 -2.5 -40.5t-2.5 -45.5q-3 -54 -3 -76q-2 -58 -2 -128v-37v-34v-21q5 -56 32 -92q30 -41 94 -42q36 -4 52 -4h34h22l8 458l374 10l-38 -1060l-350 -12l6 340l-138 6q-21 1 -118 10q-61 6 -94 14q-64 22 -120 72q-52 46 -80 134q-9 26 -10 50
q0 8 -3 34q-1 6 -2 15t-2 15.5t-1 11.5q-4 49 -4 88q0 24 -1 45t-1 47q0 85 4 234z" />
    <glyph glyph-name="uni0448" unicode="&#x448;" horiz-adv-x="1692" 
d="M1226 1048q52 1 190 10q32 2 71.5 4.5t61 4t33.5 1.5q0 -26 -3 -78q-1 -20 -3 -46.5t-2 -31.5q-3 -59 -4 -77q-2 -68 -2 -77q-2 -30 -2 -64q0 -25 -4 -64v-68q0 -44 -2 -86q0 -52 -2 -86t-2 -70q-2 -32 -2 -64v-54l-4 -172l-114 -4q-38 -2 -80 -2h-20h-16l-4 -2
q-14 0 -46 -2q-37 -4 -92 -6q-12 0 -58 -3q-13 -1 -38.5 -2.5t-35.5 -2.5q-22 0 -77 -3q-18 -1 -47 -2.5t-40 -2.5q-86 -2 -180 -6q-6 0 -37 -2t-55 -3q-62 -3 -94 -3q-176 -13 -244 -14q-57 0 -103 -1q-68 -1 -97 -3l2 2h-6q-2 98 -2 228v246q2 168 2 346q0 137 4 240
l342 22v-128v-182q0 -56 -1 -104t-1 -110v-226q18 2 54 3q24 1 54 1q19 1 59 3q26 1 59 1v198q0 88 4 212q4 92 4 154q0 82 2 144q45 1 188 10q31 3 166 8q-4 -101 -6 -154q-5 -102 -6 -152q-2 -26 -2 -64q0 -26 -4 -62v-68q0 -29 -4 -86q0 -40 -2 -66t-2 -56q18 2 58 3
q27 1 60 1q20 0 61 3q14 1 35 3t28 2v198q0 118 2 212q4 96 4 158q0 80 2 142z" />
    <glyph glyph-name="uni0449" unicode="&#x449;" horiz-adv-x="1672" 
d="M1644 270q-4 -17 -4 -28v-22q-1 -34 -6 -112q-2 -50 -2 -108q-2 -60 0 -116q-12 0 -36 -3q-8 -1 -20.5 -2.5t-17.5 -2.5q-10 0 -36 -3q-6 -1 -15 -2t-15.5 -2t-11.5 -1q-38 -2 -90 -2v38q0 13 -1 24t-1 26v27q0 9 -2 27q0 15 -1 25t-1 21q-144 -9 -166 -10
q-214 -10 -288 -12q-103 -4 -194 -6q-29 -1 -206 -10l-132 -6q-36 0 -64 -1q-41 -1 -64 -3q-56 -2 -118 -2q-31 0 -52 -1t-44 -1v2l-4 -2q-2 94 -2 222v236q0 165 4 310q0 14 1 32.5t2 44.5t2 44q3 73 3 87l332 22q0 -25 -1 -52t-1 -68q0 -42 -1 -78t-1 -86q0 -102 -2 -192
t-2 -204q57 4 102 4q22 0 35 1q19 1 42 3q30 2 37 2q0 102 2 192q0 35 2 103t2 103q0 162 6 288q94 8 180 12q91 4 160 6l-6 -150q0 -9 -2 -75q-1 -17 -4 -73q0 -34 -2 -60t-2 -58q-2 -26 -2 -68q0 -33 -4 -82v-68q0 -34 -2 -60q55 4 106 6q53 1 130 6v198q0 86 4 210
q0 86 2 150q0 39 1 70q1 45 3 68q154 9 182 10q95 4 158 6q-4 -95 -6 -146l-6 -150q0 -19 -1 -33t-1 -31v-60q-4 -36 -4 -66q0 -42 -2 -82v-66q0 -6 -6 -60q60 0 94 2q19 0 34 1q22 1 30 3q-2 -22 -2 -46t-2 -42v-18z" />
    <glyph glyph-name="uni044A" unicode="&#x44a;" horiz-adv-x="1042" 
d="M1042 346q-6 -174 -206 -266q-105 -45 -248 -64q-148 -20 -348 -18h-66l16 804l-188 -4v148q0 62 4 94q96 6 104 6q47 0 94 4q9 0 19 1t27 1h60q43 4 68 4h64h66q-2 -50 -6 -138q0 -4 -2 -34q-1 -20 -3 -40q-1 -12 -1 -34v-70q142 2 236 -28q103 -35 154 -64
q27 -13 54 -40q28 -27 38 -44q42 -42 54 -96q10 -40 10 -74v-48zM722 352q2 30 0 54q-1 34 -48 70q-42 31 -122 36q-30 1 -64 0v-154v-32q0 -13 -4 -38v-48q209 7 238 112z" />
    <glyph glyph-name="uni044B" unicode="&#x44b;" horiz-adv-x="1374" 
d="M910 386q0 28 -12 76q-12 50 -52 96q-13 21 -40 44q-25 23 -52 36q-59 36 -154 66q-94 30 -232 28q0 12 1 27t1 43q0 58 2 106q4 73 6 136q-39 0 -70 -1q-45 -1 -68 -3q-48 -2 -104 -2q-51 0 -68 -4l-18 -1036h62q390 -8 594 82q196 91 204 262q2 8 2 24q0 14 -2 20z
M590 348q-24 -104 -236 -110v46q4 25 4 38v32v152h66q79 -1 120 -38q45 -38 46 -68q6 -22 0 -52zM1318 1062q0 -44 -1 -79q-2 -54 -3 -79q0 -26 -3 -79q-1 -18 -3 -45t-2 -36v-64q0 -19 -1 -34t-1 -32q0 -36 -2 -70t-2 -88q-2 -42 -2 -90q0 -44 -2 -76v-118l-2 -174h-344
q0 126 2 238q2 94 2 236q0 106 4 266q0 90 2 160q0 42 1 74q1 48 3 72q166 9 192 10l90 5q54 3 72 3z" />
    <glyph glyph-name="uni044C" unicode="&#x44c;" horiz-adv-x="966" 
d="M926 352q-12 -178 -210 -268q-203 -90 -602 -82h-62l20 1052l66 4q17 1 53 3q23 1 53 1q58 2 142 2q0 -8 -2 -33t-3 -40q-3 -47 -3 -67q-4 -64 -4 -108q0 -28 -1 -43t-1 -27q139 2 238 -28q98 -30 156 -64q27 -13 54 -40q27 -28 38 -44q42 -48 54 -98q9 -34 14 -76v-44z
M600 358q6 30 0 52q-1 30 -46 68q-45 39 -122 40h-68v-154v-72q-4 -25 -4 -32v-16q212 8 240 114z" />
    <glyph glyph-name="uni044D" unicode="&#x44d;" horiz-adv-x="950" 
d="M956 570q0 -171 -46 -290q-48 -127 -154 -206q-115 -82 -282 -82q-234 0 -344 128q-83 101 -102 230l334 16l18 -54q36 -66 94 -66q68 0 110 80q11 28 18 50q7 25 12 58q-43 4 -76 4q-44 0 -74 2q-32 2 -72 2l12 182q38 -2 100 0q56 2 110 2q-18 176 -112 176
q-62 0 -104 -90l-336 38q19 52 34 78q31 53 44 70q118 166 362 166q236 0 344 -132q110 -134 110 -362z" />
    <glyph glyph-name="uni044E" unicode="&#x44e;" horiz-adv-x="1490" 
d="M1314 926q106 -133 106 -354q0 -162 -46 -282q-44 -126 -152 -200q-108 -84 -276 -84q-223 0 -336 128q-70 88 -100 226q-54 -6 -106 -6v-98q-2 -32 -2 -64v-58l-4 -174h-338v234v236l6 264q2 78 2 164q0 63 4 148q156 6 190 8q32 2 71.5 4.5t61 4t33.5 1.5
q-10 -162 -12 -320q-4 -36 -4 -54v-56q17 3 23 4q20 2 23 2q22 2 50 2q24 175 112 296q114 162 356 162q230 0 338 -134zM1054 350q38 67 38 182q0 232 -116 232q-64 0 -106 -80q-21 -33 -32 -92q-10 -53 -10 -116q0 -80 30 -138q30 -60 88 -60q66 0 108 72z" />
    <glyph glyph-name="uni044F" unicode="&#x44f;" horiz-adv-x="980" 
d="M930 1068l-20 -1050q-16 -2 -70 -2q-40 0 -104 -4q-23 -2 -68 -3q-31 -1 -70 -1q2 67 6 140q0 30 1 53q2 36 3 53q2 46 2 72h-22q-9 0 -20 4q-80 -118 -144 -210q-59 -88 -122 -138q-58 10 -112 24q-45 12 -94 30q-1 0 -13 5.5t-33 14t-44 18.5q47 47 90 98q40 44 84 102
q22 27 86 120q-2 1 -6 2.5t-6 2.5t-6 2.5t-6 2.5q-15 7 -22 14q-24 12 -52 40q-21 21 -38 42q-42 48 -54 98q-9 34 -14 76v42q12 178 206 264q93 45 248 68q154 22 346 20h68zM618 776q4 21 4 30v18q-212 -8 -236 -114q-6 -28 0 -48q5 -37 44 -72q45 -39 118 -40h70v156v70z
" />
    <glyph glyph-name="uni0451" unicode="&#x451;" horiz-adv-x="990" 
d="M496 240q78 0 98 116h36q12 0 24 -1t30 -1t30 -1t26 -1q92 -4 144 -6q-11 -136 -116 -244q-104 -108 -292 -108q-211 0 -308 130q-100 132 -98 354q1 229 118 382q120 154 334 154q178 0 270 -104t92 -302q0 -76 -12 -160q-32 -2 -202 -12q-2 0 -8 -0.5t-18 -1t-24 -0.5
q-41 -1 -103 -6q-23 -2 -68.5 -4.5t-62.5 -3.5q0 -84 30 -132t80 -48zM516 766q-46 0 -80 -46q-31 -41 -38 -120q123 0 214 8q0 158 -96 158zM458 1208q-6 -57 -46 -88q-41 -32 -100 -32q-58 0 -100 36q-38 35 -34 92q1 49 44 84q42 36 98 36q61 0 104 -40q40 -37 34 -88z
M854 1184q-5 -56 -48 -86q-42 -30 -106 -30q-60 0 -96 36t-32 90q5 50 46 84q41 32 102 32q60 0 98 -36q40 -34 36 -90z" />
    <glyph glyph-name="uni0452" unicode="&#x452;" horiz-adv-x="1140" 
d="M892 972q68 -42 114 -126q49 -91 68 -188q20 -101 10 -226q-8 -120 -54 -240q-48 -124 -128 -230q-84 -110 -210 -198q-29 24 -72 68q-37 40 -58 66q-29 36 -54 70q56 30 104 90q40 47 76 136q36 85 42 220q1 52 -6 136q-6 72 -22 108q-18 46 -46 74q-26 26 -64 26
q-59 4 -94 -46q-34 -49 -40 -122l-4 -38v-530q-35 -3 -152 -12q-128 -9 -182 -10v316q0 220 2 458q4 96 4 150v136q-30 -4 -54 -6q-13 0 -23 -1q-15 -1 -21 -3q-10 0 -18 -1q-12 -1 -18 -3q-24 66 -36 130q-14 73 -14 118q10 4 64 10q49 6 124 12v66l6 206l354 -32l-6 -96
q-2 -17 -3 -50q-1 -23 -1 -52q17 0 30 1q20 1 30 3q13 0 24 1q16 1 24 3q12 0 21 1q13 1 21 3v-38q0 -14 2 -22v-32q4 -15 4 -22v-22v-132q-6 0 -11 -1q-3 -1 -10 -1.5t-11 -0.5q-9 -1 -26 -1q-13 0 -112 -10v-62q0 -17 -1 -31t-1 -33l-6 -6q66 40 138 60q30 8 66 12
q36 2 74 0q31 -1 78 -16q32 -11 78 -40z" />
    <glyph glyph-name="uni0454" unicode="&#x454;" horiz-adv-x="960" 
d="M680 374q16 -2 32 -2h30q54 0 86 -2q19 0 33 -1q20 -1 31 -3q-5 -76 -32 -134q-30 -62 -90 -122q-108 -116 -308 -116q-216 0 -322 142q-108 133 -106 368q1 114 34 224q29 99 94 182q126 162 350 162q182 0 282 -112q74 -86 92 -222l-286 -20q-24 90 -94 90
q-52 0 -86 -46q-16 -26 -28 -56q-15 -39 -16 -72h56q17 0 30 -1t30 -1t30 -1t28 -1h48v-180h-80q-38 0 -76 -2q-23 0 -40 -1q-26 -2 -38 -3q0 -80 36 -138q34 -52 84 -52q79 0 104 124h16q5 0 20 -4h56z" />
    <glyph glyph-name="uni0456" unicode="&#x456;" horiz-adv-x="556" 
d="M274 1076q-84 0 -132 36q-52 40 -52 108q0 72 52 112q48 36 132 36q82 0 134 -36q50 -36 50 -112q0 -72 -50 -108q-52 -36 -134 -36zM432 938q-22 -350 -28 -908q-112 -12 -324 -6l10 924z" />
    <glyph glyph-name="uni0457" unicode="&#x457;" horiz-adv-x="828" 
d="M366 1208q-6 -52 -48 -88q-41 -32 -100 -32q-58 0 -100 36q-38 35 -34 92q4 52 42 84q42 36 100 36q61 0 104 -40q42 -40 36 -88zM760 1184q-5 -56 -46 -86q-42 -30 -108 -30q-60 0 -96 36t-32 90q5 50 46 84q41 32 104 32q56 0 94 -36q42 -36 38 -90zM582 934
q-24 -402 -30 -908q-130 -10 -322 -8l10 926z" />
    <glyph glyph-name="uni0458" unicode="&#x458;" horiz-adv-x="552" 
d="M100 92l4 908l328 -6q0 -25 -22 -970q-11 -235 -108 -338q-97 -101 -252 -106q-134 -5 -272 72v266q89 -68 186 -68q66 0 102 54q29 49 34 188zM278 1396q81 0 128 -34q46 -31 46 -104q0 -70 -46 -104q-48 -36 -128 -36q-76 0 -124 36q-50 38 -50 104t50 104
q47 34 124 34z" />
    <glyph glyph-name="uni0459" unicode="&#x459;" horiz-adv-x="1580" 
d="M1540 340q-12 -170 -200 -256q-129 -56 -324 -74l-320 2l8 406l-2 344l-114 -20q-5 -53 -26 -186q-16 -83 -38 -168q-25 -92 -56 -160q-29 -57 -56 -90q-47 -54 -66 -70q-38 -31 -70 -54q-18 -12 -66 -36q-99 81 -140 142q-47 73 -52 84l-2 8q43 24 88 62q36 30 70 70
q37 43 50 90q25 87 44 196q22 125 28 192q15 115 22 200l682 40q4 -60 6 -144q0 -14 3 -85q1 -17 2 -42.5t2 -43t1 -31.5q136 4 226 -26q89 -30 146 -64q27 -13 50 -36q24 -24 38 -42q40 -47 52 -92q9 -34 14 -76v-40zM1228 346q2 30 0 50q-1 30 -44 66q-40 34 -114 36h-54
v-262q189 13 212 110z" />
    <glyph glyph-name="uni045A" unicode="&#x45a;" horiz-adv-x="1570" 
d="M1544 378q2 -6 2 -18q0 -14 -2 -22q-1 -83 -56 -150q-50 -62 -144 -110q-59 -27 -146 -46q-98 -21 -184 -28h-4h-332l-6 352q-140 -5 -172 -8q-27 -1 -62 -6l-34 -4l-10 -360l-340 -12q-6 222 -6 474q4 199 6 332q0 26 2 82l4 84q2 56 2 60l366 6l-16 -384l258 16v414
l374 10q0 -10 -2 -38.5t-3 -47.5q-3 -56 -3 -84l-6 -168q130 -2 216 -30q93 -29 144 -62q27 -13 52 -38q15 -15 21 -22t17 -18q41 -49 52 -96q12 -52 12 -78zM1228 344q6 26 0 50q-2 32 -44 68q-39 33 -120 38h-40v-42q0 -5 -3 -40t-3 -50v-72q-2 -14 -2 -30v-32
q188 14 212 110z" />
    <glyph glyph-name="uni045B" unicode="&#x45b;" horiz-adv-x="1060" 
d="M694 1054q284 -6 278 -384l-8 -692l-328 -16v222v110q0 58 2 96v132q6 128 -18 164t-78 36q-98 0 -98 -156l-4 -538q-5 0 -31.5 -2t-46.5 -3q-16 -1 -30.5 -2t-27 -2t-16.5 -1q-128 -9 -184 -10q0 246 6 780v150q0 80 2 138q-21 -2 -56 -6q-25 -2 -44 -6q-22 -2 -38 -2
q-22 66 -34 130q-15 77 -16 118q23 5 66 10q5 0 24 2.5t34 4.5q43 5 68 9v64l2 208l358 -32q-2 -16 -3 -48q-1 -21 -1 -48q-4 -52 -6 -108q4 0 15 2t19 3q23 3 28 3q13 0 24 1q16 1 24 3q12 0 21 1q13 1 21 3l2 -4v-10v-26v-18v-16q0 -7 4 -22v-40v-134q-6 0 -11 -1
q-3 -1 -10 -1.5t-11 -0.5q-9 -1 -26 -1l-110 -10q-2 -32 -2 -76q0 -33 -4 -82q98 108 244 108z" />
    <glyph glyph-name="uni045F" unicode="&#x45f;" horiz-adv-x="1062" 
d="M668 1048q12 1 44 2.5t52 2.5q62 3 90 3q13 1 44 2.5t45 2.5q55 3 75 3q-3 -59 -4 -77q-2 -68 -2 -77q-4 -103 -6 -158q-2 -26 -2 -62t-2 -68q0 -32 -2 -66t-2 -88q0 -19 -1 -34t-1 -32v-60v-80q0 -20 -1 -37t-1 -39q0 -48 -2 -80v-40v-36l-362 -24q-2 -48 -2 -88v-56
v-36q-50 -9 -68 -12q-8 0 -34 -3q-6 -1 -15 -2t-15.5 -2t-11.5 -1q-49 -4 -86 -4q-2 46 -6 102q-2 50 -2 94q-114 -6 -180 -12q-14 -2 -32 -2t-32 -2q-39 -4 -56 -4h-40q-16 0 -16 2v104q0 30 -1 53t-1 53v74v186q1 328 14 554l336 6v-126q0 -43 -1 -81t-1 -91
q0 -76 -4 -204q-2 -96 -2 -214l286 22v206q0 124 2 220q4 100 4 160q0 84 2 146z" />
    <glyph glyph-name="uni0490" unicode="&#x490;" horiz-adv-x="940" 
d="M906 1582q0 -11 -1 -24t-1 -34t-1 -38t-1 -40q0 -22 -1 -39t-1 -37v-50q0 -6 -3 -34t-3 -44q0 -31 -4 -78q-26 -1 -180 -14q-36 -4 -112 -9q-26 -2 -60 -4.5t-44 -2.5l-34 -594q-2 -17 -3 -58q-1 -28 -1 -64q-1 -51 -6 -160q0 -43 -1 -78q-1 -52 -3 -76q-2 -72 -6 -108
l-90 -6q-36 -4 -46 -4h-26h-26q-22 0 -48 -2q-12 -1 -44 -3q-21 -1 -46 -1q-2 198 -2 344v148q0 48 1 92t1 108q0 91 4 272q1 16 2.5 55.5t2.5 54.5q3 68 3 86q1 45 10 152l6 112q116 8 242 16q43 3 234 8q0 16 1 28q1 17 3 28q0 14 1 25q2 18 3 25q0 14 1 26q2 19 3 26
q32 2 82 2q84 0 194 -6z" />
    <glyph glyph-name="uni0491" unicode="&#x491;" horiz-adv-x="758" 
d="M518 1208q26 2 66 2q34 0 68 -2q54 -5 80 -6q0 -24 -2 -62q-4 -49 -4 -84t-4 -82q-2 -34 -2 -50q-5 -71 -8 -88l-10 -78h-8h-108q-45 0 -83 1t-87 1q0 -46 -1 -82q-2 -55 -3 -80q0 -28 -1 -44q0 -7 -0.5 -20.5t-1.5 -18.5q-1 -10 -1 -23q-4 -81 -4 -138q0 -55 -4 -126
v-176v-62q-88 0 -162 2q-28 0 -83 3q-19 1 -47.5 3t-37.5 2q0 148 2 268q0 14 2 134t2 134q1 19 2.5 66t2.5 64q3 80 3 100q0 12 1 27.5t2 37t2 36.5q3 61 3 65l6 136q53 0 134 -4q19 -1 64 -3q29 -1 66 -1l144 -4q2 16 2 26t2 28q0 14 1 25q2 18 3 25z" />
    <glyph glyph-name="endash" unicode="&#x2013;" horiz-adv-x="990" 
d="M98 416q-2 74 0 134q0 8 1 17t1 19t1 18t1 16v22l4 26q471 16 780 16q23 -56 6 -244q-296 -6 -794 -24z" />
    <glyph glyph-name="emdash" unicode="&#x2014;" horiz-adv-x="1342" 
d="M98 426q-5 74 0 134q0 8 1 15t1 19q0 11 1 18t1 12v20l4 24q838 16 1130 16q26 -63 10 -234q-644 -24 -1148 -24z" />
    <glyph glyph-name="uni2015" unicode="&#x2015;" 
d="M1766 754v-74h-1434v74h1434z" />
    <glyph glyph-name="quoteleft" unicode="&#x2018;" horiz-adv-x="462" 
d="M74 1552l194 18l100 -386l-188 -30z" />
    <glyph glyph-name="quoteright" unicode="&#x2019;" horiz-adv-x="466" 
d="M284 1206l-190 26l90 388l212 -24z" />
    <glyph glyph-name="quotesinglbase" unicode="&#x201a;" horiz-adv-x="384" 
d="M144 260l212 -22l-106 -392l-194 30z" />
    <glyph glyph-name="quotedblleft" unicode="&#x201c;" horiz-adv-x="730" 
d="M54 1552l194 18l100 -386l-188 -30zM390 1572l198 26l94 -388l-190 -26z" />
    <glyph glyph-name="quotedblright" unicode="&#x201d;" horiz-adv-x="714" 
d="M140 1620l212 -24l-106 -390l-192 26zM468 1542l218 -28l-122 -394l-186 26z" />
    <glyph glyph-name="quotedblbase" unicode="&#x201e;" horiz-adv-x="714" 
d="M140 260l212 -22l-106 -392l-192 30zM468 182l218 -24l-122 -396l-186 30z" />
    <glyph glyph-name="ellipsis" unicode="&#x2026;" horiz-adv-x="1578" 
d="M442 190q-5 -73 -62 -114q-61 -44 -142 -44q-80 0 -130 50q-46 46 -44 114q5 74 58 116q54 42 136 42q88 0 134 -46q55 -50 50 -118zM992 210q-1 -76 -68 -120q-64 -42 -154 -42q-93 0 -146 50q-52 46 -48 124q2 68 66 116q59 44 146 44q88 0 148 -48t56 -124zM1508 190
q-2 -72 -62 -116q-61 -44 -144 -44q-80 0 -130 50q-48 48 -46 116q2 73 60 116q54 42 138 42q82 0 134 -46q54 -48 50 -118z" />
    <glyph glyph-name="guilsinglleft" unicode="&#x2039;" horiz-adv-x="666" 
d="M504 914l78 -224l-240 -158q44 -41 116 -92q97 -66 100 -68l38 -20l-80 -204q-72 38 -196 110q-87 50 -176 106l-70 44l12 282z" />
    <glyph glyph-name="guilsinglright" unicode="&#x203a;" horiz-adv-x="666" 
d="M170 140l-78 222l240 158q-38 34 -122 94q-46 30 -102 66l-34 22l84 204q61 -31 196 -112q87 -50 176 -106l68 -42l-10 -284z" />
    <glyph glyph-name="uni20A9" unicode="&#x20a9;" horiz-adv-x="1072" 
d="M842 632h-86l20 -158l28 -266h8zM628 720l-28 332h-8l-26 -332h62zM452 632h-82l12 -158l18 -266h6l24 266zM1102 632h-122l-66 -564h-204l-68 564h-90l-66 -564h-196l-70 564h-130v80l116 8l-68 550h176l46 -550h102l62 474h158l64 -474h104l48 550h160l-64 -550h108
v-88z" />
    <glyph glyph-name="Euro" unicode="&#x20ac;" horiz-adv-x="1208" 
d="M646 312q73 0 98 58q28 57 34 178l330 8q-5 -119 -28 -206q-24 -93 -78 -166q-53 -74 -144 -116q-88 -39 -212 -44q-126 -2 -222 42q-90 42 -142 130q-52 89 -76 192q-23 92 -34 246h-142q-4 82 0 130q0 7 1 12t1 14t1 14t1 10v14l4 18l136 4q48 612 494 612
q210 0 304 -108q94 -106 100 -278q0 -33 -4 -112l-304 -6q2 30 0 62q0 6 -8 66q-6 30 -28 52t-52 22q-64 0 -106 -76t-52 -224q56 2 282 2q20 -96 14 -196q-158 -22 -306 -24q5 -154 38 -240q36 -90 100 -90z" />
    <glyph glyph-name="uni20BD" unicode="&#x20bd;" horiz-adv-x="1236" 
d="M852 516v-234h-418v-282h-312v282h-102v234h102v126h-102v244h102v652h444q246 0 360 -42q108 -40 178 -148q66 -104 66 -242q0 -112 -28 -190q-29 -83 -74 -130q-49 -52 -114 -82q-54 -24 -146 -42q-78 -14 -162 -18q-74 -2 -170 -2h-42v-126h418zM434 886h18
q218 0 280 20q53 19 88 66q32 44 32 114q0 77 -40 126q-40 48 -120 60l-74 4q-50 2 -154 2h-30v-392z" />
    <glyph glyph-name="uni2103" unicode="&#x2103;" horiz-adv-x="1888" 
d="M350 936q-74 72 -74 182q0 112 74 184q70 70 174 70q100 0 176 -70q74 -72 74 -184q0 -110 -74 -182q-73 -70 -176 -70q-104 0 -174 70zM624 1012q42 42 40 106q0 63 -40 106q-40 42 -100 42t-96 -42q-40 -40 -38 -106q0 -65 38 -106q38 -44 96 -42q58 -1 100 42z
M1054 220q-160 175 -160 472q0 298 164 474q156 170 402 170q198 0 346 -154l-110 -128q-102 108 -234 108q-162 0 -262 -126q-100 -127 -100 -338q0 -218 96 -344q92 -126 260 -126q152 0 266 128l110 -122q-156 -180 -380 -180q-244 0 -398 166z" />
    <glyph glyph-name="uni2116" unicode="&#x2116;" horiz-adv-x="2140" 
d="M1266 50q-2 42 -2 102q0 50 2 96q5 78 8 96q8 0 202 12q32 2 99 6q69 5 101 6q38 2 208 8q108 5 236 0q15 -57 16 -98q4 -48 0 -88q-2 -31 -6 -86zM1106 1468q2 -218 -6 -698q-6 -344 -22 -760h-124q-63 0 -230 -4q-112 249 -198 482q-83 224 -144 430q-8 -248 -8 -498
q0 -162 12 -450l-328 -10q-11 984 18 1472q61 0 182 4q9 0 41 1.5t84.5 4t108.5 4.5l282 -826q2 91 4.5 201t4 171t1.5 94q2 182 -2 386h26q10 0 46 -4h88h164zM2034 840q0 -72 -22 -138q-7 -29 -24 -58q-10 -18 -36 -56q-25 -28 -46 -44q-27 -20 -60 -32q-43 -15 -72 -22
q-34 -8 -82 -8q-115 0 -192 44q-36 24 -62 50q-25 25 -42 68q-6 18 -20 76q-10 42 -6 96q0 48 12 96q6 26 28 88q30 80 110 130q78 54 194 54q166 0 246 -92q78 -86 74 -252zM1806 834q4 51 2 82q-1 33 -12 62q-24 54 -76 54q-55 0 -84 -62q-20 -39 -26 -68q-10 -41 -10 -86
q-6 -90 18 -138q25 -54 76 -54q102 0 112 210z" />
    <glyph glyph-name="trademark" unicode="&#x2122;" horiz-adv-x="1414" 
d="M34 1250q-2 49 2 168q299 10 432 10q12 -80 0 -156q-46 -9 -118 -14l-6 -586l-178 -6q-2 160 -2 588q-38 0 -64 -2t-66 -2zM1124 1182q-20 -76 -44 -172q-31 -118 -38 -158q-12 -51 -18 -86q-81 -9 -158 -16q-52 156 -118 382v-460l-176 -8q-11 434 6 746l262 -16
q83 -248 100 -354q56 163 92 388h256q24 -152 4 -746l-164 -6q8 247 -4 506z" />
    <glyph glyph-name="uni3001" unicode="&#x3001;" horiz-adv-x="1758" 
d="M526 -148q-167 203 -364 372l138 120q202 -166 370 -372z" />
    <glyph glyph-name="uni3002" unicode="&#x3002;" horiz-adv-x="1756" 
d="M592 290q76 -76 76 -186q0 -108 -76 -184q-77 -78 -184 -78q-108 0 -186 78q-76 76 -76 184q0 110 76 186q78 78 186 78q107 0 184 -78zM520 -8q48 48 48 112q0 68 -48 116q-46 46 -112 46q-70 0 -116 -46t-46 -116q0 -69 46 -112q48 -48 116 -48q64 0 112 48z" />
    <glyph glyph-name="uni3005" unicode="&#x3005;" horiz-adv-x="1874" 
d="M1626 1020q-114 -334 -352 -656q152 -98 222 -174l-112 -150q-211 229 -634 428l98 130q160 -72 280 -146q146 193 266 468h-528q-167 -324 -362 -510q-48 39 -148 90q345 315 524 910l172 -42q-49 -151 -110 -288h536l32 6z" />
    <glyph glyph-name="uni300A" unicode="&#x300a;" horiz-adv-x="1990" 
d="M1660 -34l-110 -36l-356 784l356 786l110 -36l-342 -750zM1938 -34l-114 -36l-354 784l354 786l114 -36l-344 -750z" />
    <glyph glyph-name="uni300B" unicode="&#x300b;" horiz-adv-x="1782" 
d="M436 -34l342 748l-342 750l110 36l358 -786l-358 -784zM160 -34l344 748l-344 750l112 36l354 -786l-354 -784z" />
    <glyph glyph-name="uni300C" unicode="&#x300c;" horiz-adv-x="2014" 
d="M1424 1560h538v-142h-382v-934h-156v1076z" />
    <glyph glyph-name="uni300D" unicode="&#x300d;" horiz-adv-x="1756" 
d="M674 -132h-538v144h382v934h156v-1078z" />
    <glyph glyph-name="uni3042" unicode="&#x3042;" horiz-adv-x="1890" 
d="M944 710q0 -145 26 -290q161 161 246 374h-8q-126 0 -264 -42v-42zM834 310q-38 213 -38 374q-107 -65 -178 -168q-72 -100 -72 -186q0 -92 86 -92q88 0 202 72zM1446 996l-32 -92q148 -43 238 -150q88 -109 88 -250q0 -197 -124 -322q-143 -150 -422 -192l-88 140
q224 24 350 132q122 101 118 250q0 192 -210 260q-133 -333 -358 -524q19 -76 38 -128l-152 -46q-8 28 -24 82q-145 -82 -268 -82q-92 0 -150 58q-60 56 -60 168q0 152 120 312q116 150 290 230q1 57 20 226h-80q-116 0 -280 12l-6 154q131 -22 290 -22h90l12 114q4 79 2 86
l176 -6q-9 -30 -20 -78q-1 -6 -3.5 -19.5t-7.5 -41t-9 -51.5q321 12 572 70l2 -154q-278 -45 -594 -58l-14 -182q141 40 264 38q34 0 48 -2q14 54 18 108z" />
    <glyph glyph-name="uni3044" unicode="&#x3044;" horiz-adv-x="1896" 
d="M626 1244q-16 -99 -16 -182q-4 -218 10 -372q42 -436 204 -436q114 0 192 332l134 -156q-144 -382 -328 -382q-141 0 -232 136q-108 158 -138 462q-18 162 -18 446q0 102 -12 156zM1476 1200q256 -325 298 -828l-172 -66q-54 555 -292 838z" />
    <glyph glyph-name="uni3046" unicode="&#x3046;" horiz-adv-x="1880" 
d="M1310 790q-79 62 -194 62q-154 0 -442 -84q-36 -7 -150 -52l-50 192q58 4 162 24q352 80 500 80q190 0 308 -100q122 -107 118 -288q0 -260 -216 -426q-197 -154 -552 -208l-96 162q684 84 684 478q0 98 -72 160zM702 1400q327 -69 728 -74l-30 -162q-464 32 -722 78z
" />
    <glyph glyph-name="uni3048" unicode="&#x3048;" horiz-adv-x="1890" 
d="M742 1412q318 -62 664 -84l-20 -156q-356 29 -670 86zM1452 914l-100 -78q-258 -240 -292 -276q26 2 62 -10q80 -12 118 -116l24 -84q7 -28 26 -86q24 -81 132 -86q182 0 318 34l-10 -178q-128 -22 -318 -22q-220 0 -268 142q-8 23 -26 92l-24 92q-30 84 -98 84
q-49 0 -116 -64q-152 -146 -318 -354l-156 110q61 51 94 86q334 327 636 640q-109 -6 -466 -38q-66 -5 -138 -16l-16 184q71 -4 150 -4q331 6 602 40q54 6 84 18z" />
    <glyph glyph-name="uni304A" unicode="&#x304a;" horiz-adv-x="1896" 
d="M760 276l-2 106q-4 117 -4 148q-206 -101 -206 -210q0 -43 56 -84q53 -40 100 -38q56 0 56 78zM904 740q168 52 346 52q187 0 306 -92q126 -96 126 -254q0 -308 -358 -392q-103 -25 -210 -26l-62 168q140 0 202 12q262 48 262 240q0 92 -80 148q-77 50 -188 50
q-158 0 -340 -56l6 -342q0 -226 -162 -226q-118 0 -238 84q-128 92 -128 208q0 100 108 206q95 95 258 166v104q0 128 2 182q-71 -4 -110 -4q-141 0 -218 8l-6 160q108 -12 218 -12q20 0 116 4l2 164q0 69 -10 132h180q-8 -70 -8 -128q-6 -134 -8 -152q179 18 326 64l6 -164
q-115 -26 -334 -54q-4 -160 -4 -194v-56zM1426 1244q247 -125 392 -240l-82 -136q-104 96 -384 246z" />
    <glyph glyph-name="uni304B" unicode="&#x304b;" horiz-adv-x="1894" 
d="M972 1388q-12 -48 -24 -114q-6 -25 -18 -94l-22 -112q109 8 166 8q284 0 284 -298q0 -411 -96 -604q-70 -144 -256 -144q-98 0 -198 28l-28 172q120 -36 206 -34q98 0 134 78q74 151 74 486q0 98 -46 134q-38 32 -122 32q-51 0 -152 -8q-143 -565 -344 -894l-172 70
q206 277 344 806q-158 -16 -180 -24q-67 -6 -166 -22l-14 182q54 -2 158 0q125 5 236 16q40 200 40 358zM1544 1220q171 -226 298 -602l-164 -78q-102 387 -290 616z" />
    <glyph glyph-name="uni304C" unicode="&#x304c;" horiz-adv-x="1894" 
d="M1746 1250q-73 150 -136 228l106 48q82 -118 140 -232zM954 1392q-14 -78 -24 -114q0 -1 -19 -97q-15 -78 -21 -109q109 8 166 8q284 0 284 -298q0 -407 -94 -604q-70 -144 -258 -144q-92 0 -198 28l-28 172q120 -36 204 -34q100 0 136 78q74 151 74 486q0 100 -46 136
q-36 30 -124 30q-54 0 -150 -8q-137 -561 -344 -894l-172 70q205 271 344 806l-180 -24q-114 -11 -164 -22l-18 182q54 -4 162 0q120 5 232 16q42 210 42 358zM1552 1176q157 -236 272 -564l-166 -78q-97 381 -290 610l158 70l26 -36q-84 163 -134 232l110 44
q60 -85 134 -232z" />
    <glyph glyph-name="uni304D" unicode="&#x304d;" horiz-adv-x="1892" 
d="M716 520q-42 -97 -38 -164q0 -194 318 -194q251 0 420 38l-4 -170q-175 -32 -412 -32q-486 0 -486 322q0 88 38 216zM1660 852q-116 -40 -272 -70q104 -218 146 -292l-80 -100q-53 11 -340 48l12 130h2l20 -2q15 -1 40 -5q5 -1 59 -7q12 -1 38 -3.5t39 -4.5l-94 212
q-316 -42 -736 -14l-6 154q370 -36 682 0l-84 192q-274 -24 -580 6l-10 154q286 -32 528 -18l-14 28q-34 68 -70 128l188 40q16 -58 60 -178q177 31 324 80l28 -148q-123 -41 -296 -70l84 -190q168 29 300 80z" />
    <glyph glyph-name="uni304E" unicode="&#x304e;" horiz-adv-x="1902" 
d="M660 518q-42 -93 -40 -166q0 -192 316 -192q252 0 422 36l-4 -168q-175 -32 -414 -32q-484 0 -484 320q0 85 40 214zM1604 848q-114 -38 -272 -68q116 -239 144 -292l-80 -102q-92 16 -342 50l16 128q-1070 -564 196 -20l-92 210q-316 -42 -740 -14l-6 152q372 -36 684 0
l-86 194q-274 -24 -580 6l-8 154q303 -32 528 -20l-14 32q-42 82 -72 128l192 38q14 -49 56 -176q147 19 276 64l30 -148q-126 -39 -250 -56l30 -70q35 -79 56 -120q157 31 300 80zM1510 1442q75 -112 134 -232l-102 -46q-65 140 -136 234zM1690 1512q67 -85 140 -226
l-100 -50q-78 147 -142 230z" />
    <glyph glyph-name="uni304F" unicode="&#x304f;" horiz-adv-x="1870" 
d="M1392 1294l-66 -52l-60 -50q-67 -56 -228 -184l-232 -188q-72 -60 -68 -96q0 -34 74 -94q508 -424 616 -530l-154 -138q-5 7 -30 32q-18 18 -32 34q-21 21 -31 32q-4 4 -12 13t-11 12q-5 6 -10 11q-88 94 -514 454q-116 98 -110 174q5 74 124 174q451 381 480 410
q93 99 112 124z" />
    <glyph glyph-name="uni3050" unicode="&#x3050;" horiz-adv-x="1892" 
d="M1300 1036q41 -58 146 -248l-114 -46q-92 181 -140 248zM1498 1112q60 -84 144 -244l-108 -46q-91 169 -146 242zM1392 1294q-26 -20 -66 -52l-60 -50q-17 -12 -46 -37q-12 -10 -83 -67q-58 -47 -101 -80q-88 -72 -232 -188q-70 -58 -70 -96q5 -35 74 -94
q505 -419 618 -530l-152 -138q-22 24 -64 66q-46 48 -66 68q-93 105 -510 454q-118 96 -114 174q6 73 128 174q467 399 478 410q81 81 110 124z" />
    <glyph glyph-name="uni3051" unicode="&#x3051;" horiz-adv-x="1892" 
d="M668 1358q-17 -50 -34 -122q-114 -521 -50 -812l40 108q17 47 25 67q4 12 8 22.5t7 18.5t4 10l88 -54q-75 -208 -112 -386q-10 -53 -10 -74l4 -62l-142 -16q-90 262 -90 530t56 666q11 59 12 122zM1758 910q-137 -19 -260 -26v-62q0 -344 -48 -494q-77 -217 -308 -360
l-154 120q119 53 178 116q105 97 142 248q30 116 30 372v52q-138 -5 -202 -6q-108 0 -264 12v166q118 -16 262 -16q44 0 200 4q-5 202 -8 242q-1 47 -18 106h194q-2 -19 -6 -106q-4 -36 0 -232q159 12 262 36v-172z" />
    <glyph glyph-name="uni3052" unicode="&#x3052;" horiz-adv-x="1902" 
d="M1604 1132q-59 170 -92 240l96 26q61 -122 92 -230zM654 1316q-12 -40 -34 -118q-112 -506 -50 -798l40 106q17 52 44 118l88 -54q-83 -231 -112 -384q-8 -40 -8 -76l4 -62l-144 -18q-92 264 -92 534q0 252 58 646q9 55 10 126zM1470 1342q-3 -18 -8 -100q-2 -38 0 -234
q189 17 282 38l-2 -174q-92 -13 -278 -26v-50q0 -342 -50 -494q-72 -216 -304 -360l-156 122q105 43 178 116q108 97 144 250q26 115 26 366v42q-143 -4 -178 -4q-103 0 -264 10v170q120 -18 260 -18q72 0 178 2q-5 202 -8 242q-1 52 -16 102h196zM1778 1454q46 -89 96 -236
l-98 -30q-54 159 -92 234z" />
    <glyph glyph-name="uni3053" unicode="&#x3053;" 
d="M596 1254q209 -20 444 -20q250 0 466 24v-174q-310 -21 -464 -22q-206 0 -446 20v172zM694 570q-28 -94 -28 -180q0 -90 88 -144q101 -56 280 -56q351 0 576 64l2 -182q-225 -58 -574 -58q-266 0 -408 88q-140 86 -140 248q0 92 32 234z" />
    <glyph glyph-name="uni3054" unicode="&#x3054;" horiz-adv-x="1912" 
d="M1546 1446q71 -101 138 -230l-114 -48q-76 156 -132 234zM1736 1518q86 -123 140 -228l-108 -48q-70 138 -140 230zM588 1266q157 -22 444 -22q243 0 464 22v-174q-266 -20 -462 -20q-200 0 -446 18v176zM688 578q-30 -110 -30 -180q0 -89 90 -142q94 -58 280 -56
q356 0 574 66l2 -184q-224 -60 -572 -60q-269 0 -408 88q-140 84 -140 250q0 92 32 234z" />
    <glyph glyph-name="uni3055" unicode="&#x3055;" 
d="M714 594q-48 -108 -44 -204q0 -220 324 -220q214 0 444 48l-4 -172q-216 -42 -442 -42q-240 0 -368 90q-126 88 -126 254q0 106 46 262zM1638 1078q-134 -38 -298 -68q123 -269 218 -448l-94 -100q-127 28 -358 54l16 136l218 -22l-78 168q-52 105 -86 186
q-335 -38 -704 -4l-8 168q340 -42 642 -12l-48 106q-57 119 -74 146l188 36q45 -132 102 -262q182 30 334 82z" />
    <glyph glyph-name="uni3056" unicode="&#x3056;" horiz-adv-x="1910" 
d="M720 594q-48 -120 -48 -204q0 -220 328 -220q220 0 442 48l-2 -178q-228 -38 -440 -36q-240 0 -370 88q-126 89 -126 254q0 112 46 262zM1536 1472q76 -110 136 -228l-52 -26l24 -140q-140 -41 -298 -70q104 -226 218 -444l-94 -104q-156 31 -358 54l14 138l220 -24
q-160 340 -166 356q-296 -36 -704 -4l-8 168q336 -46 646 -12q-23 44 -50 104q-51 109 -72 148l188 36q26 -79 100 -264q178 32 268 60q-72 139 -122 208zM1728 1542q94 -143 138 -232l-108 -44q-67 135 -138 232z" />
    <glyph glyph-name="uni3057" unicode="&#x3057;" horiz-adv-x="1914" 
d="M834 1384q-9 -49 -20 -190q-20 -632 -20 -798q0 -234 254 -236q356 0 584 342l120 -146q-260 -372 -708 -372q-420 0 -424 384q0 111 10 444q8 296 8 382q0 112 -18 190h214z" />
    <glyph glyph-name="uni3058" unicode="&#x3058;" horiz-adv-x="1906" 
d="M1252 1242q96 -142 160 -272l-122 -52q-74 157 -156 272zM1472 1328q86 -122 164 -264l-118 -56q-79 152 -162 266zM800 1372q-12 -91 -18 -190q-18 -553 -18 -802q0 -232 252 -232q356 0 586 342l116 -146q-262 -372 -706 -372q-420 0 -420 384q0 144 8 440t8 386
q0 102 -18 190h210z" />
    <glyph glyph-name="uni3059" unicode="&#x3059;" horiz-adv-x="1890" 
d="M914 518q46 -40 106 -36q70 0 104 52q38 60 22 172q-38 78 -128 78q-61 0 -102 -38q-48 -48 -48 -118q0 -68 46 -110zM1768 1046q-155 8 -496 8q2 -78 2 -260q58 -94 58 -220q0 -190 -108 -338q-132 -180 -402 -258l-144 140q320 72 428 240q-48 -22 -116 -22
q-112 0 -192 74q-90 82 -90 214q0 130 92 216q90 84 220 84q52 0 92 -12l-2 140q-433 -5 -730 -26l-6 162l736 14q0 6 -2 30l-2 54q-6 90 -12 120h188q-8 -51 -8 -120v-82h496z" />
    <glyph glyph-name="uni305A" unicode="&#x305a;" horiz-adv-x="1888" 
d="M1680 1234q-60 122 -122 202l114 46q96 -143 124 -198zM862 504q42 -40 106 -38q70 0 106 54q40 58 24 172q-42 76 -130 76q-63 0 -104 -40q-48 -42 -44 -114q-2 -68 42 -110zM1468 1188h252v-156q-155 8 -500 8v-260q60 -92 60 -220q0 -192 -106 -340
q-132 -180 -404 -258l-144 140q319 71 428 242q-46 -20 -114 -24q-111 0 -190 76q-89 83 -90 214q0 132 94 216q90 84 216 84q50 0 90 -12l-2 140q-383 -1 -728 -28l-2 164l728 12q0 52 -2 84q-1 73 -14 122h194l-12 -120q-2 -18 -2 -84h246q-55 112 -120 202l114 48
q66 -94 122 -198z" />
    <glyph glyph-name="uni305B" unicode="&#x305b;" horiz-adv-x="1880" 
d="M1458 1376q-8 -45 -8 -130l-4 -210q31 4 158 12q115 5 140 8v-164q-14 2 -64 0h-76l-162 -8q-6 -254 -24 -344q-18 -96 -136 -100q-81 0 -232 26l4 146q87 -17 158 -22q59 0 60 40q15 89 16 240q-144 -11 -496 -42q-4 -328 0 -396q5 -141 44 -176q48 -48 238 -48
q265 0 496 40l-6 -178q-252 -26 -478 -26q-294 0 -378 78q-74 66 -78 286q-2 62 -2 400q-11 -1 -35 -3.5t-36 -4.5q-34 -4 -53 -6l-24 -2q-90 -12 -184 -24l-18 168q79 0 188 10l162 16v204q0 74 -10 160h184q-8 -70 -8 -152q0 -126 -2 -198l500 48v216q0 66 -14 136h180z
" />
    <glyph glyph-name="uni305C" unicode="&#x305c;" 
d="M1570 1088q-47 150 -92 236l98 30q65 -133 96 -232zM1436 1348q-5 -28 -10 -130l-4 -208q29 5 158 12l142 10v-166q-29 2 -142 -2l-162 -8q-6 -235 -26 -340q-18 -100 -134 -100q-107 0 -230 22l2 148q97 -20 160 -20q50 0 60 42q13 94 14 238q-27 -1 -496 -48
q-2 -326 0 -392q1 -136 44 -174q48 -48 238 -48q284 0 494 42l-4 -180q-236 -26 -480 -30q-290 0 -376 80q-76 66 -78 284q-2 64 -2 402q-70 -6 -150 -16q-108 -12 -180 -24l-18 172q77 0 186 8l162 14v202q0 74 -10 160h184q-8 -70 -8 -152q0 -128 -2 -194l498 46v214
q0 63 -10 136h180zM1746 1410q49 -95 96 -230l-98 -36q-50 145 -94 236z" />
    <glyph glyph-name="uni305D" unicode="&#x305d;" horiz-adv-x="1882" 
d="M634 1336q58 -8 146 -8q278 0 498 26q69 6 102 20l104 -122q-66 -41 -106 -74q-46 -38 -129 -106t-111 -91q-30 -25 -68 -56t-60 -49.5t-36 -29.5q-49 -40 -50 -40q438 46 752 46v-156q-276 16 -424 -6q-122 -18 -210 -100q-92 -86 -92 -192q0 -190 272 -226
q121 -14 242 -4l-32 -172q-311 -12 -480 82q-168 92 -170 290q0 178 164 292q-258 -19 -556 -70l-18 160q50 4 146 18l144 16q157 105 514 416l-200 -12q-14 0 -44 -1.5t-45 -2.5q-5 0 -70 -4q-34 -2 -35 -2q-79 -6 -138 -14z" />
    <glyph glyph-name="uni305E" unicode="&#x305e;" horiz-adv-x="1884" 
d="M1440 1146q69 -103 120 -206l-104 -48q-53 119 -118 214zM1620 1218q70 -95 126 -202l-102 -50q-66 131 -124 208zM588 1336q58 -8 146 -8q275 0 494 26q68 6 104 20l106 -122q-80 -53 -108 -74l-454 -372q438 46 750 46v-156q-278 17 -422 -6q-122 -18 -210 -100
q-92 -86 -92 -192q0 -190 272 -226q119 -14 244 -4l-34 -172q-311 -12 -480 82q-168 95 -168 290q0 176 162 292q-262 -19 -558 -70l-14 160q50 4 146 18q22 3 61 7q32 3 52 6q19 3 29 3q182 124 510 416l-196 -12q-14 0 -44 -1.5t-45 -2.5q-11 0 -69 -4q-32 -2 -34 -2
q-78 -6 -138 -14z" />
    <glyph glyph-name="uni305F" unicode="&#x305f;" horiz-adv-x="1888" 
d="M1110 898q151 16 310 16q153 0 290 -14l-6 -162q-139 17 -280 22q-164 0 -314 -16v154zM1226 1052q-115 -26 -334 -54q-21 -104 -50 -218q-121 -466 -262 -764l-184 62q146 245 282 746q20 79 38 160q-5 0 -32 -1.5t-44 -2.5q-11 0 -24.5 -0.5t-20.5 -1t-11 -0.5
q-27 0 -198 8l-4 162q104 -12 204 -12q86 0 166 6q3 16 10 59q1 6 3.5 22.5t3.5 22.5q3 16 3 20q10 89 4 152l204 -18q-13 -56 -32 -140l-20 -96q148 18 298 54v-166zM1176 488q-21 -80 -26 -144q0 -144 252 -144q149 0 332 34l-4 -168q-176 -26 -330 -26q-408 0 -408 254
q0 81 26 208z" />
    <glyph glyph-name="uni3060" unicode="&#x3060;" horiz-adv-x="1892" 
d="M1516 1052q-73 144 -136 232l108 48q72 -102 136 -232zM1062 870q176 14 312 18q144 0 288 -16l-4 -160q-172 22 -282 22q-138 0 -314 -18v154zM1180 1028q-152 -35 -334 -58q-22 -96 -52 -214q-120 -468 -262 -766l-184 64q148 247 282 742q4 14 18 69q13 52 24 91
q-82 -2 -134 -2q-118 0 -198 6l-4 164q104 -14 204 -14q89 0 164 8q3 16 10 59q1 6 3.5 22.5t3.5 22.5q3 16 3 20q10 102 6 148l204 -14q-7 -24 -32 -144l-20 -98q124 18 298 58v-164zM1128 462q-22 -81 -22 -146q0 -142 250 -142q165 0 332 34l-4 -172q-142 -22 -330 -22
q-410 0 -410 254q0 83 26 210zM1680 1402q70 -98 138 -228l-108 -50q-79 153 -140 232z" />
    <glyph glyph-name="uni3061" unicode="&#x3061;" horiz-adv-x="1880" 
d="M1522 1086q-328 -58 -666 -72q-53 -235 -92 -346q198 126 442 126q198 0 316 -94q116 -92 116 -248q0 -258 -244 -372q-231 -106 -630 -62l-48 170q308 -44 516 12q230 66 230 248q0 90 -70 144q-76 60 -204 60q-318 0 -480 -198q-11 -15 -46 -76l-158 56
q112 216 192 578q-194 5 -302 16v164q149 -28 324 -28h6l10 50l8 40q10 99 8 148l186 -8q-21 -83 -32 -152l-16 -74q326 14 632 78z" />
    <glyph glyph-name="uni3063" unicode="&#x3063;" horiz-adv-x="1890" 
d="M476 710q100 22 162 42q420 132 592 132q190 0 304 -102q116 -104 116 -282q0 -228 -204 -366q-203 -134 -568 -158l-66 164q291 7 468 92q196 91 196 272q0 100 -72 164q-73 64 -190 64q-203 0 -670 -196z" />
    <glyph glyph-name="uni3064" unicode="&#x3064;" horiz-adv-x="1882" 
d="M322 952q62 13 192 52q514 160 710 160q224 0 364 -120q148 -124 148 -338q0 -282 -260 -450q-242 -158 -664 -182l-74 178q363 11 570 112q240 120 240 346q0 130 -84 210q-88 84 -248 88q-238 0 -818 -240z" />
    <glyph glyph-name="uni3065" unicode="&#x3065;" horiz-adv-x="1888" 
d="M1490 1422q72 -110 136 -230l-108 -50q-73 145 -136 234zM1682 1492q68 -91 138 -226l-108 -50q-85 162 -140 230zM304 958q61 13 190 50q506 162 710 162q220 0 362 -118q147 -125 152 -338q0 -284 -260 -452q-246 -158 -666 -180l-76 176q361 11 572 114
q240 120 242 344q0 132 -86 212q-88 84 -246 84q-252 0 -822 -238z" />
    <glyph glyph-name="uni3066" unicode="&#x3066;" horiz-adv-x="1878" 
d="M340 1196q1 0 156 8l722 66q136 9 458 28v-170q-228 0 -322 -24q-164 -50 -266 -198q-100 -145 -100 -300q0 -212 176 -316q141 -87 380 -98l-62 -180q-270 12 -454 148q-212 152 -212 410q0 175 90 332q76 131 192 208q-663 -80 -740 -96z" />
    <glyph glyph-name="uni3067" unicode="&#x3067;" horiz-adv-x="1888" 
d="M1446 936q85 -128 138 -232l-106 -46q-59 124 -134 234zM1630 1010q100 -144 144 -228l-102 -48q-71 135 -142 228zM344 1186q1 0 17 1t55 3t82 4q400 40 722 66q193 18 458 30l2 -172q-240 0 -324 -22q-158 -48 -264 -202q-100 -144 -102 -296q0 -210 176 -318
q149 -91 380 -98l-62 -178q-270 12 -454 148q-210 152 -210 410q0 174 90 330q78 136 190 208q-577 -60 -740 -96z" />
    <glyph glyph-name="uni3068" unicode="&#x3068;" 
d="M1548 1064q-30 -19 -142 -76q-363 -184 -486 -266q-240 -156 -240 -318q0 -206 370 -206q292 0 540 58l-2 -188q-249 -44 -532 -44q-556 0 -556 362q0 230 282 434q-84 153 -236 504l166 66q77 -214 216 -478q52 31 220 124l178 94q83 48 132 86z" />
    <glyph glyph-name="uni3069" unicode="&#x3069;" horiz-adv-x="1912" 
d="M1500 1024q-26 -15 -30 -17q-49 -27 -54 -29q-13 -7 -34 -18t-26 -14q-328 -168 -438 -240q-241 -156 -242 -318q0 -208 374 -208q308 0 536 60v-188q-250 -44 -530 -44q-556 0 -556 358q0 234 282 434q-107 191 -238 504l166 70q80 -223 216 -476q78 48 198 108l158 86
q95 54 134 88zM1530 1398q78 -114 132 -228l-108 -50q-82 162 -132 234zM1718 1470q80 -109 140 -226l-110 -50q-78 155 -136 230z" />
    <glyph glyph-name="uni306A" unicode="&#x306a;" horiz-adv-x="1890" 
d="M1688 834q-151 122 -386 230l82 130q229 -97 398 -224zM1174 1070q-139 -37 -296 -60q-144 -420 -362 -706l-160 82q212 254 348 606q-72 -2 -120 -2q-112 0 -198 6l-14 152q104 -10 212 -10q95 0 172 8q41 148 46 282l186 -16q-14 -60 -34 -133q-21 -75 -28 -109
q123 18 244 54zM1234 356q-69 20 -152 20q-85 0 -132 -32q-50 -32 -50 -82q0 -120 170 -120q165 0 166 154q0 38 -2 60zM1378 898q-4 -84 -2 -196q1 -45 12 -244q182 -66 344 -210l-90 -142q-130 116 -248 184v-44q0 -114 -68 -180q-80 -74 -234 -74q-147 0 -248 62
q-100 70 -100 192q0 114 94 190q97 76 252 76q74 0 138 -12q-16 307 -18 398h168z" />
    <glyph glyph-name="uni306B" unicode="&#x306b;" horiz-adv-x="1890" 
d="M972 1218q328 -48 698 2v-170q-362 -36 -698 0v168zM1068 528q-22 -87 -22 -150q0 -132 258 -132q212 0 414 42l4 -176q-158 -29 -422 -34q-412 0 -412 260q0 63 28 204zM686 1340q-18 -57 -36 -128q-82 -392 -82 -626q0 -90 12 -174q13 40 82 208l90 -68
q-99 -273 -122 -386q-10 -52 -8 -76q0 -15 4 -64l-150 -8q-64 220 -64 538q0 140 72 660q14 79 14 138z" />
    <glyph glyph-name="uni306C" unicode="&#x306c;" horiz-adv-x="1894" 
d="M1480 338q-88 52 -176 50q-61 0 -98 -28q-32 -26 -32 -66q0 -96 116 -96q119 0 190 140zM1012 1014q-164 -42 -300 -168q37 -92 60 -134q39 -88 90 -166q34 64 82 186q38 109 68 282zM766 400q-67 98 -106 178q-25 46 -60 134q-114 -172 -112 -324q0 -56 24 -92
q24 -35 58 -34q88 0 196 138zM1198 1178q216 -2 360 -138q150 -138 150 -368q0 -164 -32 -286q80 -60 168 -160l-102 -128q-97 116 -126 140q-108 -190 -318 -186q-126 0 -196 58q-74 60 -74 168q0 96 74 164q80 74 194 74q116 0 230 -44q18 91 18 194q0 168 -94 268
q-100 100 -266 100h-6q-31 -198 -82 -346q-83 -243 -224 -412q-151 -186 -308 -186q-96 0 -162 70q-68 74 -68 200q0 240 146 440q43 59 58 74q-4 9 -19 53q-20 58 -27 79q-32 109 -66 182l158 66q24 -117 74 -264q168 136 376 172l8 94q2 71 -4 142l186 -6q-8 -52 -18 -138
z" />
    <glyph glyph-name="uni306D" unicode="&#x306d;" horiz-adv-x="1892" 
d="M1484 364q-100 52 -198 52q-64 0 -104 -28q-46 -30 -46 -74q0 -114 154 -110q136 0 194 160zM910 1102q-27 -33 -80 -122l-4 -52q294 258 508 258q168 0 264 -136q92 -131 92 -350q0 -164 -18 -272q78 -54 178 -160l-88 -136q-56 64 -136 136q-92 -212 -324 -212
q-138 0 -220 58q-90 68 -90 194q0 106 86 174q84 66 222 66q122 0 218 -40q12 88 12 210q0 143 -64 234q-60 86 -162 86q-204 0 -492 -308q0 -12 -2 -45.5t-3 -54.5q-3 -64 -3 -90q0 -287 10 -414q0 -6 3 -42q4 -45 7 -70h-182q6 84 6 108q0 161 6 436q-175 -262 -244 -356
l-106 148q207 255 362 488l10 142q-44 -4 -150 -18l-166 -22l-16 172q64 -1 124 0q83 6 220 24q8 117 8 146q0 91 -8 134l196 -6q-17 -89 -34 -238z" />
    <glyph glyph-name="uni306E" unicode="&#x306e;" 
d="M894 692q67 214 92 428q-212 -36 -350 -198q-124 -148 -124 -316q0 -128 52 -210q44 -68 102 -68q119 0 228 364zM1012 164q80 8 150 24q174 42 280 154q120 131 120 320q0 183 -104 308q-108 128 -294 152q-38 -250 -102 -466q-79 -268 -178 -397q-100 -130 -224 -129
q-130 0 -220 126q-96 136 -96 336q0 279 218 482q215 206 526 206q294 0 474 -182q178 -178 178 -444t-160 -432q-166 -172 -468 -214z" />
    <glyph glyph-name="uni306F" unicode="&#x306f;" horiz-adv-x="1898" 
d="M676 1354q-9 -18 -32 -126q-82 -359 -82 -658q0 -90 12 -174q12 36 84 210l84 -68q-100 -290 -118 -380q-8 -34 -8 -76q2 -8 2 -28v-34l-146 -10q-66 228 -66 528q0 213 74 696q8 61 14 138zM1336 386q-70 17 -154 22q-82 0 -136 -36q-50 -30 -50 -84q0 -116 180 -116
q160 0 160 168v46zM1732 126q-133 127 -230 182v-4q0 -288 -306 -288q-170 0 -262 68q-94 70 -94 186t94 192q97 76 260 76q69 0 136 -10l-16 388q-111 -4 -140 -4q-76 0 -286 10v158q159 -16 288 -16q16 0 62 3t76 3l-2 194q0 58 -12 106h190q-9 -73 -10 -102l-4 -188
q158 12 276 36v-162q-126 -22 -276 -30q8 -218 8 -236l12 -206q147 -61 324 -218z" />
    <glyph glyph-name="uni3070" unicode="&#x3070;" horiz-adv-x="1898" 
d="M1764 1214q-54 154 -96 234l96 30q63 -130 98 -230zM1590 1160q-48 146 -92 236l96 28q46 -83 96 -230zM632 1346q-15 -46 -32 -128q-82 -368 -82 -656q0 -85 10 -176q43 112 88 210l82 -68q-92 -262 -116 -378q-10 -50 -8 -76q0 -24 2 -62l-148 -12q-66 222 -66 528
q0 225 74 696q8 68 12 138zM1290 374q-72 21 -154 26q-80 0 -134 -36q-52 -30 -52 -84q0 -116 180 -116q160 0 160 168v42zM1706 944q-114 -18 -272 -30q2 -52 3.5 -105t3 -85t1.5 -46l10 -204q152 -60 324 -220l-88 -136q-123 115 -228 182v-8q0 -284 -306 -284
q-172 0 -264 68q-94 70 -94 186q0 118 94 190q97 76 258 76q73 0 136 -10q-9 235 -14 388q-42 -2 -142 -2q-76 0 -282 10v158q156 -16 284 -16q98 0 140 2l-2 198q0 54 -8 104h190q-4 -28 -12 -100l-4 -190q153 11 272 38v-164z" />
    <glyph glyph-name="uni3071" unicode="&#x3071;" horiz-adv-x="1900" 
d="M634 1350q-16 -40 -34 -130q-82 -368 -82 -654q0 -88 12 -176q32 87 86 208l84 -66q-88 -255 -118 -378q-10 -50 -8 -76q0 -13 4 -62l-150 -12q-64 225 -64 528q0 222 72 696q8 66 12 138zM1292 378q-80 24 -156 24q-80 0 -132 -34q-54 -32 -54 -84q0 -116 180 -116
q162 0 162 168v42zM1708 948q-114 -18 -274 -30q8 -218 8 -236l12 -206q153 -61 322 -218l-88 -136q-134 123 -228 182v-8q0 -284 -306 -284q-172 0 -264 68q-93 68 -94 186q0 118 94 190q100 76 260 76q71 0 134 -10q-11 279 -14 388q-42 -2 -142 -2q-76 0 -282 10v156
q185 -14 284 -14q98 0 140 2l-2 198q0 53 -8 104h190q-9 -73 -10 -102l-6 -188q154 11 274 38v-164zM1756 1268q26 26 26 66q0 37 -26 66q-32 26 -68 26q-35 0 -66 -26q-24 -30 -24 -66q0 -38 24 -66q26 -24 66 -24q38 0 68 24zM1816 1458q52 -52 52 -124q0 -73 -52 -128
q-53 -50 -128 -50q-76 0 -126 50q-50 53 -50 128q0 74 50 124q52 54 126 52q74 2 128 -52z" />
    <glyph glyph-name="uni3072" unicode="&#x3072;" horiz-adv-x="1898" 
d="M1690 502q-106 132 -180 270q18 -323 -122 -546q-158 -248 -462 -246q-206 0 -326 122q-125 120 -120 326q0 370 282 676q-130 -21 -250 -42q-70 -13 -92 -22l-24 174q44 0 90 6q362 30 548 96l50 -146q-67 -23 -86 -36q-117 -90 -218 -260q-134 -224 -134 -422
q0 -148 86 -226q76 -72 200 -72q258 0 372 274q124 285 32 732l-40 108l162 50q85 -417 354 -686z" />
    <glyph glyph-name="uni3073" unicode="&#x3073;" horiz-adv-x="1898" 
d="M1760 1194q-54 147 -110 240l102 34q52 -89 112 -240zM1580 1130q-42 117 -106 242l102 32q84 -169 108 -236zM1424 1306q90 -422 356 -686l-126 -130q-100 128 -178 270q18 -328 -120 -548q-157 -244 -464 -244q-204 0 -324 120q-122 127 -122 328q0 368 282 674
q-113 -17 -248 -42q-7 -1 -19 -3.5t-35 -7t-40 -7.5l-24 174q37 0 90 4q356 29 548 96l50 -148l-88 -34q-105 -79 -216 -262q-136 -226 -134 -422q0 -148 86 -226q74 -68 202 -68q260 0 374 274q120 281 26 728q-26 72 -36 112z" />
    <glyph glyph-name="uni3074" unicode="&#x3074;" horiz-adv-x="1900" 
d="M1426 1306q90 -422 354 -686l-126 -130q-95 123 -178 270q22 -328 -120 -548q-157 -244 -464 -244q-204 0 -324 120q-122 127 -122 328q0 366 284 674q-147 -23 -248 -42q-22 -4 -96 -18l-24 174q41 0 90 4q361 29 548 96l50 -148l-86 -34q-109 -79 -218 -262
q-134 -230 -132 -422q0 -148 84 -226q77 -68 204 -68q258 0 372 274q118 277 28 728q-23 62 -38 112zM1756 1204q30 30 30 72t-30 72q-24 26 -70 30q-42 0 -72 -30q-26 -26 -30 -72q0 -42 30 -72q28 -28 72 -28q45 0 70 28zM1818 1410q58 -54 58 -134t-58 -134
q-54 -54 -132 -54q-80 0 -134 54t-54 134t54 134q54 56 134 56q78 0 132 -56z" />
    <glyph glyph-name="uni3075" unicode="&#x3075;" 
d="M1030 1004q42 24 108 80q-141 100 -344 178l98 124q261 -103 418 -210l40 -106q-131 -107 -214 -164zM724 224q135 -42 266 -40q154 0 154 124q0 138 -202 346q-62 57 -142 128l128 108q56 -56 128 -130q272 -283 272 -470q0 -144 -100 -214q-85 -56 -208 -56
q-125 0 -268 28zM1668 132q-85 310 -274 532l144 78q189 -229 286 -526zM802 448q-194 -200 -426 -338l-98 144q245 130 424 324z" />
    <glyph glyph-name="uni3076" unicode="&#x3076;" horiz-adv-x="1884" 
d="M1504 1198q69 -100 134 -232l-110 -46q-71 144 -134 230zM1694 1270q72 -107 136 -230l-106 -46q-80 153 -138 230zM994 988q42 26 112 80q-132 95 -344 180l96 124q285 -119 418 -210l38 -110q-157 -128 -212 -164zM690 206q135 -38 264 -38q158 0 158 122
q0 134 -202 348q-58 54 -144 128l128 106l41 -41l48 -48l39 -39q270 -271 270 -470q0 -142 -100 -212q-80 -56 -206 -56q-140 0 -272 24zM1632 116q-89 320 -272 534l144 74q189 -225 286 -524zM768 434q-195 -201 -422 -340l-100 142q250 138 424 326z" />
    <glyph glyph-name="uni3078" unicode="&#x3078;" horiz-adv-x="1888" 
d="M296 542q53 40 130 120q60 64 154 178q160 197 166 204q156 185 314 24q42 -42 170 -190q134 -160 170 -196q208 -234 410 -412l-132 -154q-136 126 -384 408q-5 7 -24.5 30t-59.5 70.5t-80 95.5q-89 110 -144 170q-48 55 -80 50q-28 -1 -70 -54q-10 -12 -53 -68
q-64 -82 -85 -112q-101 -140 -140 -186q-40 -54 -54 -74l-48 -68z" />
    <glyph glyph-name="uni3079" unicode="&#x3079;" horiz-adv-x="1884" 
d="M1382 1216q98 -145 158 -266l-122 -52q-78 166 -156 270zM1602 1306q104 -145 164 -262l-120 -56q-80 158 -162 266zM280 526q65 51 130 120q62 65 154 180l164 204q154 179 316 22q49 -53 168 -190q98 -115 172 -194q224 -250 410 -414l-138 -154q-108 100 -378 412
l-164 196q-49 59 -146 170q-48 52 -78 52q-26 -2 -70 -58q-33 -38 -138 -178q-109 -142 -144 -184l-3 -5q-1 -2 -7.5 -11t-11.5 -17l-9 -13.5t-11.5 -16.5t-10.5 -15q-5 -7 -49 -68z" />
    <glyph glyph-name="uni307B" unicode="&#x307b;" horiz-adv-x="1898" 
d="M672 1350q-10 -35 -34 -128q-76 -340 -76 -652q0 -88 10 -178q16 49 86 212l84 -68q-100 -291 -118 -378q-10 -50 -8 -76q0 -13 4 -62l-152 -10q-62 218 -62 526q0 225 70 694q13 87 14 138zM1312 370q-78 21 -138 22q-75 0 -128 -32q-46 -28 -46 -78q0 -108 164 -108
q148 0 150 144q0 34 -2 52zM1746 774q-84 -11 -294 -22q2 -111 12 -280q173 -59 346 -214l-88 -146q-127 130 -250 196v-50q0 -230 -288 -232q-148 0 -238 60q-96 70 -96 188q0 100 82 170q86 74 246 74q67 0 130 -10q-3 54 -10 238q-246 -4 -390 4v154q188 -16 388 -10v244
q-183 -4 -364 4v148q404 -30 778 22v-144q-168 -18 -260 -24v-242q132 7 296 26v-154z" />
    <glyph glyph-name="uni307C" unicode="&#x307c;" horiz-adv-x="1900" 
d="M628 1336q-19 -50 -32 -128q-82 -359 -82 -652q0 -96 12 -180q22 54 41 102.5t31 78t14 33.5l86 -68q-88 -254 -118 -378q-8 -37 -8 -76l4 -62l-152 -10q-66 218 -66 526q0 259 74 692q8 84 12 138zM1268 356q-63 20 -140 20q-76 0 -124 -30q-48 -26 -48 -76
q0 -110 164 -110q150 0 150 144q0 34 -2 52zM1702 760q-138 -14 -296 -24q0 -54 12 -282q181 -62 350 -210l-88 -146q-116 120 -254 194v-50q0 -230 -290 -230q-143 0 -234 62q-97 68 -98 186q0 102 80 168q86 74 248 74q69 0 132 -10q-1 35 -5 118q-1 20 -2 49t-2 38
q-1 17 -1 33q-194 -5 -392 6v152q189 -12 390 -10v244q-208 -4 -364 6v148q351 -26 666 10l-44 102l94 30q59 -114 96 -232l-96 -36v-6q-26 -3 -200 -16v-242q119 6 298 28v-154zM1776 1470q56 -114 98 -230l-98 -34q-55 154 -96 232z" />
    <glyph glyph-name="uni307E" unicode="&#x307e;" horiz-adv-x="1896" 
d="M1040 374q-81 16 -150 16q-100 0 -160 -36q-58 -34 -56 -88q0 -118 202 -118q164 0 164 134v92zM1576 84q-175 163 -370 242l2 -86q0 -102 -72 -168q-80 -74 -234 -74q-388 0 -388 260q0 122 106 192q109 76 292 76q42 0 122 -6q-1 45 -6 188h-92q-220 0 -410 24l2 156
q154 -27 410 -32h86v212h-82q-199 0 -376 26v152q191 -33 374 -34h86v94q0 57 -8 108h178q-8 -77 -8 -114l-2 -84q176 7 414 44l2 -152q-270 -27 -418 -34v-212q200 7 452 44l2 -156q-227 -27 -450 -38q0 -77 10 -224q253 -72 476 -258z" />
    <glyph glyph-name="uni307F" unicode="&#x307f;" horiz-adv-x="1890" 
d="M816 672q-157 -18 -248 -102q-88 -78 -88 -176q0 -42 24 -72q25 -27 58 -28q52 0 94 58q46 64 160 320zM1728 316q-61 55 -160 122q-108 -306 -430 -472l-140 114q331 138 432 446q-222 120 -438 144q-137 -323 -202 -418q-90 -130 -230 -130q-104 0 -166 66
q-68 68 -68 180q0 188 156 318q160 130 402 138q114 261 154 340q-109 -1 -318 -16q-51 -1 -128 -12l-6 172q66 -6 130 -6q194 0 364 16q48 0 96 20l104 -84q-43 -47 -48 -62q-34 -51 -178 -376q198 -25 412 -124q9 83 10 94q2 80 0 164l172 -18q-11 -201 -34 -316
q104 -62 192 -120z" />
    <glyph glyph-name="uni3080" unicode="&#x3080;" horiz-adv-x="1890" 
d="M548 472q28 -32 72 -36q122 0 122 208q0 116 -88 116q-55 0 -96 -56q-42 -54 -42 -136q0 -61 32 -96zM1616 508q4 -136 0 -184q-6 -113 -56 -184q-56 -68 -174 -104q-122 -32 -352 -32q-239 0 -330 64q-60 48 -60 154q0 42 2 60q-32 -4 -42 -4q-90 0 -156 66
q-74 74 -74 214q0 138 80 236t210 98h26v140h-48q-144 0 -268 14l-10 156q123 -22 266 -22q44 0 60 2v52q0 126 -12 180h182q-12 -84 -12 -180v-40q162 18 308 58v-160q-136 -33 -308 -50v-236q44 -59 44 -156q0 -179 -88 -282q-2 -26 -2 -88q0 -66 42 -90q42 -23 202 -28
q170 0 270 30q132 42 132 176q0 117 -14 198zM1434 1254q182 -120 338 -312l-118 -120q-146 187 -330 320z" />
    <glyph glyph-name="uni3081" unicode="&#x3081;" horiz-adv-x="1884" 
d="M922 586q103 183 176 418q-164 -12 -318 -106q71 -188 128 -286zM804 474q-74 117 -152 322q-154 -160 -154 -354q0 -158 110 -158q96 0 216 156zM1350 1374l-54 -236q202 -42 320 -184q122 -146 122 -362q0 -250 -166 -406q-153 -147 -430 -188l-98 152q258 24 396 150
q128 116 128 300q0 152 -84 256q-89 110 -226 138q-108 -360 -236 -550q46 -56 96 -108l-130 -108q-51 57 -70 82q-168 -193 -328 -192q-104 0 -172 80q-74 83 -74 232q0 304 252 520q-14 39 -50 144q-31 106 -58 162l172 52q8 -45 36 -152q11 -35 22.5 -73t13.5 -43
q193 109 402 110q11 56 26 102q12 74 8 140z" />
    <glyph glyph-name="uni3082" unicode="&#x3082;" horiz-adv-x="1880" 
d="M1508 796q168 -198 168 -388q0 -186 -154 -300q-156 -114 -414 -114q-192 0 -304 88q-122 98 -122 292q0 54 12 182q-218 23 -334 58l8 160q148 -50 342 -68q11 115 34 268q-177 13 -344 60l8 154q146 -51 354 -64q13 116 14 156q8 80 2 132l188 -12q-14 -66 -24 -130
l-20 -152q209 0 322 22l-4 -156q-206 -18 -334 -18h-4q-22 -164 -34 -266h22q193 0 342 20l-6 -156q-172 -18 -310 -18h-64q-8 -91 -8 -142q0 -238 266 -240q182 0 284 72q105 73 106 192q0 176 -176 332z" />
    <glyph glyph-name="uni3083" unicode="&#x3083;" horiz-adv-x="1874" 
d="M1056 874q-87 93 -180 158l118 86q100 -70 182 -158zM684 992l118 -230q341 142 484 142q161 0 250 -86q82 -78 82 -196q0 -306 -344 -306q-111 0 -210 40l6 152q101 -46 194 -46q194 0 194 160q0 56 -40 90q-50 48 -138 44q-128 0 -416 -126l50 -112q95 -217 204 -568
l-166 -42q-73 283 -184 546l-48 112q-17 -8 -152 -78q-88 -45 -108 -52l-78 162q65 13 130 40l148 58q-35 78 -68 130q-40 60 -72 102z" />
    <glyph glyph-name="uni3084" unicode="&#x3084;" horiz-adv-x="1880" 
d="M1090 1166q-152 146 -218 194l120 86q126 -96 218 -188zM618 1298q49 -93 62 -116q48 -86 90 -178q388 171 584 176q178 0 286 -96q104 -92 104 -236q0 -156 -102 -256q-104 -98 -294 -98q-130 0 -250 48l4 164q121 -56 232 -56q119 0 178 58q60 54 60 146q0 74 -56 122
q-61 52 -166 52q-169 0 -516 -160l54 -120q129 -291 256 -714l-182 -42q-114 432 -224 684l-54 120q-272 -134 -310 -150l-80 170q92 23 150 46q99 41 176 76q-2 5 -86 166q-41 69 -88 128z" />
    <glyph glyph-name="uni3085" unicode="&#x3085;" horiz-adv-x="1896" 
d="M1440 342q66 70 66 188q0 226 -244 244q8 -101 8 -200q0 -174 -36 -312q136 4 206 80zM1224 1074q2 -9 6 -37t7 -45q11 -66 13 -76q192 -6 304 -118q106 -102 106 -264q0 -186 -108 -300q-122 -128 -334 -128q-26 0 -40 2q-68 -128 -190 -214l-144 84q117 67 178 174
q-129 65 -200 204l84 124q72 -142 178 -190q36 120 36 296q0 106 -6 178q-156 -32 -270 -156q-105 -114 -130 -244q-8 -42 -6 -74q0 -55 16 -138l-142 -22q-48 159 -46 364q0 155 34 434q4 59 2 74l174 -14l-14 -38l-12 -36q-42 -205 -38 -336q126 262 420 322
q-11 69 -16 88q-5 27 -26 82z" />
    <glyph glyph-name="uni3086" unicode="&#x3086;" horiz-adv-x="1894" 
d="M1488 492q94 88 94 232q0 133 -76 218q-85 93 -240 100q10 -127 10 -254q0 -228 -42 -386q163 5 254 90zM1220 1406q9 -56 16.5 -106t12 -78.5t5.5 -33.5q219 -1 360 -136q130 -124 130 -322q0 -220 -130 -350q-136 -142 -394 -142q-28 0 -42 2q-83 -168 -236 -276
l-156 94q148 84 226 224q-173 77 -258 250l98 118q89 -170 220 -224q44 152 44 362q0 124 -10 244q-192 -43 -330 -202q-120 -138 -156 -302q-12 -54 -10 -94q1 -78 20 -160l-146 -20q-58 190 -58 442q0 92 42 500q6 49 4 88l180 -14l-28 -88q-50 -260 -42 -424
q158 342 512 416q-6 69 -20 120q-11 58 -28 108z" />
    <glyph glyph-name="uni3087" unicode="&#x3087;" horiz-adv-x="1884" 
d="M976 266q-57 10 -108 10q-98 0 -147 -25q-48 -25 -47 -77q0 -46 46 -74q47 -26 132 -26q126 0 126 120q0 48 -2 72zM1118 672q0 -80 12 -300q233 -71 414 -238l-88 -144q-157 154 -318 226q2 -22 2 -72q0 -94 -58 -152q-70 -66 -208 -66q-156 0 -252 60q-98 66 -98 180
q0 116 94 176q95 68 270 68q42 0 84 -6q-10 210 -10 278v254q0 102 -12 150h180q-12 -56 -12 -148v-100q250 2 402 24l2 -148q-229 -19 -404 -20v-22z" />
    <glyph glyph-name="uni3088" unicode="&#x3088;" horiz-adv-x="1882" 
d="M970 404q-70 14 -148 14q-109 0 -180 -38q-64 -36 -64 -98q0 -128 228 -128q166 0 166 166q0 54 -2 84zM1550 82q-179 179 -404 270q2 -32 2 -88q0 -268 -326 -268q-412 0 -412 278q0 130 104 208q118 84 328 84q42 0 122 -6q-12 306 -12 370v288q-1 121 -16 178h198
q-3 -18 -14 -178v-144q263 1 480 28l8 -160q-198 -18 -488 -24q0 -43 16 -396q292 -79 514 -282z" />
    <glyph glyph-name="uni3089" unicode="&#x3089;" horiz-adv-x="1892" 
d="M780 1400q279 -86 652 -128l-38 -162q-319 44 -656 132zM766 1084q-23 -96 -66 -428q224 182 516 182q196 0 322 -108q120 -107 120 -254q0 -245 -208 -366q-233 -134 -694 -98l-54 174q365 -48 580 38q194 80 194 254q0 90 -78 148q-74 60 -196 60q-315 0 -490 -208
q-22 -26 -54 -90l-154 38q64 315 82 682z" />
    <glyph glyph-name="uni308A" unicode="&#x308a;" horiz-adv-x="1888" 
d="M796 1402q-48 -168 -72 -410q55 124 170 222q128 110 266 110q172 0 282 -156q115 -158 110 -424q0 -622 -712 -754l-100 150q304 48 454 168q182 146 182 436q0 196 -64 308q-66 120 -182 120q-144 0 -270 -178q-123 -168 -130 -340q-8 -75 8 -192l-164 -12
q-22 151 -22 268q0 185 52 536q8 90 12 156z" />
    <glyph glyph-name="uni308B" unicode="&#x308b;" horiz-adv-x="1880" 
d="M1154 150q-7 90 -62 146q-54 58 -136 58q-54 0 -86 -26t-32 -66q0 -56 56 -86q51 -27 140 -32q72 0 120 6zM1476 1226q-75 -46 -102 -68q-58 -46 -406 -334q81 28 198 28q212 0 348 -112q136 -115 136 -292q0 -208 -150 -328q-160 -126 -436 -126q-169 0 -278 70
q-106 70 -104 184q0 94 76 164q82 72 198 72q150 0 242 -86q88 -82 106 -208q174 83 174 260q0 118 -102 192q-101 74 -258 74q-187 0 -336 -86q-118 -72 -282 -242l-124 122q32 25 104 84q30 25 74.5 61t53.5 43l206 172q27 23 366 310q-336 -13 -460 -20q-77 -5 -120 -14
l-6 174q69 -8 130 -8q314 0 556 18q71 7 106 16z" />
    <glyph glyph-name="uni308C" unicode="&#x308c;" horiz-adv-x="1890" 
d="M1842 194q-131 -130 -308 -130q-88 0 -142 56q-54 60 -54 170q0 97 32 310q28 199 28 290q0 67 -31 99q-31 33 -93 31q-174 0 -462 -312q0 -10 -2 -38.5t-3 -47.5q-3 -55 -3 -82q0 -287 10 -414q0 -6 3 -42q4 -45 7 -70h-182q0 31 1 48q0 7 0.5 20.5t1.5 18.5q1 9 1 21
q1 159 6 436q-175 -262 -244 -356l-104 148q217 271 362 490l10 140l-316 -40l-16 172q36 -4 124 0q85 6 218 24q8 117 8 146q0 91 -8 134l196 -6q-17 -89 -34 -238l60 -70q-18 -23 -78 -122l-6 -66q292 264 494 264q122 0 186 -66q60 -60 60 -170q0 -101 -28 -300
q-26 -186 -30 -304q0 -86 78 -90q112 0 232 128z" />
    <glyph glyph-name="uni308D" unicode="&#x308d;" horiz-adv-x="1878" 
d="M598 1306q60 -6 118 -6q301 0 536 14q44 1 104 16l94 -118q-23 -14 -50.5 -30.5t-31.5 -19.5q-272 -206 -416 -332q95 36 214 34q210 0 344 -108q132 -112 132 -282q0 -250 -218 -376q-228 -134 -632 -100l-48 170q330 -42 524 42q196 79 196 266q0 108 -90 178
q-92 68 -244 68q-198 0 -364 -108q-113 -73 -270 -248l-124 132q123 112 414 364l354 306q-192 -6 -412 -22q-74 -7 -124 -14z" />
    <glyph glyph-name="uni308F" unicode="&#x308f;" horiz-adv-x="1884" 
d="M900 1102q-18 -23 -78 -122l-4 -40l-2 -40q241 192 508 190q185 0 312 -118q129 -121 134 -312q2 -239 -151 -387q-154 -149 -461 -209l-76 158q516 74 516 440q0 104 -76 186q-84 88 -224 88q-252 0 -496 -226q-2 -80 -6 -170q0 -300 8 -414q7 -60 12 -112h-184
q0 31 1 48q0 7 0.5 20.5t1.5 18.5q1 9 1 21q2 122 4 232.5t3 155.5t1 48q-175 -262 -244 -356l-106 148q222 272 364 488l10 142q-48 -4 -150 -18l-166 -22l-16 172q36 -4 124 0q87 6 218 24q8 117 8 146q0 91 -8 134l196 -6q-17 -89 -34 -238z" />
    <glyph glyph-name="uni3092" unicode="&#x3092;" horiz-adv-x="1880" 
d="M1058 310q6 73 6 232q-228 -130 -228 -252q0 -80 76 -110q60 -24 200 -24q224 0 460 42l-4 -170q-225 -26 -462 -26q-440 0 -440 262q0 232 390 432q-30 82 -134 82q-148 0 -274 -120q-61 -60 -154 -176l-142 106q256 244 376 486h-48q-131 0 -278 10v156
q166 -19 286 -20h96q34 117 40 200l172 -14q-16 -62 -27 -106q-17 -68 -19 -74q260 12 492 50v-154q-188 -29 -550 -46q-54 -121 -124 -216q89 50 210 50q174 0 222 -142q-1 -1 13.5 5t50.5 22q1 0 202 91q117 52 158 74l66 -156q-80 -18 -166 -56q-136 -52 -312 -132
l8 -306h-162z" />
    <glyph glyph-name="uni3093" unicode="&#x3093;" horiz-adv-x="1890" 
d="M1164 1340l-52 -80q-99 -154 -310 -538q100 76 222 76q89 0 142 -50q51 -54 56 -158q2 -26 2 -152q5 -102 6 -142q6 -104 122 -104q113 0 202 128q70 106 112 272l140 -112q-144 -466 -480 -466q-126 0 -196 70q-56 59 -62 150q-4 57 -4 160q-1 105 -6 146
q-4 108 -108 106q-172 0 -298 -260q-81 -166 -136 -374l-184 62q166 456 576 1194q4 7 19 40q14 31 16 34q5 9 13 27q7 17 10 21q4 7 6 14q1 5 4 8v2z" />
    <glyph glyph-name="uni30A1" unicode="&#x30a1;" horiz-adv-x="1896" 
d="M1120 686q-6 -307 -62 -458q-85 -221 -336 -358l-144 118q65 24 126 62q149 100 202 234q42 113 40 294q0 45 -10 108h184zM1690 860q-20 -20 -44 -56q-162 -267 -336 -392l-134 92q171 112 266 280l-766 2q-77 0 -168 -8v172q100 -12 168 -12h804q69 0 114 8z" />
    <glyph glyph-name="uni30A2" unicode="&#x30a2;" horiz-adv-x="1898" 
d="M1126 974q0 -392 -68 -572q-96 -262 -398 -414l-156 126q92 31 162 82q165 104 232 276q48 137 46 368q0 71 -10 134h192zM1804 1196q-45 -50 -56 -70q-168 -289 -410 -462l-140 112q239 138 342 346h-922q-60 0 -196 -8v186q85 -11 196 -16h938q94 0 142 12z" />
    <glyph glyph-name="uni30A3" unicode="&#x30a3;" horiz-adv-x="1866" 
d="M1528 936q-126 -142 -380 -304v-578q0 -123 10 -162h-196q8 69 8 162v474q-263 -133 -506 -198l-88 156q311 67 588 226q298 174 430 346z" />
    <glyph glyph-name="uni30A4" unicode="&#x30a4;" horiz-adv-x="1874" 
d="M1214 212q0 -144 12 -198h-208q10 80 10 198v596q-287 -153 -608 -244l-94 160q415 95 756 308q288 179 438 374l140 -128q-197 -197 -446 -360v-706z" />
    <glyph glyph-name="uni30A5" unicode="&#x30a5;" horiz-adv-x="1890" 
d="M1626 822q-4 -19 -4 -21q0 -4 -1 -9.5t-3 -13.5t-3 -14q-5 -24 -9 -42q-32 -234 -138 -420q-169 -303 -584 -406l-130 150q113 17 178 46q248 90 358 260q109 167 128 366h-738v-220q0 -54 6 -90h-170q0 30 1 45q0 6 0.5 18.5t1.5 16.5q1 8 1 18v250q0 71 -8 122
q84 -6 152 -6h298v106q0 37 -10 110h186q-8 -58 -8 -110v-106h280q77 0 104 8z" />
    <glyph glyph-name="uni30A6" unicode="&#x30a6;" horiz-adv-x="1890" 
d="M1712 1096q-19 -51 -26 -116q-54 -303 -162 -490q-198 -358 -672 -490l-140 160q108 17 204 56q272 92 422 314q117 179 152 464h-890v-276q0 -70 6 -110h-182q6 72 6 122v294q0 84 -6 134q91 -10 162 -10h366v146q0 68 -12 140h202q-10 -96 -10 -140v-146h340
q71 0 126 20z" />
    <glyph glyph-name="uni30A7" unicode="&#x30a7;" 
d="M1520 166q54 0 116 8v-172q-60 4 -116 4h-930q-51 0 -126 -4v172q77 -8 126 -8h368v582h-286q-62 0 -126 -4v168q59 -8 124 -8h770q64 0 122 8v-168q-68 4 -122 4h-310v-582h390z" />
    <glyph glyph-name="uni30A8" unicode="&#x30a8;" 
d="M1608 302q44 0 146 12v-194q-63 10 -146 10h-1108q-80 0 -156 -10v194q68 -12 156 -12h452v732h-354q-94 0 -150 -6v182q69 -8 150 -8h918q82 0 152 8v-182q-61 6 -152 6h-382v-732h474z" />
    <glyph glyph-name="uni30A9" unicode="&#x30a9;" horiz-adv-x="1892" 
d="M1542 820q67 0 124 10v-164q-37 0 -56 1q-7 0 -22 0.5t-21 1.5q-10 1 -19 1h-224q10 -382 12 -624q0 -60 -42 -96t-102 -36q-103 0 -250 10l-10 154q118 -16 198 -16q48 0 48 50q0 176 -6 412q-212 -285 -566 -472l-116 132q397 182 608 486h-412q-54 0 -140 -6v166
q63 -10 136 -10h486q0 35 -1 62q-1 40 -3 60q-1 39 -16 126h178q-8 -56 -8 -126v-122h224z" />
    <glyph glyph-name="uni30AA" unicode="&#x30aa;" horiz-adv-x="1882" 
d="M1560 1106q68 0 158 10v-176q-107 4 -148 4h-244q11 -604 14 -776q0 -150 -170 -150q-112 0 -280 8l-12 174q120 -18 230 -18q62 0 62 66q0 181 -4 540q-262 -359 -714 -598l-120 138q503 240 756 616h-512q-87 0 -170 -6v178q86 -10 166 -10h588l-6 144q-2 92 -18 152
h194q-12 -100 -10 -152l4 -144h236z" />
    <glyph glyph-name="uni30AB" unicode="&#x30ab;" horiz-adv-x="1878" 
d="M1648 1054q-9 -55 -10 -84q-18 -633 -102 -814q-53 -116 -194 -116q-34 0 -272 14l-22 176q147 -22 244 -22q72 0 96 58q78 166 78 678h-430q-80 -620 -516 -926l-156 126q111 61 196 140q246 230 306 660h-256q-118 0 -204 -6v174q137 -10 204 -10h270q6 74 6 160
q0 74 -12 144h196q0 -15 -4 -58q-5 -48 -6 -82q0 -70 -8 -164h364q43 0 116 10z" />
    <glyph glyph-name="uni30AC" unicode="&#x30ac;" horiz-adv-x="1894" 
d="M1518 1132q-74 147 -134 232l106 48q71 -101 138 -230zM1398 1090q45 0 118 10l114 -58q-5 -22 -10 -84q-18 -629 -100 -814q-54 -116 -194 -116q-78 0 -276 12l-18 178q165 -20 242 -20q70 0 94 56q77 156 82 678h-432q-80 -620 -516 -926l-154 128q102 54 192 138
q253 236 308 660h-256q-116 0 -204 -6v176q116 -10 204 -12h270q6 74 6 162q0 76 -12 142h196q0 -2 -3 -53l-5 -85q-2 -50 -8 -166h362zM1682 1480q68 -91 138 -226l-108 -48q-80 150 -140 230z" />
    <glyph glyph-name="uni30AD" unicode="&#x30ad;" horiz-adv-x="1888" 
d="M1728 588q-8 0 -164 -24l-390 -62q-1174 -502 62 -324q20 -84 44 -158l-190 -32q-24 160 -26 162l-22 120q-8 48 -21 113q-4 20 -7.5 39.5t-6 34t-3.5 19.5q-263 -43 -430 -74q-100 -17 -156 -34l-42 180q60 4 162 18l434 66l-58 308q-173 -26 -352 -58q-58 -10 -144 -30
l-38 184q95 6 148 12q55 6 354 52l-34 166q-13 59 -32 120l186 32l20 -122q5 -36 30 -172q290 47 362 64q89 16 136 30l34 -176q-16 0 -134 -16l-368 -58l58 -308q300 50 394 68q115 23 158 36z" />
    <glyph glyph-name="uni30AE" unicode="&#x30ae;" horiz-adv-x="1894" 
d="M1704 1250q-68 142 -138 228l110 48q76 -106 136 -230zM1120 638q300 50 394 68q111 23 158 36l32 -174q-10 0 -29 -4q-22 -5 -58 -9q-25 -3 -75 -11l-392 -62l64 -322q24 -105 46 -158l-196 -36l-22 164l-10 50q-22 131 -48 272q-96 -16 -434 -72q-151 -31 -154 -32
l-40 180q57 0 160 16q109 15 434 68l-58 308l-352 -58q-76 -14 -144 -30l-36 184q74 2 146 12q65 6 354 50l-22 106q-2 14 -4.5 28t-4 22.5t-1.5 11.5q-7 33 -34 118l186 32l28 -182l22 -108q268 42 362 60q60 11 112 26q-61 126 -128 218l108 44q65 -95 136 -230l-88 -38
l30 -166q-24 0 -136 -16l-366 -58z" />
    <glyph glyph-name="uni30AF" unicode="&#x30af;" horiz-adv-x="1880" 
d="M1686 1124q-26 -45 -46 -100q-90 -321 -296 -574q-241 -295 -670 -462l-158 138q417 126 674 420q198 226 256 494h-524q-185 -247 -426 -410l-148 110q336 203 526 554q36 62 62 154l194 -64q-27 -40 -86 -150q-6 -18 -24 -42h402q79 0 126 16z" />
    <glyph glyph-name="uni30B0" unicode="&#x30b0;" horiz-adv-x="1890" 
d="M1372 1154q84 0 126 18l136 -86q-25 -43 -44 -100q-90 -321 -298 -572q-248 -302 -670 -464l-156 140q422 126 672 418q201 231 256 496h-526q-181 -246 -424 -410l-148 108q338 204 528 556q32 51 62 152l194 -64q-25 -36 -86 -148l-26 -44h404zM1508 1436
q68 -97 134 -230l-110 -46q-65 132 -134 230zM1696 1508q80 -109 140 -228l-110 -50q-72 145 -136 232z" />
    <glyph glyph-name="uni30B1" unicode="&#x30b1;" horiz-adv-x="1880" 
d="M1582 1106q99 0 162 10v-182q-86 6 -162 6h-264q-42 -646 -506 -940l-180 120q86 37 146 84q328 250 358 736h-396q-124 -227 -276 -358l-168 102q154 118 298 354q46 82 94 232q27 86 28 150l206 -40l-48 -126q-12 -33 -54 -148h762z" />
    <glyph glyph-name="uni30B2" unicode="&#x30b2;" horiz-adv-x="1888" 
d="M1714 1214q-70 143 -138 232l108 42q77 -101 138 -226zM1520 1140q-67 140 -134 234l106 46q71 -101 138 -230zM1564 1074q99 0 166 10v-180q-68 4 -166 4h-260q-42 -646 -508 -940l-178 120q86 30 146 84q323 247 358 736h-398q-127 -233 -274 -356l-166 100
q152 114 294 354q50 82 98 234q22 70 28 148l206 -40l-50 -126q-29 -85 -58 -148h762z" />
    <glyph glyph-name="uni30B3" unicode="&#x30b3;" horiz-adv-x="1890" 
d="M1464 36l2 90h-794q-104 0 -204 -6v190q117 -8 196 -8h804v746h-784q-38 0 -194 -4v184q127 -10 194 -10h834q63 0 134 4q-4 -89 -4 -140v-870q0 -106 8 -176h-192z" />
    <glyph glyph-name="uni30B4" unicode="&#x30b4;" horiz-adv-x="1904" 
d="M1488 1208q-66 136 -132 226l112 46q64 -92 134 -222zM1626 188q0 -28 6 -174h-190l2 90h-796q-123 0 -200 -8v190q117 -8 196 -8h802v746h-782q-42 0 -198 -4v184q114 -8 198 -8h834q76 0 132 2q0 -41 -1 -63q0 -9 -0.5 -26.5t-1.5 -24.5q-1 -12 -1 -26v-870zM1688 1532
q53 -75 134 -224l-112 -46q-68 130 -138 222z" />
    <glyph glyph-name="uni30B5" unicode="&#x30b5;" horiz-adv-x="1884" 
d="M1594 1050q123 0 168 8v-176q-49 4 -166 4h-160v-56q0 -338 -98 -520q-107 -202 -392 -328l-144 134q251 90 352 230q114 155 110 476v64h-442v-252q0 -66 6 -160h-184q8 114 8 160v252h-164q-78 0 -174 -4v178q81 -10 174 -10h164v194q0 30 -8 134h188q-10 -70 -10 -134
v-194h442v196q0 86 -8 144h190q-10 -80 -10 -144v-196h158z" />
    <glyph glyph-name="uni30B6" unicode="&#x30b6;" horiz-adv-x="1888" 
d="M1732 1150q-56 158 -96 234l96 30q59 -114 96 -230zM1560 1098q-68 184 -92 234l94 28q57 -122 96 -230zM1566 1022q98 0 168 10v-180q-36 6 -166 6h-156v-58q0 -339 -100 -520q-112 -202 -392 -328l-144 136q249 89 350 230q114 156 114 472v68h-444v-252q0 -68 6 -164
h-184q8 58 8 164v252h-164q-90 0 -176 -6v182q88 -12 176 -12h164v190q0 24 -8 138h186q-8 -58 -8 -138v-190h444v192q0 85 -10 146h190q-8 -120 -8 -146v-192h154z" />
    <glyph glyph-name="uni30B7" unicode="&#x30b7;" horiz-adv-x="1890" 
d="M722 1380q178 -99 374 -240l-100 -144q-176 127 -370 240zM446 184q320 59 566 190q423 241 644 624l102 -176q-234 -356 -656 -602q-261 -154 -558 -208zM468 1000q215 -117 376 -230l-96 -150q-208 147 -376 236z" />
    <glyph glyph-name="uni30B8" unicode="&#x30b8;" horiz-adv-x="1894" 
d="M1428 1346q94 -140 156 -260l-118 -52q-74 158 -152 262zM1654 1426q77 -99 158 -254l-116 -52q-71 140 -158 258zM706 1374q170 -93 374 -240l-102 -142q-179 130 -366 236zM428 178q322 54 568 190q428 246 642 624l102 -176q-241 -363 -656 -604q-259 -151 -558 -206z
M450 994q217 -118 378 -230l-98 -150q-161 120 -374 236z" />
    <glyph glyph-name="uni30B9" unicode="&#x30b9;" 
d="M1576 1190q-15 -23 -48 -86q-127 -288 -274 -480q264 -224 478 -490l-148 -132q-168 235 -446 492q-305 -329 -644 -484l-136 142q374 142 690 492q195 219 266 444h-616q-11 0 -182 -10v188q81 -10 182 -10h622q95 0 146 16z" />
    <glyph glyph-name="uni30BA" unicode="&#x30ba;" horiz-adv-x="1892" 
d="M1550 1182q-21 -30 -48 -88q-113 -266 -278 -478q265 -225 482 -492l-150 -130q-174 238 -442 490q-306 -325 -646 -482l-136 142q381 143 690 488q200 221 266 444h-614q-30 0 -184 -8v188q86 -10 184 -10h620q94 0 148 18l64 -52q-63 125 -120 208l110 46
q81 -125 132 -232l-94 -40zM1694 1526q90 -131 136 -230l-106 -48q-66 136 -136 230z" />
    <glyph glyph-name="uni30BB" unicode="&#x30bb;" horiz-adv-x="1874" 
d="M1168 560q170 158 284 372l-202 -40q-6 -1 -380 -74v-476q0 -86 42 -116q53 -32 188 -32q252 0 526 50l-8 -180q-254 -36 -524 -36q-240 0 -328 66q-72 54 -72 200v486l-370 -78l-34 174q91 13 404 70v266q0 96 -10 172h196q-10 -91 -10 -172v-232q495 96 606 124
q67 13 104 32l126 -98q-27 -35 -48 -76q-174 -316 -346 -488z" />
    <glyph glyph-name="uni30BC" unicode="&#x30bc;" horiz-adv-x="1888" 
d="M1524 1160q-66 134 -134 232l108 44q56 -81 134 -230zM856 960q352 66 610 122q71 17 100 34l128 -98q-15 -17 -48 -76q-168 -308 -344 -492l-146 88q172 156 286 376l-586 -120v-474q0 -84 44 -116q45 -27 188 -32q264 0 526 54l-8 -182q-252 -36 -524 -36
q-242 0 -326 66q-72 58 -72 200v488q-210 -42 -372 -78l-34 174q100 13 406 68v268q0 102 -12 170h196q-12 -80 -12 -170v-234zM1688 1508q84 -120 138 -228l-108 -50q-78 152 -136 234z" />
    <glyph glyph-name="uni30BD" unicode="&#x30bd;" horiz-adv-x="1882" 
d="M632 144q363 145 584 468q147 215 206 530q13 79 18 166l210 -30q-21 -79 -22 -84q-3 -14 -7.5 -31.5t-7 -27.5t-3.5 -15q-67 -344 -230 -596q-220 -339 -592 -518zM560 1292q112 -160 286 -480l-172 -100q-130 279 -280 494z" />
    <glyph glyph-name="uni30BE" unicode="&#x30be;" horiz-adv-x="1896" 
d="M622 122q632 270 770 926q24 116 22 162l208 -38q-16 -52 -40 -148q-174 -724 -804 -1036zM548 1272q111 -153 286 -482l-172 -96q-143 300 -284 494zM1470 1476q69 -90 136 -222l-116 -50q-54 111 -130 228zM1690 1530q55 -79 136 -226l-114 -46q-78 140 -138 224z" />
    <glyph glyph-name="uni30BF" unicode="&#x30bf;" horiz-adv-x="1878" 
d="M1684 1154q-34 -66 -46 -104q-73 -243 -240 -482q120 -78 162 -108l-116 -154q-59 50 -162 118q-254 -288 -638 -434l-152 134q380 114 644 396q-204 133 -344 212l114 124q181 -98 344 -196q146 210 198 408h-534q-197 -268 -440 -436l-144 108q348 216 536 572
q46 71 64 152l190 -62q-53 -88 -84 -146l-20 -38h406q73 0 126 22z" />
    <glyph glyph-name="uni30C0" unicode="&#x30c0;" horiz-adv-x="1890" 
d="M1550 1176l100 -62q-24 -42 -48 -102q-79 -260 -238 -482q96 -62 162 -108l-122 -152q-35 30 -154 116q-263 -293 -642 -436l-154 134q380 119 648 400q-136 91 -344 208l110 128q163 -86 346 -198q150 216 198 410h-532q-189 -260 -444 -440l-144 112q352 212 540 570
q37 56 62 152l192 -60q-14 -20 -88 -150l-20 -34h408q79 0 126 16l8 -2q-65 125 -122 204l110 46q59 -84 134 -232zM1696 1516q75 -99 140 -230l-110 -46q-66 135 -136 230z" />
    <glyph glyph-name="uni30C1" unicode="&#x30c1;" 
d="M1612 846q66 0 142 6v-170q-60 6 -140 6h-450q-32 -464 -432 -696l-166 112q386 185 422 584h-484q-90 0 -152 -6v172q62 -8 150 -8h490v276q-220 -21 -472 -22l-40 154q305 -10 568 26q303 42 426 98l112 -146l-112 -28q-152 -38 -308 -62v-296h446z" />
    <glyph glyph-name="uni30C3" unicode="&#x30c3;" horiz-adv-x="1892" 
d="M1042 1004q92 -220 134 -366l-158 -56q-48 186 -134 368zM1654 894q-17 -47 -32 -100q-78 -306 -234 -504q-215 -274 -552 -406l-140 142q344 96 552 354q182 228 222 574zM652 916q56 -113 152 -382l-158 -58q-84 260 -152 382z" />
    <glyph glyph-name="uni30C4" unicode="&#x30c4;" 
d="M986 1352q93 -188 172 -444l-166 -60q-70 245 -168 448zM1740 1232q-4 -9 -34 -110q-101 -395 -280 -630q-260 -344 -660 -488l-146 148q408 119 660 440q210 268 264 696zM518 1250q98 -212 192 -466l-168 -62q-90 284 -190 468z" />
    <glyph glyph-name="uni30C6" unicode="&#x30c6;" horiz-adv-x="1888" 
d="M728 1160q-96 0 -164 -6v172q116 -12 164 -12h674q68 0 168 12v-172q-82 6 -168 6h-674zM1614 890q69 0 142 10v-172q-53 1 -142 6h-430q-7 -264 -104 -450q-104 -194 -334 -310l-156 112q203 79 312 250q89 139 100 398h-486q-85 0 -152 -6v172q81 -10 152 -10h1098z
" />
    <glyph glyph-name="uni30C7" unicode="&#x30c7;" horiz-adv-x="1900" 
d="M1568 1180q-74 151 -132 230l108 46q58 -83 136 -232zM716 1162q-74 0 -164 -6v172q80 -10 164 -10h566q84 0 170 10v-172q-108 6 -170 6h-566zM1606 894q83 0 140 10v-174q-92 4 -140 4h-430q-11 -270 -106 -448q-97 -190 -332 -312l-156 114q200 80 310 250
q92 144 102 396h-486q-71 0 -152 -4v174q86 -10 152 -10h1098zM1732 1526q86 -116 140 -230l-108 -44q-66 136 -138 228z" />
    <glyph glyph-name="uni30C8" unicode="&#x30c8;" horiz-adv-x="1922" 
d="M1608 486q-263 142 -634 262v-518q0 -117 16 -216h-208q12 94 12 216v968q0 102 -14 188h208q-14 -156 -14 -188v-262q413 -125 712 -268z" />
    <glyph glyph-name="uni30C9" unicode="&#x30c9;" horiz-adv-x="1922" 
d="M1618 1080q-70 140 -156 252l114 52q98 -138 156 -250zM1400 992q-62 138 -148 256l112 48q114 -167 154 -254zM922 912q414 -124 708 -270l-74 -182q-260 140 -634 260v-518q0 -106 12 -214h-204q12 95 12 214v972q0 107 -14 186h206q-12 -148 -12 -186v-262z" />
    <glyph glyph-name="uni30CA" unicode="&#x30ca;" horiz-adv-x="1890" 
d="M1604 998q102 0 162 6v-178q-57 4 -162 4h-416q-7 -559 -472 -834l-164 122q442 204 454 712h-464q-99 0 -174 -4v180q94 -8 170 -8h468v204q0 111 -16 182h210q-12 -60 -12 -182v-204h416z" />
    <glyph glyph-name="uni30CB" unicode="&#x30cb;" horiz-adv-x="1882" 
d="M356 354q127 -10 190 -10h986q82 0 168 10v-202q-88 8 -168 8h-986q-96 0 -190 -8v202zM500 1180q85 -8 178 -8h706q104 0 174 8v-190q-94 6 -174 6h-704q-76 0 -180 -6v190z" />
    </font>
</defs>
</svg>
